<svg id="FINAL" xmlns="http://www.w3.org/2000/svg" viewBox="0 0 121.39 31.3"><defs><style>.cls-1{fill:#fff;}</style></defs><title>InC.white</title><path class="cls-1" d="M2625,1481.9h2.67l3.86,13.92h-2.71l-0.75-2.89h-3.56l-0.73,2.89h-2.61Zm2.44,8.67-1.13-4.55-1.17,4.55h2.3Z" transform="translate(-2584.43 -1481.81)"/><path class="cls-1" d="M2632.74,1482h2.65v11.39h4.16v2.48h-6.81V1482Z" transform="translate(-2584.43 -1481.81)"/><path class="cls-1" d="M2641,1482h2.65v11.39h4.16v2.48H2641V1482Z" transform="translate(-2584.43 -1481.81)"/><path class="cls-1" d="M2652.93,1482h3.92a4.78,4.78,0,0,1,3.47,1.23,4.43,4.43,0,0,1,1.15,3.25v0.12a4.17,4.17,0,0,1-2.12,3.9l2.44,5.37h-3l-2.08-4.69h-1.17v4.69h-2.65V1482Zm3.7,6.81a2,2,0,0,0,2.18-2.2,2,2,0,0,0-2.24-2.18h-1v4.38h1Z" transform="translate(-2584.43 -1481.81)"/><path class="cls-1" d="M2663.26,1482h2.63v13.86h-2.63V1482Z" transform="translate(-2584.43 -1481.81)"/><path class="cls-1" d="M2667.74,1489.05v-0.32c0-4.28,2.34-6.93,5.6-6.93a5.3,5.3,0,0,1,3.52,1.31l-1.47,2.18a2.61,2.61,0,0,0-2-1c-1.7,0-2.91,1.64-2.91,4.42V1489c0,3.21,1.37,4.53,2.93,4.53a2.2,2.2,0,0,0,1.13-.28v-3h-1.88v-2.34H2677v6.87a6.86,6.86,0,0,1-3.78,1.19C2670.13,1496,2667.74,1493.67,2667.74,1489.05Z" transform="translate(-2584.43 -1481.81)"/><path class="cls-1" d="M2678.9,1482h2.65v5.64h3.39V1482h2.65v13.86h-2.65v-5.72h-3.39v5.72h-2.65V1482Z" transform="translate(-2584.43 -1481.81)"/><path class="cls-1" d="M2691.73,1484.46h-2.63V1482H2697v2.5h-2.63v11.37h-2.65v-11.37Z" transform="translate(-2584.43 -1481.81)"/><path class="cls-1" d="M2697.33,1494.12l1.58-2.06a4,4,0,0,0,2.65,1.45,1.42,1.42,0,0,0,1.54-1.43c0-.61-0.32-1.09-1.88-2-2.1-1.25-3.33-2.34-3.33-4.28v0a3.86,3.86,0,0,1,4.18-3.92,5.19,5.19,0,0,1,3.74,1.6l-1.62,2a3.2,3.2,0,0,0-2.24-1.19,1.25,1.25,0,0,0-1.39,1.21c0,0.65.32,1.13,2.24,2.32s3,2.28,3,4.12v0a4,4,0,0,1-4.18,4A5.92,5.92,0,0,1,2697.33,1494.12Z" transform="translate(-2584.43 -1481.81)"/><path class="cls-1" d="M2622,1499.11h3.92a4.78,4.78,0,0,1,3.46,1.23,4.43,4.43,0,0,1,1.15,3.25v0.12a4.17,4.17,0,0,1-2.12,3.9l2.44,5.37h-3l-2.08-4.69h-1.17V1513H2622v-13.86Zm3.7,6.81a2,2,0,0,0,2.18-2.2,2,2,0,0,0-2.24-2.18h-1v4.38h1Z" transform="translate(-2584.43 -1481.81)"/><path class="cls-1" d="M2632.25,1499.11h7.21v2.46h-4.57v3.21h4v2.46h-4v3.29h4.65V1513h-7.29v-13.86Z" transform="translate(-2584.43 -1481.81)"/><path class="cls-1" d="M2640.2,1511.27l1.58-2.06a4,4,0,0,0,2.65,1.45,1.42,1.42,0,0,0,1.54-1.43c0-.61-0.32-1.09-1.88-2-2.1-1.25-3.33-2.34-3.33-4.28v0A3.86,3.86,0,0,1,2645,1499a5.19,5.19,0,0,1,3.74,1.6l-1.62,2a3.2,3.2,0,0,0-2.24-1.19,1.25,1.25,0,0,0-1.39,1.21c0,0.65.32,1.13,2.24,2.32s3,2.28,3,4.12v0a4,4,0,0,1-4.18,4A5.92,5.92,0,0,1,2640.2,1511.27Z" transform="translate(-2584.43 -1481.81)"/><path class="cls-1" d="M2650.14,1499.11h7.21v2.46h-4.57v3.21h4v2.46h-4v3.29h4.65V1513h-7.29v-13.86Z" transform="translate(-2584.43 -1481.81)"/><path class="cls-1" d="M2659.17,1499.11h3.92a4.78,4.78,0,0,1,3.46,1.23,4.43,4.43,0,0,1,1.15,3.25v0.12a4.17,4.17,0,0,1-2.12,3.9L2668,1513h-3l-2.08-4.69h-1.17V1513h-2.65v-13.86Zm3.7,6.81a2,2,0,0,0,2.18-2.2,2,2,0,0,0-2.24-2.18h-1v4.38h1Z" transform="translate(-2584.43 -1481.81)"/><path class="cls-1" d="M2668.41,1499.11h2.79l2.16,9.31,2.16-9.31h2.71l-3.62,13.92H2672Z" transform="translate(-2584.43 -1481.81)"/><path class="cls-1" d="M2679.49,1499.11h7.21v2.46h-4.57v3.21h4v2.46h-4v3.29h4.65V1513h-7.29v-13.86Z" transform="translate(-2584.43 -1481.81)"/><path class="cls-1" d="M2688.52,1499.11h3.43c3.62,0,5.78,2.51,5.78,6.77v0.32c0,4.24-2.16,6.77-5.78,6.77h-3.43v-13.86Zm2.65,2.42v9h0.73c1.84,0,3.09-1.33,3.09-4.42v-0.2c0-3.09-1.25-4.42-3.09-4.42h-0.73Z" transform="translate(-2584.43 -1481.81)"/><path class="cls-1" d="M2599.93,1482a15.5,15.5,0,0,0-15.5,15.5V1513h15.5a15.5,15.5,0,0,0,15.5-15.5V1482h-15.5Zm0,28.17a12.67,12.67,0,1,1,12.67-12.67A12.67,12.67,0,0,1,2599.94,1510.14Z" transform="translate(-2584.43 -1481.81)"/><path class="cls-1" d="M2596.51,1501.22a4.53,4.53,0,0,0,3.32,1.37,5.35,5.35,0,0,0,4.37-2.12l2.32,2.39a8.77,8.77,0,0,1-12.71.74,8.59,8.59,0,0,1,0-12,8.34,8.34,0,0,1,6.06-2.42,8.59,8.59,0,0,1,6.7,3l-2.25,2.56a5.29,5.29,0,0,0-4.28-2.14,5,5,0,0,0-3.5,1.34,4.66,4.66,0,0,0-1.45,3.6A4.92,4.92,0,0,0,2596.51,1501.22Z" transform="translate(-2584.43 -1481.81)"/></svg>