<svg xmlns="http://www.w3.org/2000/svg" xmlns:xlink="http://www.w3.org/1999/xlink" xmlns:lucid="lucid" width="1000" height="425.73"><g transform="translate(-20 0)" lucid:page-tab-id="0_0"><path d="M0 0h1048v434.78H0z" fill="#fff"/><path d="M40 280h960v120H40z" stroke="#000" stroke-width="2" fill="#ffeca9"/><path d="M340 140c0 66.27-67.16 120-150 120S40 206.27 40 140c0-66.27 67.16-120 150-120s150 53.73 150 120z" stroke="#000" stroke-width="10" fill="#99d5ca"/><use xlink:href="#a" transform="matrix(1,0,0,1,40,20) translate(28.745740740740736 132.66666666666669)"/><path d="M1000 140c0 66.27-67.16 120-150 120s-150-53.73-150-120c0-66.27 67.16-120 150-120s150 53.73 150 120z" stroke="#000" stroke-width="10" fill="#c1e4f7"/><use xlink:href="#b" transform="matrix(1,0,0,1,700,20) translate(107.19018518518517 132.66666666666669)"/><path d="M434.72 141H346v-2h88.72zM694 141h-88.72v-2H694z"/><path d="M346.03 141h-1.05l.02-.97V139h1.03zM695 139.97V141h-1.03v-2h1.05z"/><use xlink:href="#c" transform="matrix(1,0,0,1,434.72222222222223,116) translate(0 32)"/><path d="M70 296.12h240v74H70z" stroke="#000" stroke-opacity="0" stroke-width="2" fill="#fff" fill-opacity="0"/><use xlink:href="#d" transform="matrix(1,0,0,1,75,301.12429085882854) translate(18.925925925925924 42.66666666666667)"/><path d="M740 299.73h240v74H740z" stroke="#000" stroke-opacity="0" stroke-width="2" fill="#fff" fill-opacity="0"/><use xlink:href="#e" transform="matrix(1,0,0,1,745,304.73330098327824) translate(32.18518518518516 42.66666666666667)"/><path d="M391.76 267.73h240v138h-240z" stroke="#000" stroke-opacity="0" stroke-width="2" fill="#fff" fill-opacity="0"/><use xlink:href="#f" transform="matrix(1,0,0,1,396.759576706394,272.73330098327824) translate(5.592592592592581 61.33333333333334)"/><use xlink:href="#g" transform="matrix(1,0,0,1,396.759576706394,272.73330098327824) translate(57.71604938271604 100.44444444444446)"/><path d="M311 333.12h79.76" stroke="#000" stroke-width="2" fill="none"/><path d="M311.03 334.12H310v-2h1.03zM391.76 334.12h-1.03v-2h1.03z"/><path d="M632.76 336.73H739" stroke="#000" stroke-width="2" fill="none"/><path d="M632.8 337.73h-1.04v-2h1.03zM740 337.73h-1.03v-2H740z"/><defs><path d="M240-174c0 40-23 61-54 70L253 0h-59l-57-94H76V0H24v-248c93 4 217-23 216 74zM76-134c48-2 112 12 112-38 0-48-66-32-112-35v73" id="h"/><path d="M185-48c-13 30-37 53-82 52C43 2 14-33 14-96s30-98 90-98c62 0 83 45 84 108H66c0 31 8 55 39 56 18 0 30-7 34-22zm-45-69c5-46-57-63-70-21-2 6-4 13-4 21h74" id="i"/><path d="M137-138c1-29-70-34-71-4 15 46 118 7 119 86 1 83-164 76-172 9l43-7c4 19 20 25 44 25 33 8 57-30 24-41C81-84 22-81 20-136c-2-80 154-74 161-7" id="j"/><path d="M110-194c64 0 96 36 96 99 0 64-35 99-97 99-61 0-95-36-95-99 0-62 34-99 96-99zm-1 164c35 0 45-28 45-65 0-40-10-65-43-65-34 0-45 26-45 65 0 36 10 65 43 65" id="k"/><path d="M85 4C-2 5 27-109 22-190h50c7 57-23 150 33 157 60-5 35-97 40-157h50l1 190h-47c-2-12 1-28-3-38-12 25-28 42-61 42" id="l"/><path d="M135-150c-39-12-60 13-60 57V0H25l-1-190h47c2 13-1 29 3 40 6-28 27-53 61-41v41" id="m"/><path d="M190-63c-7 42-38 67-86 67-59 0-84-38-90-98-12-110 154-137 174-36l-49 2c-2-19-15-32-35-32-30 0-35 28-38 64-6 74 65 87 74 30" id="n"/><g id="a"><use transform="matrix(0.14814814814814817,0,0,0.14814814814814817,0,0)" xlink:href="#h"/><use transform="matrix(0.14814814814814817,0,0,0.14814814814814817,38.370370370370374,0)" xlink:href="#i"/><use transform="matrix(0.14814814814814817,0,0,0.14814814814814817,68,0)" xlink:href="#j"/><use transform="matrix(0.14814814814814817,0,0,0.14814814814814817,97.62962962962962,0)" xlink:href="#k"/><use transform="matrix(0.14814814814814817,0,0,0.14814814814814817,130.07407407407408,0)" xlink:href="#l"/><use transform="matrix(0.14814814814814817,0,0,0.14814814814814817,162.51851851851853,0)" xlink:href="#m"/><use transform="matrix(0.14814814814814817,0,0,0.14814814814814817,183.2592592592593,0)" xlink:href="#n"/><use transform="matrix(0.14814814814814817,0,0,0.14814814814814817,212.8888888888889,0)" xlink:href="#i"/></g><path d="M24 0v-248h52V0H24" id="o"/><path d="M135-194c87-1 58 113 63 194h-50c-7-57 23-157-34-157-59 0-34 97-39 157H25l-1-190h47c2 12-1 28 3 38 12-26 28-41 61-42" id="p"/><path d="M67-125c0 53 21 87 73 88 37 1 54-22 65-47l45 17C233-25 199 4 140 4 58 4 20-42 15-125 8-235 124-281 211-232c18 10 29 29 36 50l-46 12c-8-25-30-41-62-41-52 0-71 34-72 86" id="q"/><g id="b"><use transform="matrix(0.14814814814814817,0,0,0.14814814814814817,0,0)" xlink:href="#o"/><use transform="matrix(0.14814814814814817,0,0,0.14814814814814817,14.814814814814817,0)" xlink:href="#p"/><use transform="matrix(0.14814814814814817,0,0,0.14814814814814817,47.25925925925927,0)" xlink:href="#q"/></g><path d="M88-194c31-1 46 15 58 34l-1-101h50l1 261h-48c-2-10 0-23-3-31C134-8 116 4 84 4 32 4 16-41 15-95c0-56 19-97 73-99zm17 164c33 0 40-30 41-66 1-37-9-64-41-64s-38 30-39 65c0 43 13 65 39 65" id="r"/><path d="M35-132v-50h50v50H35zM35 0v-49h50V0H35" id="s"/><path d="M25-224v-37h50v37H25zM25 0v-190h50V0H25" id="t"/><path d="M195-6C206 82 75 100 31 46c-4-6-6-13-8-21l49-6c3 16 16 24 34 25 40 0 42-37 40-79-11 22-30 35-61 35-53 0-70-43-70-97 0-56 18-96 73-97 30 0 46 14 59 34l2-30h47zm-90-29c32 0 41-27 41-63 0-35-9-62-40-62-32 0-39 29-40 63 0 36 9 62 39 62" id="u"/><path d="M114-157C55-157 80-60 75 0H25v-261h50l-1 109c12-26 28-41 61-42 86-1 58 113 63 194h-50c-7-57 23-157-34-157" id="v"/><path d="M115-3C79 11 28 4 28-45v-112H4v-33h27l15-45h31v45h36v33H77v99c-1 23 16 31 38 25v30" id="w"/><g id="c"><use transform="matrix(0.1111111111111111,0,0,0.1111111111111111,0,0)" xlink:href="#r"/><use transform="matrix(0.1111111111111111,0,0,0.1111111111111111,24.333333333333332,0)" xlink:href="#n"/><use transform="matrix(0.1111111111111111,0,0,0.1111111111111111,46.55555555555556,0)" xlink:href="#s"/><use transform="matrix(0.1111111111111111,0,0,0.1111111111111111,59.77777777777777,0)" xlink:href="#m"/><use transform="matrix(0.1111111111111111,0,0,0.1111111111111111,75.33333333333333,0)" xlink:href="#t"/><use transform="matrix(0.1111111111111111,0,0,0.1111111111111111,86.44444444444444,0)" xlink:href="#u"/><use transform="matrix(0.1111111111111111,0,0,0.1111111111111111,110.77777777777777,0)" xlink:href="#v"/><use transform="matrix(0.1111111111111111,0,0,0.1111111111111111,135.11111111111111,0)" xlink:href="#w"/><use transform="matrix(0.1111111111111111,0,0,0.1111111111111111,148.33333333333334,0)" xlink:href="#j"/></g><path d="M178-136c88 48 22 151-73 140C49-3 12-15 4-64l51-9c1 50 111 53 115 3-16-63-132-20-133-112 0-93 190-91 199-10l-50 12c-4-41-93-50-97-4 7 38 59 32 89 48" id="x"/><path d="M69 3c-96 0-34-126-28-193h49L65-57c6 42 62 18 71-6 14-38 17-86 28-127h50L178 0h-47c0-11 4-26 3-33-14 20-30 37-65 36" id="y"/><path d="M87-160c15-17 32-34 63-34 99 1 59 172-1 192-36 12-78 0-87-29L54 0H6l52-261h49zm71 38c0-24-5-37-29-37-46 0-55 46-57 89-1 25 12 40 35 40 44 0 51-50 51-92" id="z"/><path d="M50-224l7-37h49l-7 37H50zm1 246C45 64 7 85-39 71l7-33c23 5 33-8 36-27l39-201h49" id="A"/><path d="M114-194c63-2 87 48 72 110H63c-3 28 1 55 31 54 21-1 32-13 37-29l44 13C160-14 137 4 91 4 41 4 11-22 11-73c0-71 33-119 103-121zm30 77c14-47-50-61-67-22-3 6-6 13-8 22h75" id="B"/><path d="M67-101c-8 29-7 73 27 71 23-2 32-16 39-37l48 9C170-19 141 4 91 4 36 4 7-28 12-86c6-75 61-124 140-103 26 7 40 29 43 59l-50 4c-1-20-9-34-29-34-35 0-41 29-49 59" id="C"/><path d="M72-63c-8 23 5 39 32 30L98-1C54 14 12-6 23-64l18-93H15l7-33h28l24-45h31l-8 45h35l-6 33H90" id="D"/><g id="d"><use transform="matrix(0.14814814814814817,0,0,0.14814814814814817,0,0)" xlink:href="#x"/><use transform="matrix(0.14814814814814817,0,0,0.14814814814814817,35.55555555555556,0)" xlink:href="#y"/><use transform="matrix(0.14814814814814817,0,0,0.14814814814814817,68,0)" xlink:href="#z"/><use transform="matrix(0.14814814814814817,0,0,0.14814814814814817,100.44444444444446,0)" xlink:href="#A"/><use transform="matrix(0.14814814814814817,0,0,0.14814814814814817,115.25925925925928,0)" xlink:href="#B"/><use transform="matrix(0.14814814814814817,0,0,0.14814814814814817,144.8888888888889,0)" xlink:href="#C"/><use transform="matrix(0.14814814814814817,0,0,0.14814814814814817,174.51851851851853,0)" xlink:href="#D"/></g><path d="M18-101c0-91 52-150 145-150 68 0 111 34 111 101C274-54 221 4 128 4 59 4 18-33 18-101zm202-32c4-46-15-77-59-77-65 0-88 46-91 108-2 41 22 65 60 65 60 0 84-40 90-96" id="E"/><g id="e"><use transform="matrix(0.14814814814814817,0,0,0.14814814814814817,0,0)" xlink:href="#E"/><use transform="matrix(0.14814814814814817,0,0,0.14814814814814817,41.48148148148149,0)" xlink:href="#z"/><use transform="matrix(0.14814814814814817,0,0,0.14814814814814817,73.92592592592594,0)" xlink:href="#A"/><use transform="matrix(0.14814814814814817,0,0,0.14814814814814817,88.74074074074078,0)" xlink:href="#B"/><use transform="matrix(0.14814814814814817,0,0,0.14814814814814817,118.37037037037041,0)" xlink:href="#C"/><use transform="matrix(0.14814814814814817,0,0,0.14814814814814817,148.00000000000003,0)" xlink:href="#D"/></g><path d="M241-173c-1 82-78 91-166 86L58 0H6l48-248c87 0 188-12 187 75zm-53 2c0-43-48-36-90-36l-15 80c50 0 105 7 105-44" id="F"/><path d="M84-151c13-25 34-51 72-40l-8 41C67-170 71-64 56 0H6l36-190h47" id="G"/><path d="M124-194c51 0 84 22 84 74C207-44 167 4 94 4 43 4 11-23 11-74c0-74 41-120 113-120zM99-30c46 0 58-42 58-86 0-27-11-44-37-44-44 0-55 40-57 84-1 27 10 45 36 46" id="H"/><path d="M156-122c2-23-7-37-28-37-47 0-58 44-58 89 0 24 12 40 36 40 43 0 47-49 50-92zM-8 75l50-265h48c0 10-3 24-3 30 22-50 127-45 121 29-6 73-21 135-92 135-29 0-46-14-55-35L41 75H-8" id="I"/><path d="M100 10C77 47 50 87-15 72l7-35c37 9 51-18 65-41L20-190h51L89-44l73-146h53" id="J"/><g id="f"><use transform="matrix(0.14814814814814817,0,0,0.14814814814814817,0,0)" xlink:href="#F"/><use transform="matrix(0.14814814814814817,0,0,0.14814814814814817,35.55555555555556,0)" xlink:href="#G"/><use transform="matrix(0.14814814814814817,0,0,0.14814814814814817,56.296296296296305,0)" xlink:href="#H"/><use transform="matrix(0.14814814814814817,0,0,0.14814814814814817,88.74074074074078,0)" xlink:href="#I"/><use transform="matrix(0.14814814814814817,0,0,0.14814814814814817,121.18518518518522,0)" xlink:href="#B"/><use transform="matrix(0.14814814814814817,0,0,0.14814814814814817,150.81481481481484,0)" xlink:href="#G"/><use transform="matrix(0.14814814814814817,0,0,0.14814814814814817,171.55555555555557,0)" xlink:href="#D"/><use transform="matrix(0.14814814814814817,0,0,0.14814814814814817,189.18518518518522,0)" xlink:href="#J"/></g><path d="M13-52c0-97 37-163 91-209h50c-53 52-92 115-92 212 0 48 8 90 25 124H39C22 40 13-2 13-52" id="K"/><path d="M132-28C118-9 101 4 69 4 30 4 10-23 10-62c0-70 24-129 92-132 31-1 47 14 56 35l19-102h49L179 0h-49zM62-69c0 22 7 39 29 39 45-2 54-45 57-90 2-27-10-40-33-40-44 0-53 48-53 91" id="L"/><path d="M50-224l7-37h49l-7 37H50zM6 0l37-190h49L55 0H6" id="M"/><path d="M166-52c-4 17 5 29 24 23l-3 27c-30 11-74 1-67-34C105-15 91 4 56 4 23 4 3-15 2-49c0-64 63-67 128-67 10-22 3-53-29-45-13 3-22 10-25 24l-46-5c5-64 156-77 153 0-1 33-11 60-17 90zM97-88c-44-9-64 57-19 57 31 0 42-28 47-57H97" id="N"/><path d="M109-139C109-39 71 27 18 75h-50C22 21 61-44 61-142c0-46-11-87-27-119h47c17 31 28 75 28 122" id="O"/><g id="g"><use transform="matrix(0.06172839506172839,0,0,0.06172839506172839,0,0)" xlink:href="#K"/><use transform="matrix(0.06172839506172839,0,0,0.06172839506172839,7.345679012345679,0)" xlink:href="#F"/><use transform="matrix(0.06172839506172839,0,0,0.06172839506172839,22.160493827160494,0)" xlink:href="#G"/><use transform="matrix(0.06172839506172839,0,0,0.06172839506172839,30.80246913580247,0)" xlink:href="#B"/><use transform="matrix(0.06172839506172839,0,0,0.06172839506172839,43.148148148148145,0)" xlink:href="#L"/><use transform="matrix(0.06172839506172839,0,0,0.06172839506172839,56.666666666666664,0)" xlink:href="#M"/><use transform="matrix(0.06172839506172839,0,0,0.06172839506172839,62.839506172839506,0)" xlink:href="#C"/><use transform="matrix(0.06172839506172839,0,0,0.06172839506172839,75.18518518518519,0)" xlink:href="#N"/><use transform="matrix(0.06172839506172839,0,0,0.06172839506172839,87.53086419753087,0)" xlink:href="#D"/><use transform="matrix(0.06172839506172839,0,0,0.06172839506172839,94.87654320987656,0)" xlink:href="#B"/><use transform="matrix(0.06172839506172839,0,0,0.06172839506172839,107.22222222222224,0)" xlink:href="#O"/></g></defs></g></svg>