<?xml version="1.0" encoding="utf-8"?>
<!-- Generator: Adobe Illustrator 15.0.0, SVG Export Plug-In  -->
<!DOCTYPE svg PUBLIC "-//W3C//DTD SVG 1.1//EN" "http://www.w3.org/Graphics/SVG/1.1/DTD/svg11.dtd" [
	<!ENTITY ns_flows "http://ns.adobe.com/Flows/1.0/">
]>
<svg version="1.1"
	 xmlns="http://www.w3.org/2000/svg" xmlns:xlink="http://www.w3.org/1999/xlink" xmlns:a="http://ns.adobe.com/AdobeSVGViewerExtensions/3.0/"
	 x="0px" y="0px" width="705px" height="192px" viewBox="-0.582 -0.737 705 192"
	 overflow="visible" enable-background="new -0.582 -0.737 705 192" xml:space="preserve">
<defs>
</defs>
<path fill="#6BBE46" d="M0,0.004c21.134,0,42.312,0,63.448,0c7.933-0.046,15.823,0.335,23.625,1.71
	c5.402,1.158,10.722,2.832,15.522,5.574c9.263,5.443,17.452,13.418,21.521,23.495c3.253,8.188,3.812,17.277,2.314,25.895
	c-1.974,11.484-8.748,22.162-18.565,28.551c-3.386,2.144-7.159,3.431-10.972,4.586c7.714,2.493,15.299,5.705,21.605,10.845
	c7.245,5.621,12.351,13.852,14.488,22.768c2.102,8.874,2.146,18.224,0.35,27.139c-1.634,7.327-4.633,14.402-9.177,20.367
	c-6.818,9.173-17.109,15.432-28.167,18.042c-7.805,2.018-15.951,1.93-23.963,2.144c-24.012,0.131-48.02,0.042-72.029,0.042V0.004z"
	/>
<path fill="#FFFFFF" d="M38.024,26.966c6.646,0,13.25,0,19.898,0c1.415-0.042,2.827,0.34,4.241,0.513
	c0.552,0.172,1.114,0.345,1.668,0.518c5.833,1.883,10.596,6.772,12.181,12.733c0.084,0.601,0.212,1.198,0.382,1.752
	c0.308,7.765,0.086,15.525,0.13,23.285c-4.414,0-8.788,0-13.204,0c-0.044-6.986,0.042-13.978-0.044-20.964
	c-0.128-2.614-2.23-4.549-4.588-5.36c-2.484-0.172-4.927-0.042-7.416-0.083c-0.042,8.785,0.044,17.617-0.042,26.407
	c-4.374-0.088-8.827,0.21-13.208-0.172C38.024,52.73,38.024,39.867,38.024,26.966z"/>
<path fill="#FFFFFF" d="M38.073,114.769c4.369-0.047,8.785,0,13.201,0c0,8.957,0,17.92,0,26.883c7.416,0,14.793,0,22.208,0
	c0,4.199,0,8.444,0,12.644c-11.829,0-23.621,0-35.458,0C38.024,141.134,38.073,127.977,38.073,114.769z"/>
<path fill="#6BBE46" d="M703.918,60.728c0-7.951-3.096-13.478-11.728-13.478c-8.627,0-11.729,5.527-11.729,13.478v10.65
	c0,7.951,3.102,13.478,11.729,13.478c8.426,0,11.597-5.252,11.728-12.938h-7.549v0.808c0,4.181-1.476,5.931-4.179,5.931
	c-2.693,0-4.177-1.75-4.177-5.931v-5.258h15.904V60.728z M688.014,61.267v-1.886c0-4.181,1.483-5.931,4.177-5.931
	c2.703,0,4.179,1.75,4.179,5.931v1.886H688.014z M674.775,35.516h-7.547v48.673h7.547V35.516z M653.453,75.289
	c-1.283,1.818-2.966,3.367-5.059,3.367c-2.289,0-3.502-0.943-3.502-3.299c0-3.171,1.685-5.662,8.561-9.579V75.289z M645.431,58.567
	c0.139-3.097,0.875-5.117,4.315-5.117c2.495,0,3.706,1.616,3.706,4.652v2.161c-10.853,4.107-16.109,8.483-16.109,16.441
	c0,4.645,2.561,8.152,7.685,8.152c3.639,0,6.001-1.211,8.826-3.507c0.069,0.882,0.336,1.825,0.406,2.834h7.218
	c-0.206-1.212-0.475-2.693-0.475-3.837v-23.26c0-6.597-3.977-9.835-10.988-9.835c-7.078,0-11.73,3.972-12.131,11.317H645.431z
	 M617.327,84.183V55.739c1.75-1.28,3.231-2.289,4.849-2.289c1.618,0,2.698,0.808,2.698,2.626v28.107h7.551V54.864
	c0-4.72-2.359-7.614-6.337-7.614c-4.381,0-5.999,1.616-9.166,4.315v-3.642h-7.148v36.26H617.327z M580.681,71.378
	c0,7.951,3.098,13.478,11.726,13.478c8.63,0,11.729-5.527,11.729-13.478v-10.65c0-7.951-3.099-13.478-11.729-13.478
	c-8.628,0-11.726,5.527-11.726,13.478V71.378z M596.583,72.725c0,4.181-1.48,5.931-4.177,5.931c-2.697,0-4.178-1.75-4.178-5.931
	V59.381c0-4.181,1.48-5.931,4.178-5.931c2.696,0,4.177,1.75,4.177,5.931V72.725z M575.013,35.516h-7.552v6.88h7.552V35.516z
	 M575.013,47.923h-7.552v36.26h7.552V47.923z M550.365,54.124v22.58c0,5.527,3.168,8.152,8.831,8.152
	c1.883,0,2.76-0.134,3.778-0.397v-6.481h-2.504c-1.751,0-2.555-1.071-2.555-2.963V54.124h5.059v-6.201h-5.059v-9.775h-7.551v9.775
	h-4.18v6.201H550.365z M534.33,75.289c-1.277,1.818-2.964,3.367-5.054,3.367c-2.289,0-3.508-0.943-3.508-3.299
	c0-3.171,1.688-5.662,8.562-9.579V75.289z M526.313,58.567c0.135-3.097,0.872-5.117,4.312-5.117c2.492,0,3.705,1.616,3.705,4.652
	v2.154c-10.852,4.114-16.107,8.49-16.107,16.447c0,4.645,2.561,8.152,7.685,8.152c3.636,0,5.998-1.211,8.825-3.507
	c0.071,0.882,0.337,1.825,0.404,2.834h7.215c-0.201-1.212-0.473-2.693-0.473-3.837v-23.26c0-6.597-3.979-9.835-10.989-9.835
	c-7.073,0-11.725,3.972-12.128,11.317H526.313z M498.203,84.183V55.739c1.75-1.28,3.239-2.289,4.855-2.289
	c1.611,0,2.698,0.808,2.698,2.626v28.107h7.546V54.864c0-4.72-2.361-7.614-6.336-7.614c-4.381,0-5.999,1.616-9.163,4.315v-3.642
	h-7.147v36.26H498.203z M468.816,60.728c0-7.951-3.098-13.478-11.727-13.478c-8.627,0-11.729,5.527-11.729,13.478v10.65
	c0,7.951,3.102,13.478,11.729,13.478c8.425,0,11.592-5.252,11.727-12.938h-7.543v0.808c0,4.181-1.484,5.931-4.184,5.931
	c-2.693,0-4.178-1.75-4.178-5.931v-5.258h15.904V60.728z M452.912,61.267v-1.886c0-4.181,1.484-5.931,4.178-5.931
	c2.699,0,4.184,1.75,4.184,5.931v1.886H452.912z M432.177,47.923v28.444c-1.757,1.279-3.237,2.29-4.854,2.29
	c-1.623,0-2.701-0.808-2.701-2.626V47.923h-7.549v29.319c0,4.72,2.359,7.614,6.338,7.614c4.38,0,6-1.615,9.17-4.315v3.643h7.142
	v-36.26H432.177z M403.479,76.771c-1.478,1.078-2.831,1.886-4.309,1.886c-2.021,0-3.642-1.078-3.642-5.864V59.314
	c0-4.787,1.62-5.864,3.642-5.864c1.478,0,2.831,0.808,4.309,1.885V76.771z M403.887,47.923V51.7h-0.136
	c-2.493-3.171-4.315-4.45-8.089-4.45c-4.717,0-7.68,3.5-7.68,10.105V74.75c0,6.598,2.963,10.105,7.68,10.105
	c3.304,0,4.854-1.346,7.816-3.771v14.556h7.551V47.923H403.887z M382.657,60.728c0-7.951-3.101-13.478-11.731-13.478
	c-8.625,0-11.724,5.527-11.724,13.478v10.65c0,7.951,3.099,13.478,11.724,13.478c8.43,0,11.6-5.252,11.731-12.938h-7.549v0.808
	c0,4.181-1.481,5.931-4.183,5.931c-2.692,0-4.174-1.75-4.174-5.931v-5.258h15.905V60.728z M366.751,61.267v-1.886
	c0-4.181,1.481-5.931,4.174-5.931c2.701,0,4.183,1.75,4.183,5.931v1.886H366.751z M370.118,43.608h5.596l-5.326-9.701h-9.098
	L370.118,43.608z M338.522,84.183V55.739c1.751-1.28,3.234-2.289,4.854-2.289c1.617,0,2.693,0.808,2.693,2.626v28.107h7.554V54.864
	c0-4.72-2.362-7.614-6.336-7.614c-4.384,0-5.998,1.616-8.765,4.04V35.516h-7.55v48.667H338.522z M313.907,54.124v22.58
	c0,5.521,3.168,8.152,8.83,8.152c1.885,0,2.763-0.134,3.775-0.397v-6.481h-2.497c-1.75,0-2.559-1.071-2.559-2.963V54.124h5.056
	v-6.201h-5.056v-9.775h-7.55v9.775h-4.177v6.201H313.907z M282.596,71.378c0,7.951,3.098,13.478,11.724,13.478
	c8.628,0,11.731-5.527,11.731-13.478v-10.65c0-7.951-3.104-13.478-11.731-13.478c-8.626,0-11.724,5.527-11.724,13.478V71.378z
	 M298.501,72.725c0,4.181-1.484,5.931-4.182,5.931c-2.695,0-4.177-1.75-4.177-5.931V59.381c0-4.181,1.481-5.931,4.177-5.931
	c2.697,0,4.182,1.75,4.182,5.931V72.725z M276.928,35.516h-7.553v6.88h7.553V35.516z M276.928,47.923h-7.553v36.26h7.553V47.923z
	 M263.266,35.516h-7.547v48.673h7.547V35.516z M234.357,55.335c1.484-1.077,2.834-1.885,4.315-1.885c2.02,0,3.639,1.078,3.639,5.864
	v13.478c0,4.786-1.619,5.864-3.639,5.864c-1.481,0-2.831-0.808-4.315-1.886V55.335z M233.954,84.183v-3.776h0.131
	c2.495,3.171,4.315,4.449,8.092,4.449c4.716,0,7.685-3.507,7.685-10.105V57.355c0-6.605-2.969-10.105-7.685-10.105
	c-3.302,0-4.852,1.346-7.819,3.776v-15.51h-7.547v48.667H233.954z M220.72,35.516h-7.547v6.88h7.547V35.516z M220.72,47.923h-7.547
	v36.26h7.547V47.923z M181.09,84.183h13.212c9.506,0,13.075-6.066,13.075-14.09c0-6.261-2.495-9.634-6.739-11.526
	c4.046-1.615,5.796-5.998,5.796-10.173c0-8.293-3.976-12.878-12.942-12.878H181.09V84.183z M189.449,42.396h3.17
	c3.704,0,5.46,2.356,5.46,6.873c0,4.046-2.43,6.201-5.598,6.201h-3.032V42.396z M189.449,62.344h2.695
	c4.99,0,6.875,2.498,6.875,7.486c0,4.921-1.616,7.48-6.063,7.48h-3.507V62.344z"/>
<path fill="#6BBE46" d="M540.308,121.571c-3.166,0-4.181,0.941-6.199,3.908c-2.369-2.765-5.13-3.908-8.356-3.908
	c-8.495,0-11.728,3.371-11.728,13.349c0,8.488,1.072,10.375,4.848,13.005c-2.021,1.146-4.585,3.367-4.585,5.866
	c0,2.354,1.418,3.775,3.438,4.583v0.128c-2.628,0.612-4.914,2.835-4.914,5.67c0,3.775,4.446,5.79,11.993,5.79
	c9.71,0,15.504-2.424,15.504-8.625c0-12.806-19.415-5.521-19.415-10.449c0-0.874,0.674-1.48,1.483-1.683h2.428
	c7.688,0,11.456-3.507,11.456-14.561c0-1.481-0.265-3.838-0.803-5.724c1.074-0.882,2.29-1.151,3.636-1.151
	c0.404,0,0.805,0,1.215,0.067V121.571z"/>
<path fill="#6BBE46" d="M202.816,158.501v-48.66h-7.546v15.505c-2.969-2.43-4.518-3.775-7.816-3.775
	c-4.72,0-7.688,3.501-7.688,10.104v17.396c0,6.604,2.969,10.104,7.688,10.104c3.771,0,5.591-1.278,8.082-4.443h0.138v3.77H202.816z"
	/>
<path fill="#FFFFFF" d="M524.94,143.005c-2.43,0-3.777-1.488-3.777-7.622c0-6.133,1.348-7.614,3.777-7.614
	c2.965,0,3.774,1.481,3.774,7.614C528.714,141.517,527.905,143.005,524.94,143.005"/>
<path fill="#FFFFFF" d="M527.161,164.568c-5.056,0-6.396-0.808-6.396-2.693c0-1.885,1.34-2.699,6.396-2.699
	c5.062,0,6.401,0.814,6.401,2.699C533.562,163.76,532.222,164.568,527.161,164.568"/>
<path fill="#6BBE46" d="M500.338,158.501v-24.936c0-3.231,2.499-4.854,5.063-4.854c2.219,0,3.501,0.41,4.854,0.74v-7.882h-1.555
	c-3.568,0-6.734,1.822-8.558,4.919h-0.135v-4.247h-7.209v36.259H500.338z"/>
<path fill="#6BBE46" d="M479.186,122.243v28.444c-1.752,1.284-3.234,2.296-4.849,2.296c-1.623,0-2.699-0.815-2.699-2.634v-28.106
	h-7.547v29.318c0,4.72,2.356,7.614,6.341,7.614c4.374,0,5.994-1.609,9.16-4.31v3.636h7.146v-36.259H479.186z"/>
<path fill="#6BBE46" d="M434.994,145.698c0,7.956,3.103,13.478,11.733,13.478c8.621,0,11.72-5.521,11.72-13.478v-10.645
	c0-7.958-3.099-13.482-11.72-13.482c-8.631,0-11.733,5.524-11.733,13.482V145.698z"/>
<path fill="#FFFFFF" d="M450.904,147.043c0,4.183-1.483,5.939-4.177,5.939c-2.701,0-4.185-1.757-4.185-5.939v-13.343
	c0-4.174,1.483-5.932,4.185-5.932c2.693,0,4.177,1.758,4.177,5.932V147.043z"/>
<path fill="#6BBE46" d="M413.765,158.501v-3.77h0.128c2.502,3.165,4.317,4.443,8.092,4.443c4.717,0,7.689-3.501,7.689-10.104
	v-17.396c0-6.604-2.973-10.104-7.689-10.104c-3.3,0-4.846,1.346-7.815,3.775v-15.505h-7.552v48.66H413.765z"/>
<path fill="#FFFFFF" d="M414.169,129.655c1.48-1.078,2.829-1.886,4.315-1.886c2.021,0,3.638,1.083,3.638,5.865v13.479
	c0,4.792-1.617,5.87-3.638,5.87c-1.486,0-2.835-0.815-4.315-1.892V129.655z"/>
<path fill="#6BBE46" d="M385.502,158.501v-28.437c1.69-1.286,3.167-2.296,4.787-2.296c1.479,0,2.693,0.808,2.693,2.633v28.1h7.553
	v-29.316c0-4.72-2.359-7.614-7.081-7.614c-2.761,0-4.785,0.807-8.426,4.312c-1.614-2.967-2.828-4.312-6.604-4.312
	c-3.568,0-5.184,1.614-8.355,4.312v-3.641h-7.144v36.259h7.544v-28.437c1.755-1.286,3.241-2.296,4.857-2.296
	c1.48,0,2.629,0.808,2.629,2.633v28.1H385.502z"/>
<path fill="#6BBE46" d="M357.344,135.053c0-7.958-3.097-13.482-11.727-13.482c-8.632,0-11.729,5.524-11.729,13.482v10.645
	c0,7.956,3.097,13.478,11.729,13.478c8.421,0,11.593-5.252,11.727-12.939h-7.55v0.808c0,4.183-1.482,5.939-4.177,5.939
	c-2.698,0-4.181-1.757-4.181-5.939v-5.258h15.907V135.053z"/>
<path fill="#FFFFFF" d="M341.437,135.586v-1.886c0-4.174,1.482-5.932,4.181-5.932c2.694,0,4.177,1.758,4.177,5.932v1.886H341.437z"
	/>
<polygon fill="#6BBE46" points="306.883,158.501 314.703,158.501 319.089,146.236 319.223,146.236 323.605,158.501 331.421,158.501 
	323.199,139.162 331.019,122.243 323.199,122.243 319.153,132.354 315.308,122.243 307.496,122.243 314.975,139.295 "/>
<path fill="#6BBE46" d="M295.085,122.243v28.444c-1.75,1.284-3.235,2.296-4.851,2.296c-1.617,0-2.699-0.815-2.699-2.634v-28.106
	h-7.547v29.318c0,4.72,2.357,7.614,6.332,7.614c4.382,0,6.008-1.609,9.167-4.31v3.636h7.148v-36.259H295.085z"/>
<polygon fill="#6BBE46" points="275.251,158.501 275.251,151.226 262.103,151.226 262.103,109.841 253.749,109.841 253.749,158.501 
	"/>
<path fill="#6BBE46" d="M231.918,135.053c0-7.958-3.107-13.482-11.731-13.482c-8.63,0-11.729,5.524-11.729,13.482v10.645
	c0,7.956,3.1,13.478,11.729,13.478c8.422,0,11.594-5.252,11.731-12.939h-7.553v0.808c0,4.183-1.485,5.939-4.179,5.939
	c-2.699,0-4.187-1.757-4.187-5.939v-5.258h15.918V135.053z"/>
<path fill="#FFFFFF" d="M216,135.586v-1.886c0-4.174,1.488-5.932,4.187-5.932c2.693,0,4.179,1.758,4.179,5.932v1.886H216z"/>
<path fill="#FFFFFF" d="M195.27,151.091c-1.485,1.076-2.832,1.892-4.312,1.892c-2.027,0-3.64-1.078-3.64-5.87v-13.479
	c0-4.782,1.613-5.865,3.64-5.865c1.48,0,2.827,0.808,4.312,1.886V151.091z"/>
</svg>
