<?xml version="1.0" encoding="UTF-8" standalone="no"?>
<svg
   xmlns:dc="http://purl.org/dc/elements/1.1/"
   xmlns:cc="http://creativecommons.org/ns#"
   xmlns:rdf="http://www.w3.org/1999/02/22-rdf-syntax-ns#"
   xmlns:svg="http://www.w3.org/2000/svg"
   xmlns="http://www.w3.org/2000/svg"
   viewBox="0 0 341.33334 47.560001"
   height="47.560001"
   width="341.33334"
   xml:space="preserve"
   id="svg2"
   version="1.1"><metadata
     id="metadata8"><rdf:RDF><cc:Work
         rdf:about=""><dc:format>image/svg+xml</dc:format><dc:type
           rdf:resource="http://purl.org/dc/dcmitype/StillImage" /></cc:Work></rdf:RDF></metadata><defs
     id="defs6"><clipPath
       id="clipPath20"
       clipPathUnits="userSpaceOnUse"><path
         id="path18"
         d="M 0,356.664 V 0 h 2560 v 356.664 z" /></clipPath></defs><g
     transform="matrix(1.3333333,0,0,-1.3333333,0,47.56)"
     id="g10"><g
       transform="scale(0.1)"
       id="g12"><g
         id="g14"><g
           clip-path="url(#clipPath20)"
           id="g16"><path
             id="path22"
             style="fill:#ffffff;fill-opacity:1;fill-rule:nonzero;stroke:none"
             d="M 0,0 H 2560 V 356.664 H 0 Z" /><path
             id="path24"
             style="fill:#ffffff;fill-opacity:1;fill-rule:nonzero;stroke:none"
             d="M 42.6133,320.824 H 467.18 V 40.8164 H 42.6133 V 320.824" /><path
             id="path26"
             style="fill:#254aa5;fill-opacity:1;fill-rule:nonzero;stroke:none"
             d="M 50.7773,313.148 H 459.016 V 48.8984 H 50.7773 V 313.148" /><path
             id="path28"
             style="fill:#fff200;fill-opacity:1;fill-rule:nonzero;stroke:none"
             d="m 246.199,255.57 8.613,6.106 8.614,-6.106 -3.278,9.871 8.75,6.106 h -10.785 l -3.301,9.988 -3.3,-10 -10.782,0.012 8.747,-6.106 -3.278,-9.871 v 0" /><path
             id="path30"
             style="fill:#fff200;fill-opacity:1;fill-rule:nonzero;stroke:none"
             d="m 201.617,243.941 8.617,6.106 8.61,-6.106 -3.274,9.871 8.742,6.106 h -10.785 l -3.3,10 -3.301,-10.012 -10.778,0.012 8.743,-6.106 -3.274,-9.871 v 0" /><path
             id="path32"
             style="fill:#fff200;fill-opacity:1;fill-rule:nonzero;stroke:none"
             d="m 177.613,238.18 -3.301,-10.016 -10.777,0.012 8.742,-6.106 -3.277,-9.867 8.613,6.102 8.617,-6.102 -3.281,9.867 8.746,6.106 h -10.781 l -3.301,10.004 v 0" /><path
             id="path34"
             style="fill:#fff200;fill-opacity:1;fill-rule:nonzero;stroke:none"
             d="m 165.648,175.078 8.61,-6.105 -3.274,9.871 8.743,6.105 h -10.778 l -3.301,10 -3.3,-10.023 -10.786,0.023 8.75,-6.105 -3.277,-9.871 8.613,6.105 v 0" /><path
             id="path36"
             style="fill:#fff200;fill-opacity:1;fill-rule:nonzero;stroke:none"
             d="m 180.914,141.59 -3.301,10 -3.301,-10.012 -10.777,0.012 8.742,-6.106 -3.277,-9.871 8.613,6.117 8.617,-6.117 -3.281,9.871 8.746,6.106 h -10.781 v 0" /><path
             id="path38"
             style="fill:#fff200;fill-opacity:1;fill-rule:nonzero;stroke:none"
             d="m 213.598,109.859 -3.301,9.993 -3.297,-10.004 -10.785,0.011 8.746,-6.105 -3.273,-9.8712 8.613,6.1055 8.609,-6.1055 -3.273,9.8712 8.742,6.105 h -10.781 v 0" /><path
             id="path40"
             style="fill:#fff200;fill-opacity:1;fill-rule:nonzero;stroke:none"
             d="m 258.117,98.3594 -3.301,10.0036 -3.293,-10.0114 -10.785,0.0078 8.742,-6.1016 -3.269,-9.8711 8.613,6.1055 8.61,-6.1055 -3.282,9.8711 8.75,6.1016 h -10.785 v 0" /><path
             id="path42"
             style="fill:#fff200;fill-opacity:1;fill-rule:nonzero;stroke:none"
             d="m 302.641,109.859 -3.293,9.993 -3.309,-10.004 -10.773,0.011 8.738,-6.105 -3.274,-9.8712 8.618,6.1055 8.613,-6.1055 -3.285,9.8712 8.75,6.105 h -10.785 v 0" /><path
             id="path44"
             style="fill:#fff200;fill-opacity:1;fill-rule:nonzero;stroke:none"
             d="m 335.332,141.59 -3.305,10 -3.308,-10.012 -10.774,0.012 8.75,-6.106 -3.285,-9.871 8.617,6.117 8.614,-6.117 -3.286,9.871 8.75,6.106 h -10.773 v 0" /><path
             id="path46"
             style="fill:#fff200;fill-opacity:1;fill-rule:nonzero;stroke:none"
             d="m 357.949,185.066 h -10.785 l -3.309,10.004 -3.293,-10.011 -10.785,0.007 8.75,-6.101 -3.273,-9.871 8.601,6.113 8.618,-6.113 -3.274,9.871 8.75,6.101 v 0" /><path
             id="path48"
             style="fill:#fff200;fill-opacity:1;fill-rule:nonzero;stroke:none"
             d="m 323.41,212.332 8.617,6.106 8.614,-6.106 -3.286,9.871 8.75,6.094 h -10.773 l -3.305,10 -3.308,-10.012 -10.774,0.012 8.75,-6.094 -3.285,-9.871 v 0" /><path
             id="path50"
             style="fill:#fff200;fill-opacity:1;fill-rule:nonzero;stroke:none"
             d="m 299.469,269.906 -3.293,-10.011 -10.785,0.023 8.738,-6.113 -3.274,-9.871 8.625,6.113 8.606,-6.113 -3.274,9.871 8.75,6.113 h -10.796 l -3.297,9.988 v 0" /><path
             id="path52"
             style="fill:#231f20;fill-opacity:1;fill-rule:nonzero;stroke:none"
             d="m 544.727,267.383 c 0,5.547 0.429,11.004 1.296,16.383 0.868,5.371 2.582,10.16 5.137,14.363 2.555,4.203 6.11,7.609 10.66,10.207 4.551,2.598 10.547,3.898 18.004,3.898 1.563,0 3.36,-0.066 5.395,-0.195 2.039,-0.129 4.136,-0.344 6.304,-0.648 2.168,-0.309 4.293,-0.7 6.372,-1.172 2.082,-0.477 3.984,-1.063 5.718,-1.754 1.039,-0.434 1.758,-0.957 2.149,-1.563 0.39,-0.605 0.5,-1.429 0.324,-2.468 l -1.168,-5.329 c -0.176,-0.781 -0.48,-1.347 -0.914,-1.687 -0.434,-0.352 -1.254,-0.438 -2.473,-0.266 -3.203,0.434 -6.648,0.825 -10.332,1.172 -3.683,0.348 -7.215,0.52 -10.594,0.52 -4.417,0 -7.972,-0.821 -10.66,-2.469 -2.687,-1.648 -4.746,-3.898 -6.175,-6.762 -1.43,-2.859 -2.364,-6.175 -2.793,-9.945 -0.434,-3.77 -0.649,-7.777 -0.649,-12.023 0,-4.247 0.258,-8.235 0.777,-11.961 0.52,-3.727 1.516,-6.954 2.993,-9.684 1.468,-2.73 3.531,-4.879 6.172,-6.434 2.644,-1.562 6.085,-2.339 10.335,-2.339 3.813,0 7.364,0.171 10.661,0.515 3.289,0.348 6.714,0.738 10.265,1.172 1.219,0.172 2.039,0.086 2.473,-0.258 0.434,-0.351 0.781,-0.957 1.039,-1.82 l 1.043,-4.941 c 0.519,-1.911 -0.219,-3.297 -2.207,-4.161 -1.567,-0.695 -3.406,-1.281 -5.527,-1.754 -2.125,-0.476 -4.293,-0.89 -6.5,-1.234 -2.211,-0.348 -4.379,-0.586 -6.5,-0.719 -2.125,-0.125 -3.965,-0.195 -5.528,-0.195 -7.281,0 -13.191,1.234 -17.746,3.707 -4.551,2.473 -8.101,5.742 -10.656,9.813 -2.559,4.074 -4.313,8.71 -5.266,13.914 -0.957,5.199 -1.429,10.57 -1.429,16.117" /><path
             id="path54"
             style="fill:#231f20;fill-opacity:1;fill-rule:nonzero;stroke:none"
             d="m 657.438,256.988 c 0,3.461 -0.176,6.473 -0.52,9.032 -0.352,2.554 -1.039,4.679 -2.078,6.367 -1.039,1.695 -2.473,2.968 -4.293,3.84 -1.82,0.863 -4.203,1.296 -7.149,1.296 -2.777,0 -5.031,-0.433 -6.761,-1.296 -1.735,-0.872 -3.102,-2.168 -4.094,-3.903 -1,-1.734 -1.691,-3.879 -2.078,-6.437 -0.391,-2.551 -0.586,-5.52 -0.586,-8.899 0,-3.472 0.195,-6.484 0.586,-9.039 0.387,-2.558 1.058,-4.679 2.012,-6.367 0.953,-1.695 2.293,-2.973 4.031,-3.84 1.73,-0.863 3.984,-1.297 6.758,-1.297 2.945,0 5.351,0.41 7.218,1.235 1.86,0.82 3.317,2.082 4.356,3.769 1.039,1.692 1.726,3.832 2.078,6.438 0.344,2.597 0.52,5.629 0.52,9.101 z m 14.425,0.907 c 0,-3.723 -0.23,-7.583 -0.711,-11.571 -0.472,-3.984 -1.664,-7.648 -3.562,-10.98 -1.906,-3.34 -4.762,-6.071 -8.567,-8.196 -3.804,-2.125 -9.078,-3.183 -15.82,-3.183 -6.484,0 -11.586,1.058 -15.305,3.183 -3.718,2.125 -6.507,4.856 -8.367,8.196 -1.859,3.332 -3.004,6.996 -3.437,10.98 -0.43,3.988 -0.649,7.848 -0.649,11.571 0,3.031 0.282,6.41 0.844,10.14 0.563,3.723 1.793,7.215 3.695,10.465 1.907,3.246 4.696,5.977 8.368,8.188 3.675,2.214 8.625,3.316 14.851,3.316 6.313,0 11.348,-0.957 15.109,-2.859 3.762,-1.907 6.633,-4.403 8.626,-7.477 1.988,-3.078 3.304,-6.52 3.957,-10.332 0.648,-3.813 0.968,-7.629 0.968,-11.441" /><path
             id="path56"
             style="fill:#231f20;fill-opacity:1;fill-rule:nonzero;stroke:none"
             d="m 721.914,272.195 c 1.477,0 2.211,-0.695 2.211,-2.078 v -6.633 c 0,-1.386 -0.734,-2.078 -2.211,-2.078 h -37.699 c -1.477,0 -2.207,0.692 -2.207,2.078 v 6.633 c 0,1.383 0.73,2.078 2.207,2.078 h 37.699" /><path
             id="path58"
             style="fill:#231f20;fill-opacity:1;fill-rule:nonzero;stroke:none"
             d="m 765.465,318.086 c 1.297,0 2.797,-0.043 4.484,-0.133 1.692,-0.086 3.403,-0.238 5.133,-0.453 1.734,-0.219 3.469,-0.523 5.199,-0.91 1.735,-0.391 3.297,-0.891 4.684,-1.496 0.953,-0.438 1.515,-0.953 1.691,-1.559 0.168,-0.605 0.168,-1.301 0,-2.082 l -0.914,-5.332 c -0.172,-0.949 -0.515,-1.492 -1.039,-1.621 -0.519,-0.129 -1.125,-0.156 -1.816,-0.066 -2.782,0.347 -5.547,0.648 -8.321,0.914 -2.773,0.257 -5.203,0.39 -7.281,0.39 -3.988,0 -7.043,-0.808 -9.164,-2.41 -2.125,-1.605 -3.183,-4.441 -3.183,-8.516 v -6.105 h 33.796 c 0.954,0 1.578,-0.242 1.887,-0.719 0.301,-0.472 0.453,-1.105 0.453,-1.886 v -58.625 c 0,-0.782 -0.152,-1.387 -0.453,-1.825 -0.309,-0.433 -0.933,-0.648 -1.887,-0.648 h -9.23 c -1.734,0 -2.602,0.82 -2.602,2.473 v 49.789 h -22.097 v -49.789 c 0,-0.782 -0.153,-1.387 -0.453,-1.825 -0.309,-0.433 -0.934,-0.648 -1.887,-0.648 h -9.102 c -1.73,0 -2.597,0.82 -2.597,2.473 v 49.789 h -5.981 c -1.648,0 -2.473,0.82 -2.473,2.468 v 6.368 c 0,1.734 0.825,2.605 2.473,2.605 h 5.981 v 7.539 c 0,6.844 1.925,12.195 5.781,16.055 3.859,3.855 10.164,5.785 18.918,5.785" /><path
             id="path60"
             style="fill:#231f20;fill-opacity:1;fill-rule:nonzero;stroke:none"
             d="m 860.359,225.652 c -0.347,-0.433 -1.004,-0.648 -1.964,-0.648 h -9.45 c -1.66,0 -2.492,0.82 -2.492,2.473 l 0.133,36.527 c 0,3.812 -0.629,6.891 -1.883,9.234 -1.262,2.336 -3.75,3.504 -7.476,3.504 -1.305,0 -2.797,-0.215 -4.489,-0.648 -1.687,-0.434 -3.379,-0.973 -5.066,-1.625 -1.692,-0.653 -3.274,-1.301 -4.746,-1.949 -1.477,-0.649 -2.649,-1.192 -3.512,-1.625 v -43.418 c 0,-1.653 -0.824,-2.473 -2.473,-2.473 h -9.226 c -1.645,0 -2.473,0.82 -2.473,2.473 v 58.625 c 0,1.734 0.828,2.605 2.473,2.605 h 9.226 c 1.649,0 2.473,-0.871 2.473,-2.605 v -3.895 c 0.09,0 0.152,-0.023 0.195,-0.07 0.043,-0.043 0.11,-0.063 0.196,-0.063 1.215,0.864 2.675,1.754 4.371,2.668 1.691,0.906 3.496,1.75 5.41,2.531 1.914,0.782 3.91,1.407 6,1.887 2.086,0.473 4.125,0.711 6.129,0.711 4.433,0 7.91,-0.668 10.433,-2.012 2.52,-1.347 4.434,-3.144 5.739,-5.394 1.301,-2.254 2.129,-4.879 2.472,-7.867 0.348,-2.989 0.524,-6.133 0.524,-9.422 v -37.699 c 0,-0.782 -0.176,-1.387 -0.524,-1.825" /><path
             id="path62"
             style="fill:#231f20;fill-opacity:1;fill-rule:nonzero;stroke:none"
             d="m 913.793,253.992 h -15.859 c -3.293,0 -5.899,-0.754 -7.801,-2.273 -1.906,-1.52 -2.863,-4.399 -2.863,-8.645 0,-2.859 0.585,-4.832 1.757,-5.918 1.172,-1.082 3.274,-1.621 6.305,-1.621 1.387,0 2.906,0.172 4.551,0.52 1.644,0.347 3.293,0.824 4.941,1.429 1.645,0.606 3.246,1.282 4.809,2.02 1.558,0.73 2.945,1.449 4.16,2.141 z m 0.781,-21.574 c -3.297,-2.516 -7,-4.551 -11.117,-6.113 -4.117,-1.559 -8.383,-2.34 -12.805,-2.34 -3.464,0 -6.351,0.453 -8.644,1.367 -2.297,0.906 -4.117,2.164 -5.461,3.77 -1.344,1.601 -2.301,3.531 -2.859,5.781 -0.563,2.258 -0.844,4.765 -0.844,7.543 -0.09,7.625 1.902,13.148 5.98,16.574 4.071,3.422 10.223,5.137 18.461,5.137 h 16.637 v 3.41 c 0,1.926 -0.195,3.562 -0.582,4.918 -0.391,1.359 -1.11,2.473 -2.149,3.344 -1.039,0.875 -2.425,1.492 -4.16,1.836 -1.734,0.351 -3.945,0.527 -6.633,0.527 -1.035,0 -2.316,-0.043 -3.832,-0.125 -1.515,-0.09 -3.074,-0.176 -4.675,-0.266 -1.61,-0.086 -3.207,-0.215 -4.813,-0.39 -1.605,-0.168 -3.055,-0.301 -4.351,-0.383 -1.305,-0.176 -2.196,-0.196 -2.668,-0.07 -0.481,0.132 -0.801,0.675 -0.977,1.621 l -1.168,4.761 c -0.176,0.856 -0.086,1.563 0.262,2.118 0.344,0.558 1.254,1.132 2.726,1.738 1.387,0.515 3.036,0.945 4.942,1.285 1.906,0.344 3.851,0.621 5.851,0.836 1.993,0.215 3.965,0.387 5.91,0.512 1.95,0.132 3.707,0.195 5.266,0.195 5.637,0 10.117,-0.566 13.457,-1.688 3.336,-1.128 5.867,-2.711 7.602,-4.746 1.734,-2.039 2.863,-4.531 3.382,-7.476 0.52,-2.946 0.778,-6.242 0.778,-9.879 v -25.094 c 0,-1.297 0.07,-2.316 0.195,-3.051 0.133,-0.734 0.348,-1.304 0.653,-1.687 0.3,-0.391 0.757,-0.676 1.367,-0.848 0.601,-0.176 1.429,-0.305 2.468,-0.39 0.954,-0.086 1.602,-0.262 1.95,-0.52 0.343,-0.262 0.519,-0.738 0.519,-1.434 v -5.457 c 0,-1.472 -1.039,-2.382 -3.117,-2.73 -1.039,-0.168 -2.082,-0.324 -3.121,-0.453 -1.039,-0.133 -2.035,-0.196 -2.992,-0.196 -3.032,0 -5.481,0.567 -7.344,1.692 -1.867,1.121 -3.141,3.199 -3.832,6.238 l -0.262,0.133" /><path
             id="path64"
             style="fill:#231f20;fill-opacity:1;fill-rule:nonzero;stroke:none"
             d="m 999.199,225.652 c -0.351,-0.433 -1.008,-0.648 -1.969,-0.648 h -9.449 c -1.66,0 -2.488,0.82 -2.488,2.473 l 0.133,36.527 c 0,3.812 -0.629,6.891 -1.887,9.234 -1.258,2.336 -3.75,3.504 -7.477,3.504 -1.3,0 -2.796,-0.215 -4.484,-0.648 -1.691,-0.434 -3.379,-0.973 -5.07,-1.625 -1.688,-0.653 -3.27,-1.301 -4.746,-1.949 -1.473,-0.649 -2.645,-1.192 -3.508,-1.625 v -43.418 c 0,-1.653 -0.828,-2.473 -2.473,-2.473 h -9.226 c -1.649,0 -2.473,0.82 -2.473,2.473 v 58.625 c 0,1.734 0.824,2.605 2.473,2.605 h 9.226 c 1.645,0 2.473,-0.871 2.473,-2.605 v -3.895 c 0.086,0 0.148,-0.023 0.191,-0.07 0.047,-0.043 0.11,-0.063 0.2,-0.063 1.214,0.864 2.671,1.754 4.367,2.668 1.695,0.906 3.496,1.75 5.41,2.531 1.914,0.782 3.914,1.407 6.004,1.887 2.082,0.473 4.125,0.711 6.125,0.711 4.433,0 7.91,-0.668 10.433,-2.012 2.524,-1.347 4.438,-3.144 5.739,-5.394 1.304,-2.254 2.129,-4.879 2.476,-7.867 0.348,-2.989 0.524,-6.133 0.524,-9.422 v -37.699 c 0,-0.782 -0.176,-1.387 -0.524,-1.825" /><path
             id="path66"
             style="fill:#231f20;fill-opacity:1;fill-rule:nonzero;stroke:none"
             d="m 1061.6,230.984 c 0.26,-0.957 0.26,-1.738 0,-2.343 -0.26,-0.606 -0.99,-1.164 -2.21,-1.688 -2.52,-1.039 -5.64,-1.797 -9.36,-2.273 -3.73,-0.477 -7.19,-0.715 -10.4,-0.715 -6.07,0 -10.94,0.906 -14.63,2.73 -3.68,1.821 -6.49,4.246 -8.44,7.278 -1.96,3.035 -3.23,6.57 -3.84,10.597 -0.61,4.028 -0.91,8.258 -0.91,12.676 0,3.984 0.32,7.949 0.98,11.895 0.65,3.941 1.95,7.449 3.89,10.527 1.96,3.074 4.77,5.57 8.46,7.477 3.68,1.902 8.51,2.859 14.49,2.859 1.47,0 3.1,-0.043 4.88,-0.133 1.77,-0.086 3.55,-0.262 5.32,-0.519 1.78,-0.266 3.51,-0.594 5.2,-0.989 1.69,-0.394 3.23,-0.898 4.62,-1.511 1.56,-0.7 2.21,-1.926 1.95,-3.68 l -0.91,-5.254 c -0.26,-0.957 -0.69,-1.523 -1.3,-1.691 -0.61,-0.176 -1.52,-0.223 -2.73,-0.133 -2.69,0.258 -5.44,0.523 -8.26,0.781 -2.81,0.258 -5.35,0.391 -7.6,0.391 -5.29,0 -8.97,-1.516 -11.05,-4.536 -2.08,-3.027 -3.12,-8.121 -3.12,-15.292 0,-4.059 0.24,-7.426 0.71,-10.11 0.48,-2.676 1.28,-4.84 2.41,-6.48 1.12,-1.637 2.58,-2.786 4.36,-3.43 1.77,-0.652 3.96,-0.973 6.56,-0.973 1.99,0 4.62,0.11 7.87,0.321 3.25,0.222 6.21,0.5 8.9,0.851 1.04,0.172 1.82,0.172 2.34,0 0.52,-0.176 0.86,-0.824 1.04,-1.953 l 0.78,-4.68" /><path
             id="path68"
             style="fill:#231f20;fill-opacity:1;fill-rule:nonzero;stroke:none"
             d="m 1097.87,278.172 c -2.43,0 -4.42,-0.344 -5.98,-1.027 -1.56,-0.692 -2.84,-1.696 -3.84,-3.028 -0.99,-1.336 -1.71,-2.969 -2.14,-4.902 -0.44,-1.934 -0.74,-4.102 -0.91,-6.512 h 25.74 c 0,1.981 -0.18,3.887 -0.52,5.738 -0.35,1.848 -0.98,3.5 -1.89,4.961 -0.91,1.465 -2.21,2.621 -3.9,3.481 -1.69,0.859 -3.88,1.289 -6.56,1.289 z m -13,-25.219 c 0.08,-3.297 0.45,-6.023 1.1,-8.187 0.65,-2.168 1.63,-3.883 2.93,-5.137 1.3,-1.254 2.9,-2.145 4.81,-2.664 1.91,-0.52 4.2,-0.777 6.89,-0.777 2.34,0 5.11,0.167 8.32,0.515 3.2,0.348 6.07,0.649 8.58,0.914 1.21,0.172 2.06,0.149 2.53,-0.066 0.48,-0.215 0.8,-0.934 0.98,-2.145 l 0.78,-4.293 c 0.17,-0.953 0.15,-1.734 -0.07,-2.34 -0.22,-0.605 -0.93,-1.171 -2.14,-1.687 -1.3,-0.524 -2.82,-0.977 -4.55,-1.367 -1.74,-0.387 -3.56,-0.715 -5.46,-0.973 -1.91,-0.258 -3.82,-0.48 -5.72,-0.648 -1.91,-0.176 -3.64,-0.266 -5.2,-0.266 -6.24,0 -11.23,0.914 -14.95,2.73 -3.73,1.821 -6.59,4.247 -8.58,7.282 -2,3.035 -3.32,6.523 -3.97,10.468 -0.65,3.942 -0.97,8.036 -0.97,12.286 0,3.117 0.26,6.625 0.78,10.527 0.52,3.898 1.71,7.539 3.57,10.922 1.87,3.379 4.64,6.215 8.32,8.512 3.69,2.296 8.69,3.445 15.02,3.445 5.8,0 10.5,-0.867 14.1,-2.598 3.6,-1.738 6.39,-3.968 8.39,-6.699 1.99,-2.73 3.36,-5.848 4.09,-9.359 0.74,-3.508 1.15,-6.996 1.24,-10.465 0.08,-2.34 -0.3,-4.246 -1.17,-5.719 -0.87,-1.473 -2.6,-2.211 -5.2,-2.211 h -34.45" /><path
             id="path70"
             style="fill:#231f20;fill-opacity:1;fill-rule:nonzero;stroke:none"
             d="m 1178.08,275.309 c -3.05,0.867 -5.77,1.453 -8.17,1.757 -2.39,0.305 -4.68,0.457 -6.85,0.457 -2.36,0 -4.36,-0.347 -6.01,-1.043 -1.65,-0.695 -2.96,-1.867 -3.92,-3.523 -0.96,-1.648 -1.66,-3.848 -2.09,-6.586 -0.43,-2.738 -0.65,-6.148 -0.65,-10.234 0,-4.172 0.19,-7.543 0.59,-10.106 0.39,-2.562 1.02,-4.523 1.89,-5.871 0.87,-1.348 1.92,-2.262 3.14,-2.738 1.21,-0.481 2.69,-0.719 4.43,-0.719 1.31,0 2.79,0.223 4.44,0.656 1.66,0.434 3.31,0.95 4.97,1.563 1.65,0.609 3.2,1.238 4.64,1.887 1.43,0.656 2.63,1.242 3.59,1.765 z m 14.17,-47.832 c 0,-0.782 -0.16,-1.387 -0.46,-1.825 -0.3,-0.433 -0.93,-0.648 -1.88,-0.648 h -9.36 c -1.56,0 -2.34,0.773 -2.34,2.316 v 4.11 c -0.09,0 -0.15,0.019 -0.2,0.062 -0.04,0.039 -0.1,0.067 -0.19,0.067 -1.13,-0.774 -2.47,-1.61 -4.03,-2.512 -1.56,-0.902 -3.25,-1.738 -5.07,-2.508 -1.82,-0.773 -3.71,-1.398 -5.66,-1.867 -1.95,-0.469 -3.88,-0.707 -5.78,-0.707 -4.25,0 -7.74,0.762 -10.47,2.273 -2.73,1.516 -4.9,3.664 -6.5,6.438 -1.6,2.773 -2.73,6.129 -3.38,10.074 -0.65,3.945 -0.97,8.383 -0.97,13.324 0,5.289 0.37,10.028 1.11,14.235 0.73,4.203 2.05,7.777 3.96,10.726 1.9,2.945 4.53,5.176 7.86,6.695 3.34,1.512 7.65,2.274 12.94,2.274 5.37,0 10.74,-0.996 16.12,-2.988 0.08,0 0.13,0.019 0.13,0.062 0,0.047 0.04,0.067 0.13,0.067 v 26.906 c 0,0.871 0.15,1.519 0.45,1.953 0.3,0.43 0.98,0.652 2.02,0.652 h 9.23 c 1.04,0 1.69,-0.242 1.95,-0.718 0.26,-0.473 0.39,-1.106 0.39,-1.887 v -86.574" /><path
             id="path72"
             style="fill:#231f20;fill-opacity:1;fill-rule:nonzero;stroke:none"
             d="m 1283.9,256.207 c 0,3.813 -0.22,7.059 -0.65,9.75 -0.44,2.684 -1.11,4.848 -2.02,6.5 -0.91,1.645 -2.1,2.855 -3.57,3.637 -1.48,0.781 -3.26,1.215 -5.34,1.297 -1.38,0 -2.64,-0.02 -3.77,-0.063 -1.12,-0.043 -2.27,-0.152 -3.44,-0.32 -1.17,-0.176 -2.45,-0.418 -3.84,-0.719 -1.38,-0.305 -2.98,-0.676 -4.81,-1.105 v -37.567 c 2.08,-0.351 4.27,-0.609 6.57,-0.781 2.3,-0.176 4.48,-0.258 6.56,-0.258 2.17,0 4.12,0.215 5.85,0.649 1.74,0.429 3.23,1.32 4.49,2.66 1.26,1.343 2.23,3.316 2.93,5.918 0.69,2.597 1.04,6.066 1.04,10.402 z m 14.82,1.164 c 0,-5.281 -0.41,-10.008 -1.24,-14.168 -0.82,-4.16 -2.27,-7.668 -4.36,-10.527 -2.08,-2.864 -4.94,-5.047 -8.57,-6.567 -3.64,-1.515 -8.28,-2.277 -13.92,-2.277 -2.08,0 -4.26,0.07 -6.56,0.195 -2.3,0.133 -4.55,0.348 -6.76,0.653 -2.21,0.304 -4.33,0.672 -6.37,1.105 -2.04,0.43 -3.84,0.91 -5.39,1.434 -1.48,0.601 -2.43,1.422 -2.86,2.465 -0.44,1.039 -0.65,2.121 -0.65,3.25 v 81.117 c 0,1.648 0.86,2.472 2.59,2.472 h 9.24 c 1.04,0 1.73,-0.238 2.08,-0.714 0.34,-0.477 0.51,-1.063 0.51,-1.758 v -27.297 c 3.3,1.215 6.29,2.035 8.97,2.469 2.69,0.433 5.08,0.648 7.16,0.648 5.37,0 9.74,-0.773 13.13,-2.336 3.38,-1.558 6.04,-3.769 7.99,-6.633 1.95,-2.855 3.27,-6.285 3.97,-10.269 0.69,-3.988 1.04,-8.406 1.04,-13.262" /><path
             id="path74"
             style="fill:#231f20;fill-opacity:1;fill-rule:nonzero;stroke:none"
             d="m 1334.08,243.203 c 0.95,2.688 1.84,5.199 2.66,7.543 0.83,2.34 1.54,4.375 2.15,6.109 0.69,2.079 1.34,3.985 1.95,5.719 l 8.06,23.918 c 0.26,0.781 0.6,1.344 1.04,1.692 0.43,0.347 1.12,0.523 2.08,0.523 h 9.62 c 1.04,0 1.6,-0.262 1.69,-0.781 0.08,-0.52 0,-1.129 -0.26,-1.824 l -30.29,-82.68 c -0.35,-0.863 -0.74,-1.469 -1.17,-1.817 -0.44,-0.343 -1.21,-0.519 -2.34,-0.519 h -8.84 c -1.04,0 -1.63,0.258 -1.76,0.777 -0.13,0.52 -0.06,1.129 0.2,1.825 l 8.19,21.964 -22.75,60.45 c -0.26,0.695 -0.33,1.304 -0.19,1.824 0.12,0.519 0.67,0.781 1.62,0.781 h 10.01 c 0.87,0 1.47,-0.09 1.82,-0.262 0.35,-0.175 0.69,-0.734 1.04,-1.691 l 8.45,-24.18 6.5,-19.371 h 0.52" /><path
             id="path76"
             style="fill:#231f20;fill-opacity:1;fill-rule:nonzero;stroke:none"
             d="m 1448.74,229.945 c 0.25,-1.472 -0.31,-2.558 -1.69,-3.25 -1.13,-0.519 -2.46,-0.953 -3.97,-1.3 -1.52,-0.344 -3.08,-0.629 -4.68,-0.844 -1.6,-0.215 -3.12,-0.367 -4.55,-0.453 -1.43,-0.09 -2.66,-0.133 -3.7,-0.133 -3.82,0 -6.79,0.543 -8.91,1.625 -2.12,1.086 -3.71,2.578 -4.75,4.484 -1.04,1.906 -1.69,4.114 -1.94,6.629 -0.26,2.516 -0.39,5.156 -0.39,7.93 v 32.633 h -6.5 c -0.96,0 -1.61,0.195 -1.96,0.586 -0.34,0.39 -0.51,1.015 -0.51,1.882 v 6.368 c 0,0.867 0.17,1.519 0.51,1.953 0.35,0.429 1,0.652 1.96,0.652 h 6.63 v 13.387 c 0,0.953 0.23,1.625 0.71,2.015 0.47,0.391 1.06,0.672 1.76,0.848 l 8.7,2.336 c 1.74,0.437 2.61,-0.086 2.61,-1.555 v -17.031 h 13.91 c 1.04,0 1.71,-0.223 2.01,-0.652 0.3,-0.434 0.45,-1.039 0.45,-1.821 v -6.5 c 0,-0.867 -0.15,-1.492 -0.45,-1.882 -0.3,-0.391 -0.97,-0.586 -2.01,-0.586 h -13.91 v -32.375 c 0,-1.731 0.12,-3.075 0.39,-4.028 0.26,-0.953 0.71,-1.668 1.36,-2.14 0.65,-0.481 1.54,-0.762 2.67,-0.848 1.12,-0.086 2.55,-0.133 4.29,-0.133 0.95,0 2.31,0.047 4.09,0.133 1.78,0.086 3.31,0.215 4.61,0.391 0.7,0.082 1.22,0 1.57,-0.262 0.34,-0.262 0.6,-0.777 0.78,-1.559 l 0.91,-6.5" /><path
             id="path78"
             style="fill:#231f20;fill-opacity:1;fill-rule:nonzero;stroke:none"
             d="m 1508.77,225.004 h -9.31 c -1.75,0 -2.62,0.82 -2.62,2.473 0,6.324 0.02,12.585 0.06,18.785 0.04,6.195 0.06,12.453 0.06,18.781 0,3.645 -0.58,6.566 -1.75,8.773 -1.17,2.215 -3.71,3.317 -7.61,3.317 -1.3,0 -2.79,-0.238 -4.48,-0.711 -1.69,-0.481 -3.38,-1.024 -5.07,-1.629 -1.69,-0.605 -3.27,-1.258 -4.74,-1.945 -1.48,-0.7 -2.65,-1.219 -3.52,-1.563 v -43.808 c 0,-0.782 -0.17,-1.387 -0.52,-1.825 -0.34,-0.433 -0.99,-0.648 -1.95,-0.648 h -9.22 c -1.57,0 -2.35,0.82 -2.35,2.473 v 86.707 c 0,1.644 0.78,2.472 2.35,2.472 h 9.22 c 1.74,0 2.6,-0.828 2.6,-2.472 l 0.04,-31.461 c 1.12,0.695 2.52,1.453 4.17,2.277 1.65,0.82 3.43,1.602 5.34,2.34 1.91,0.734 3.91,1.34 5.99,1.82 2.09,0.473 4.13,0.711 6.13,0.711 4.51,0 8.08,-0.668 10.68,-2.012 2.61,-1.347 4.59,-3.144 5.93,-5.394 1.35,-2.254 2.22,-4.879 2.61,-7.867 0.39,-2.989 0.59,-6.133 0.59,-9.422 v -37.699 c 0,-1.653 -0.88,-2.473 -2.63,-2.473" /><path
             id="path80"
             style="fill:#231f20;fill-opacity:1;fill-rule:nonzero;stroke:none"
             d="m 1551.56,278.172 c -2.42,0 -4.42,-0.344 -5.97,-1.027 -1.57,-0.692 -2.85,-1.696 -3.84,-3.028 -1,-1.336 -1.71,-2.969 -2.15,-4.902 -0.43,-1.934 -0.73,-4.102 -0.9,-6.512 h 25.73 c 0,1.981 -0.17,3.887 -0.51,5.738 -0.35,1.848 -0.98,3.5 -1.89,4.961 -0.91,1.465 -2.21,2.621 -3.9,3.481 -1.69,0.859 -3.88,1.289 -6.57,1.289 z m -13,-25.219 c 0.09,-3.297 0.46,-6.023 1.11,-8.187 0.65,-2.168 1.62,-3.883 2.92,-5.137 1.31,-1.254 2.91,-2.145 4.81,-2.664 1.91,-0.52 4.21,-0.777 6.89,-0.777 2.35,0 5.12,0.167 8.32,0.515 3.21,0.348 6.07,0.649 8.59,0.914 1.21,0.172 2.05,0.149 2.53,-0.066 0.47,-0.215 0.8,-0.934 0.97,-2.145 l 0.78,-4.293 c 0.18,-0.953 0.15,-1.734 -0.06,-2.34 -0.22,-0.605 -0.93,-1.171 -2.14,-1.687 -1.31,-0.524 -2.82,-0.977 -4.55,-1.367 -1.74,-0.387 -3.56,-0.715 -5.46,-0.973 -1.91,-0.258 -3.82,-0.48 -5.73,-0.648 -1.91,-0.176 -3.63,-0.266 -5.2,-0.266 -6.24,0 -11.22,0.914 -14.95,2.73 -3.72,1.821 -6.58,4.247 -8.58,7.282 -1.99,3.035 -3.31,6.523 -3.96,10.468 -0.65,3.942 -0.98,8.036 -0.98,12.286 0,3.117 0.27,6.625 0.78,10.527 0.53,3.898 1.71,7.539 3.58,10.922 1.86,3.379 4.64,6.215 8.32,8.512 3.68,2.296 8.69,3.445 15.01,3.445 5.81,0 10.51,-0.867 14.11,-2.598 3.59,-1.738 6.39,-3.968 8.38,-6.699 1.99,-2.73 3.36,-5.848 4.1,-9.359 0.74,-3.508 1.15,-6.996 1.23,-10.465 0.09,-2.34 -0.3,-4.246 -1.17,-5.719 -0.86,-1.473 -2.59,-2.211 -5.2,-2.211 h -34.45" /><path
             id="path82"
             style="fill:#231f20;fill-opacity:1;fill-rule:nonzero;stroke:none"
             d="m 1629.95,308.727 c 0,1.73 0.87,2.597 2.6,2.597 h 47.84 c 1.65,0 2.47,-0.816 2.47,-2.449 v -7.977 c 0,-1.543 -0.87,-2.316 -2.6,-2.316 h -35.48 v -22.488 h 31.45 c 1.74,0 2.6,-0.782 2.6,-2.34 v -8.063 c 0,-1.554 -0.86,-2.336 -2.6,-2.336 h -31.45 v -25.613 h 36.39 c 1.56,0 2.35,-0.824 2.35,-2.469 v -7.929 c 0,-1.559 -0.83,-2.34 -2.48,-2.34 h -48.49 c -1.73,0 -2.6,0.781 -2.6,2.34 v 81.383" /><path
             id="path84"
             style="fill:#231f20;fill-opacity:1;fill-rule:nonzero;stroke:none"
             d="m 1749.03,225.004 h -9.23 c -0.95,0 -1.6,0.215 -1.95,0.648 -0.34,0.438 -0.52,1.043 -0.52,1.825 v 4.027 l -0.25,0.133 c -1.31,-0.871 -2.8,-1.758 -4.49,-2.668 -1.69,-0.907 -3.49,-1.75 -5.39,-2.535 -1.92,-0.782 -3.88,-1.411 -5.92,-1.883 -2.04,-0.481 -4.05,-0.719 -6.05,-0.719 -4.42,0 -7.91,0.609 -10.46,1.82 -2.55,1.211 -4.49,2.907 -5.79,5.071 -1.29,2.168 -2.11,4.726 -2.47,7.672 -0.34,2.945 -0.51,6.113 -0.51,9.492 v 38.215 c 0,1.734 0.83,2.605 2.49,2.605 h 9.58 c 1.57,0 2.36,-0.871 2.36,-2.605 v -36.528 c 0,-1.996 0.13,-3.769 0.38,-5.332 0.26,-1.558 0.73,-2.879 1.43,-3.965 0.69,-1.082 1.64,-1.929 2.84,-2.535 1.21,-0.601 2.81,-0.906 4.79,-0.906 1.38,0 2.91,0.215 4.59,0.648 1.68,0.438 3.34,0.977 4.98,1.625 1.64,0.653 3.15,1.301 4.53,1.95 1.38,0.652 2.5,1.191 3.36,1.625 v 43.418 c 0,0.781 0.18,1.414 0.52,1.886 0.35,0.477 1,0.719 1.95,0.719 h 9.23 c 1.65,0 2.47,-0.871 2.47,-2.605 v -58.625 c 0,-1.653 -0.82,-2.473 -2.47,-2.473" /><path
             id="path86"
             style="fill:#231f20;fill-opacity:1;fill-rule:nonzero;stroke:none"
             d="m 1782.19,227.477 c 0,-1.653 -0.83,-2.473 -2.49,-2.473 h -9.45 c -1.66,0 -2.5,0.82 -2.5,2.473 v 58.625 c 0,1.734 0.84,2.605 2.5,2.605 h 9.31 c 1.75,0 2.63,-0.871 2.63,-2.605 v -5.715 l 0.26,-0.262 c 0.95,0.867 2.21,1.797 3.77,2.793 1.56,0.996 3.22,1.906 5,2.73 1.78,0.825 3.57,1.582 5.4,2.278 1.82,0.691 3.51,1.172 5.07,1.429 0.87,0.172 1.56,0.133 2.08,-0.132 0.52,-0.258 0.86,-0.953 1.03,-2.078 l 0.92,-8.711 c 0.08,-0.954 0.04,-1.649 -0.13,-2.082 -0.18,-0.434 -0.96,-0.778 -2.34,-1.04 -1.82,-0.347 -3.73,-0.757 -5.72,-1.23 -1.99,-0.48 -3.95,-1 -5.85,-1.562 -1.9,-0.567 -3.68,-1.106 -5.33,-1.625 -1.65,-0.52 -3.04,-1.043 -4.16,-1.559 v -41.859" /><path
             id="path88"
             style="fill:#231f20;fill-opacity:1;fill-rule:nonzero;stroke:none"
             d="m 1853.44,256.988 c 0,3.461 -0.18,6.473 -0.53,9.032 -0.34,2.554 -1.04,4.679 -2.08,6.367 -1.04,1.695 -2.47,2.968 -4.29,3.84 -1.81,0.863 -4.21,1.296 -7.15,1.296 -2.77,0 -5.02,-0.433 -6.75,-1.296 -1.74,-0.872 -3.11,-2.168 -4.1,-3.903 -1,-1.734 -1.69,-3.879 -2.08,-6.437 -0.4,-2.551 -0.59,-5.52 -0.59,-8.899 0,-3.472 0.19,-6.484 0.59,-9.039 0.39,-2.558 1.06,-4.679 2.02,-6.367 0.94,-1.695 2.29,-2.973 4.02,-3.84 1.74,-0.863 3.98,-1.297 6.76,-1.297 2.95,0 5.35,0.41 7.21,1.235 1.87,0.82 3.32,2.082 4.36,3.769 1.04,1.692 1.74,3.832 2.08,6.438 0.35,2.597 0.53,5.629 0.53,9.101 z m 14.42,0.907 c 0,-3.723 -0.23,-7.583 -0.71,-11.571 -0.48,-3.984 -1.66,-7.648 -3.57,-10.98 -1.9,-3.34 -4.75,-6.071 -8.56,-8.196 -3.8,-2.125 -9.07,-3.183 -15.82,-3.183 -6.49,0 -11.59,1.058 -15.3,3.183 -3.72,2.125 -6.52,4.856 -8.37,8.196 -1.86,3.332 -3.01,6.996 -3.44,10.98 -0.43,3.988 -0.64,7.848 -0.64,11.571 0,3.031 0.27,6.41 0.84,10.14 0.55,3.723 1.79,7.215 3.7,10.465 1.89,3.246 4.68,5.977 8.36,8.188 3.67,2.214 8.62,3.316 14.85,3.316 6.31,0 11.35,-0.957 15.11,-2.859 3.76,-1.907 6.64,-4.403 8.62,-7.477 1.99,-3.078 3.31,-6.52 3.96,-10.332 0.65,-3.813 0.97,-7.629 0.97,-11.441" /><path
             id="path90"
             style="fill:#231f20;fill-opacity:1;fill-rule:nonzero;stroke:none"
             d="m 1922.2,257.371 c 0,4.16 -0.2,7.496 -0.59,10.012 -0.38,2.515 -1.01,4.461 -1.88,5.855 -0.86,1.379 -1.93,2.313 -3.19,2.793 -1.25,0.473 -2.75,0.711 -4.48,0.711 -1.3,0 -2.77,-0.215 -4.42,-0.648 -1.64,-0.434 -3.27,-0.934 -4.88,-1.496 -1.6,-0.567 -3.11,-1.192 -4.55,-1.883 -1.42,-0.695 -2.61,-1.301 -3.57,-1.82 v -32.5 c 2.95,-0.868 5.61,-1.454 8,-1.754 2.38,-0.309 4.69,-0.453 6.95,-0.453 2.34,0 4.31,0.32 5.92,0.968 1.6,0.653 2.9,1.805 3.89,3.449 1,1.645 1.71,3.833 2.15,6.563 0.43,2.73 0.65,6.133 0.65,10.203 z m 14.69,-0.125 c 0,-5.289 -0.39,-10.012 -1.17,-14.172 -0.78,-4.16 -2.15,-7.668 -4.1,-10.531 -1.94,-2.859 -4.59,-5.023 -7.93,-6.496 -3.33,-1.477 -7.56,-2.215 -12.66,-2.215 -2.17,0 -4.67,0.223 -7.49,0.656 -2.81,0.434 -5.74,1.164 -8.76,2.207 l -0.14,-0.133 v -22.874 c 0,-0.696 -0.15,-1.305 -0.45,-1.825 -0.31,-0.519 -0.98,-0.777 -2.02,-0.777 h -9.23 c -1.04,0 -1.71,0.219 -2.01,0.648 -0.31,0.434 -0.46,1.082 -0.46,1.954 v 82.414 c 0,1.734 0.82,2.605 2.47,2.605 h 9.23 c 0.95,0 1.58,-0.242 1.88,-0.719 0.31,-0.472 0.46,-1.105 0.46,-1.886 v -3.895 l 0.39,-0.266 c 1.13,0.782 2.49,1.629 4.09,2.536 1.61,0.914 3.32,1.757 5.14,2.539 1.82,0.777 3.68,1.429 5.59,1.949 1.91,0.523 3.82,0.781 5.72,0.781 4.25,0 7.75,-0.781 10.53,-2.34 2.77,-1.562 4.96,-3.75 6.57,-6.566 1.6,-2.817 2.72,-6.223 3.38,-10.207 0.64,-3.988 0.97,-8.449 0.97,-13.387" /><path
             id="path92"
             style="fill:#231f20;fill-opacity:1;fill-rule:nonzero;stroke:none"
             d="m 1974.85,278.172 c -2.42,0 -4.41,-0.344 -5.97,-1.027 -1.57,-0.692 -2.84,-1.696 -3.84,-3.028 -1,-1.336 -1.71,-2.969 -2.15,-4.902 -0.43,-1.934 -0.73,-4.102 -0.91,-6.512 h 25.74 c 0,1.981 -0.17,3.887 -0.51,5.738 -0.35,1.848 -0.98,3.5 -1.89,4.961 -0.91,1.465 -2.21,2.621 -3.9,3.481 -1.69,0.859 -3.88,1.289 -6.57,1.289 z m -12.99,-25.219 c 0.08,-3.297 0.45,-6.023 1.1,-8.187 0.65,-2.168 1.63,-3.883 2.93,-5.137 1.3,-1.254 2.9,-2.145 4.8,-2.664 1.91,-0.52 4.21,-0.777 6.9,-0.777 2.33,0 5.11,0.167 8.32,0.515 3.2,0.348 6.06,0.649 8.57,0.914 1.21,0.172 2.06,0.149 2.54,-0.066 0.48,-0.215 0.8,-0.934 0.98,-2.145 l 0.78,-4.293 c 0.17,-0.953 0.15,-1.734 -0.07,-2.34 -0.21,-0.605 -0.94,-1.171 -2.15,-1.687 -1.3,-0.524 -2.81,-0.977 -4.55,-1.367 -1.73,-0.387 -3.55,-0.715 -5.46,-0.973 -1.9,-0.258 -3.81,-0.48 -5.71,-0.648 -1.91,-0.176 -3.64,-0.266 -5.21,-0.266 -6.24,0 -11.22,0.914 -14.95,2.73 -3.73,1.821 -6.58,4.247 -8.57,7.282 -2,3.035 -3.32,6.523 -3.97,10.468 -0.65,3.942 -0.97,8.036 -0.97,12.286 0,3.117 0.25,6.625 0.78,10.527 0.52,3.898 1.71,7.539 3.57,10.922 1.86,3.379 4.63,6.215 8.32,8.512 3.69,2.296 8.69,3.445 15.01,3.445 5.81,0 10.51,-0.867 14.11,-2.598 3.6,-1.738 6.39,-3.968 8.38,-6.699 2,-2.73 3.36,-5.848 4.1,-9.359 0.74,-3.508 1.15,-6.996 1.24,-10.465 0.08,-2.34 -0.31,-4.246 -1.18,-5.719 -0.87,-1.473 -2.59,-2.211 -5.19,-2.211 h -34.45" /><path
             id="path94"
             style="fill:#231f20;fill-opacity:1;fill-rule:nonzero;stroke:none"
             d="m 2053.89,253.992 h -15.86 c -3.29,0 -5.89,-0.754 -7.8,-2.273 -1.91,-1.52 -2.86,-4.399 -2.86,-8.645 0,-2.859 0.59,-4.832 1.75,-5.918 1.17,-1.082 3.27,-1.621 6.31,-1.621 1.39,0 2.9,0.172 4.55,0.52 1.64,0.347 3.29,0.824 4.94,1.429 1.64,0.606 3.25,1.282 4.81,2.02 1.56,0.73 2.95,1.449 4.16,2.141 z m 0.78,-21.574 c -3.29,-2.516 -7,-4.551 -11.12,-6.113 -4.12,-1.559 -8.38,-2.34 -12.8,-2.34 -3.46,0 -6.35,0.453 -8.64,1.367 -2.31,0.906 -4.12,2.164 -5.47,3.77 -1.34,1.601 -2.29,3.531 -2.85,5.781 -0.57,2.258 -0.85,4.765 -0.85,7.543 -0.09,7.625 1.9,13.148 5.98,16.574 4.07,3.422 10.23,5.137 18.46,5.137 h 16.64 v 3.41 c 0,1.926 -0.19,3.562 -0.58,4.918 -0.39,1.359 -1.11,2.473 -2.15,3.344 -1.04,0.875 -2.42,1.492 -4.16,1.836 -1.73,0.351 -3.95,0.527 -6.63,0.527 -1.04,0 -2.32,-0.043 -3.83,-0.125 -1.52,-0.09 -3.09,-0.176 -4.69,-0.266 -1.6,-0.086 -3.2,-0.215 -4.8,-0.39 -1.61,-0.168 -3.06,-0.301 -4.36,-0.383 -1.3,-0.176 -2.19,-0.196 -2.66,-0.07 -0.48,0.132 -0.8,0.675 -0.98,1.621 l -1.17,4.761 c -0.18,0.856 -0.09,1.563 0.26,2.118 0.34,0.558 1.25,1.132 2.73,1.738 1.38,0.515 3.03,0.945 4.94,1.285 1.9,0.344 3.85,0.621 5.85,0.836 1.99,0.215 3.96,0.387 5.92,0.512 1.95,0.132 3.7,0.195 5.26,0.195 5.63,0 10.12,-0.566 13.46,-1.688 3.34,-1.128 5.86,-2.711 7.6,-4.746 1.73,-2.039 2.86,-4.531 3.38,-7.476 0.52,-2.946 0.78,-6.242 0.78,-9.879 v -25.094 c 0,-1.297 0.06,-2.316 0.2,-3.051 0.13,-0.734 0.34,-1.304 0.64,-1.687 0.31,-0.391 0.76,-0.676 1.37,-0.848 0.61,-0.176 1.43,-0.305 2.47,-0.39 0.95,-0.086 1.6,-0.262 1.95,-0.52 0.35,-0.262 0.52,-0.738 0.52,-1.434 v -5.457 c 0,-1.472 -1.04,-2.382 -3.12,-2.73 -1.04,-0.168 -2.08,-0.324 -3.12,-0.453 -1.04,-0.133 -2.04,-0.196 -2.99,-0.196 -3.03,0 -5.49,0.567 -7.34,1.692 -1.87,1.121 -3.15,3.199 -3.84,6.238 l -0.26,0.133" /><path
             id="path96"
             style="fill:#231f20;fill-opacity:1;fill-rule:nonzero;stroke:none"
             d="m 2139.29,225.652 c -0.35,-0.433 -1.01,-0.648 -1.97,-0.648 h -9.44 c -1.66,0 -2.49,0.82 -2.49,2.473 l 0.13,36.527 c 0,3.812 -0.64,6.891 -1.89,9.234 -1.26,2.336 -3.75,3.504 -7.48,3.504 -1.3,0 -2.79,-0.215 -4.48,-0.648 -1.69,-0.434 -3.38,-0.973 -5.07,-1.625 -1.69,-0.653 -3.27,-1.301 -4.74,-1.949 -1.48,-0.649 -2.65,-1.192 -3.51,-1.625 v -43.418 c 0,-1.653 -0.83,-2.473 -2.47,-2.473 h -9.23 c -1.65,0 -2.47,0.82 -2.47,2.473 v 58.625 c 0,1.734 0.82,2.605 2.47,2.605 h 9.23 c 1.64,0 2.47,-0.871 2.47,-2.605 v -3.895 c 0.08,0 0.15,-0.023 0.19,-0.07 0.04,-0.043 0.11,-0.063 0.2,-0.063 1.21,0.864 2.67,1.754 4.37,2.668 1.68,0.906 3.49,1.75 5.41,2.531 1.91,0.782 3.91,1.407 5.99,1.887 2.09,0.473 4.13,0.711 6.13,0.711 4.44,0 7.91,-0.668 10.43,-2.012 2.52,-1.347 4.44,-3.144 5.75,-5.394 1.3,-2.254 2.13,-4.879 2.48,-7.867 0.34,-2.989 0.51,-6.133 0.51,-9.422 v -37.699 c 0,-0.782 -0.17,-1.387 -0.52,-1.825" /><path
             id="path98"
             style="fill:#231f20;fill-opacity:1;fill-rule:nonzero;stroke:none"
             d="m 2223.67,236.965 c 5.72,0 10.08,1.582 13.07,4.746 2.99,3.16 4.48,8.125 4.48,14.887 v 52.129 c 0,1.73 0.86,2.597 2.58,2.597 h 9.66 c 0.94,0 1.57,-0.242 1.87,-0.715 0.29,-0.476 0.45,-1.101 0.45,-1.882 l -0.13,-52.129 c 0,-2.606 -0.15,-5.184 -0.45,-7.735 -0.31,-2.558 -0.93,-5.093 -1.88,-7.609 -1.3,-3.117 -2.97,-5.766 -5,-7.93 -2.03,-2.168 -4.35,-3.945 -6.94,-5.332 -2.6,-1.387 -5.4,-2.402 -8.43,-3.051 -3.03,-0.648 -6.14,-0.976 -9.35,-0.976 -13.66,0 -22.99,4.808 -28.01,14.43 -1.39,2.601 -2.39,5.437 -2.99,8.515 -0.61,3.074 -0.91,6.305 -0.91,9.688 v 52.129 c 0,1.73 0.82,2.597 2.47,2.597 h 9.76 c 1.64,0 2.46,-0.867 2.46,-2.597 v -52.129 c 0,-6.418 1.45,-11.289 4.35,-14.629 2.91,-3.336 7.22,-5.004 12.94,-5.004" /><path
             id="path100"
             style="fill:#231f20;fill-opacity:1;fill-rule:nonzero;stroke:none"
             d="m 2326.1,225.652 c -0.35,-0.433 -1,-0.648 -1.96,-0.648 h -9.44 c -1.66,0 -2.49,0.82 -2.49,2.473 l 0.12,36.527 c 0,3.812 -0.63,6.891 -1.88,9.234 -1.26,2.336 -3.75,3.504 -7.48,3.504 -1.3,0 -2.79,-0.215 -4.48,-0.648 -1.69,-0.434 -3.38,-0.973 -5.07,-1.625 -1.69,-0.653 -3.27,-1.301 -4.75,-1.949 -1.47,-0.649 -2.64,-1.192 -3.5,-1.625 v -43.418 c 0,-1.653 -0.83,-2.473 -2.47,-2.473 h -9.23 c -1.65,0 -2.47,0.82 -2.47,2.473 v 58.625 c 0,1.734 0.82,2.605 2.47,2.605 h 9.23 c 1.64,0 2.47,-0.871 2.47,-2.605 v -3.895 c 0.07,0 0.14,-0.023 0.19,-0.07 0.04,-0.043 0.11,-0.063 0.2,-0.063 1.21,0.864 2.66,1.754 4.36,2.668 1.69,0.906 3.5,1.75 5.41,2.531 1.92,0.782 3.92,1.407 6,1.887 2.09,0.473 4.13,0.711 6.13,0.711 4.43,0 7.91,-0.668 10.43,-2.012 2.52,-1.347 4.43,-3.144 5.74,-5.394 1.3,-2.254 2.13,-4.879 2.48,-7.867 0.35,-2.989 0.52,-6.133 0.52,-9.422 v -37.699 c 0,-0.782 -0.17,-1.387 -0.53,-1.825" /><path
             id="path102"
             style="fill:#231f20;fill-opacity:1;fill-rule:nonzero;stroke:none"
             d="m 2356.14,227.477 c 0,-0.696 -0.14,-1.282 -0.45,-1.758 -0.31,-0.477 -0.93,-0.715 -1.88,-0.715 h -9.24 c -1.73,0 -2.6,0.82 -2.6,2.473 v 58.757 c 0,1.645 0.87,2.473 2.6,2.473 h 9.24 c 0.95,0 1.57,-0.242 1.88,-0.719 0.31,-0.472 0.45,-1.058 0.45,-1.754 z m 0.78,78.128 c 0,-1.039 -0.08,-2.015 -0.26,-2.925 -0.17,-0.914 -0.54,-1.715 -1.1,-2.407 -0.57,-0.695 -1.34,-1.234 -2.34,-1.625 -0.99,-0.386 -2.32,-0.582 -3.96,-0.582 -1.74,0 -3.11,0.215 -4.1,0.649 -1,0.43 -1.75,0.996 -2.28,1.691 -0.52,0.692 -0.86,1.492 -1.03,2.403 -0.18,0.91 -0.27,1.839 -0.27,2.796 0,2.079 0.5,3.833 1.5,5.262 0.99,1.434 3.05,2.145 6.18,2.145 3.2,0 5.28,-0.668 6.24,-2.012 0.95,-1.348 1.42,-3.145 1.42,-5.395" /><path
             id="path104"
             style="fill:#231f20;fill-opacity:1;fill-rule:nonzero;stroke:none"
             d="m 2412.96,256.988 c 0,3.461 -0.18,6.473 -0.53,9.032 -0.34,2.554 -1.03,4.679 -2.08,6.367 -1.03,1.695 -2.47,2.968 -4.29,3.84 -1.81,0.863 -4.2,1.296 -7.14,1.296 -2.78,0 -5.03,-0.433 -6.76,-1.296 -1.74,-0.872 -3.11,-2.168 -4.1,-3.903 -1,-1.734 -1.69,-3.879 -2.08,-6.437 -0.39,-2.551 -0.59,-5.52 -0.59,-8.899 0,-3.472 0.2,-6.484 0.59,-9.039 0.39,-2.558 1.06,-4.679 2.02,-6.367 0.95,-1.695 2.29,-2.973 4.02,-3.84 1.74,-0.863 3.99,-1.297 6.76,-1.297 2.95,0 5.35,0.41 7.22,1.235 1.86,0.82 3.32,2.082 4.35,3.769 1.05,1.692 1.74,3.832 2.08,6.438 0.35,2.597 0.53,5.629 0.53,9.101 z m 14.42,0.907 c 0,-3.723 -0.23,-7.583 -0.71,-11.571 -0.48,-3.984 -1.66,-7.648 -3.56,-10.98 -1.91,-3.34 -4.76,-6.071 -8.57,-8.196 -3.8,-2.125 -9.07,-3.183 -15.82,-3.183 -6.48,0 -11.59,1.058 -15.3,3.183 -3.72,2.125 -6.52,4.856 -8.37,8.196 -1.86,3.332 -3.01,6.996 -3.44,10.98 -0.43,3.988 -0.64,7.848 -0.64,11.571 0,3.031 0.27,6.41 0.84,10.14 0.55,3.723 1.79,7.215 3.7,10.465 1.89,3.246 4.69,5.977 8.36,8.188 3.67,2.214 8.62,3.316 14.85,3.316 6.31,0 11.35,-0.957 15.11,-2.859 3.76,-1.907 6.64,-4.403 8.62,-7.477 1.99,-3.078 3.31,-6.52 3.97,-10.332 0.64,-3.813 0.96,-7.629 0.96,-11.441" /><path
             id="path106"
             style="fill:#231f20;fill-opacity:1;fill-rule:nonzero;stroke:none"
             d="m 2494.84,225.652 c -0.35,-0.433 -1,-0.648 -1.96,-0.648 h -9.44 c -1.66,0 -2.49,0.82 -2.49,2.473 l 0.12,36.527 c 0,3.812 -0.63,6.891 -1.88,9.234 -1.26,2.336 -3.75,3.504 -7.48,3.504 -1.3,0 -2.79,-0.215 -4.48,-0.648 -1.69,-0.434 -3.38,-0.973 -5.07,-1.625 -1.69,-0.653 -3.27,-1.301 -4.75,-1.949 -1.47,-0.649 -2.64,-1.192 -3.5,-1.625 v -43.418 c 0,-1.653 -0.83,-2.473 -2.47,-2.473 h -9.23 c -1.65,0 -2.47,0.82 -2.47,2.473 v 58.625 c 0,1.734 0.82,2.605 2.47,2.605 h 9.23 c 1.64,0 2.47,-0.871 2.47,-2.605 v -3.895 c 0.07,0 0.14,-0.023 0.19,-0.07 0.04,-0.043 0.11,-0.063 0.2,-0.063 1.21,0.864 2.66,1.754 4.36,2.668 1.69,0.906 3.5,1.75 5.41,2.531 1.92,0.782 3.92,1.407 6,1.887 2.09,0.473 4.13,0.711 6.13,0.711 4.43,0 7.91,-0.668 10.43,-2.012 2.52,-1.347 4.43,-3.144 5.74,-5.394 1.3,-2.254 2.13,-4.879 2.48,-7.867 0.35,-2.989 0.52,-6.133 0.52,-9.422 v -37.699 c 0,-0.782 -0.17,-1.387 -0.53,-1.825" /><path
             id="path108"
             style="fill:none;stroke:#231f20;stroke-width:5;stroke-linecap:butt;stroke-linejoin:miter;stroke-miterlimit:4;stroke-dasharray:none;stroke-opacity:1"
             d="m 536.664,173.324 h 2.5" /><path
             id="path110"
             style="fill:none;stroke:#231f20;stroke-width:5;stroke-linecap:butt;stroke-linejoin:miter;stroke-miterlimit:4;stroke-dasharray:5.00844, 5.00844, 5.00844, 5.00844;stroke-dashoffset:0;stroke-opacity:1"
             d="m 544.176,173.324 h 17.527" /><path
             id="path112"
             style="fill:none;stroke:#231f20;stroke-width:5;stroke-linecap:butt;stroke-linejoin:miter;stroke-miterlimit:4;stroke-dasharray:5.00844, 5.00844, 5.00844, 5.00844, 5.00844, 5.00844;stroke-dashoffset:0;stroke-opacity:1"
             d="M 564.211,173.324 H 2515" /><path
             id="path114"
             style="fill:none;stroke:#231f20;stroke-width:5;stroke-linecap:butt;stroke-linejoin:miter;stroke-miterlimit:4;stroke-dasharray:none;stroke-opacity:1"
             d="m 2517.5,173.324 h 2.5" /><path
             id="path116"
             style="fill:#231f20;fill-opacity:1;fill-rule:nonzero;stroke:none"
             d="m 573.281,140.789 c 1.199,0 2.676,-0.035 4.438,-0.113 1.758,-0.078 3.636,-0.246 5.64,-0.481 1.996,-0.246 4,-0.566 6,-0.968 1.996,-0.399 3.801,-0.918 5.403,-1.551 0.879,-0.403 1.394,-0.801 1.554,-1.203 0.164,-0.399 0.164,-0.875 0,-1.446 l -0.714,-3.355 c -0.164,-0.402 -0.383,-0.766 -0.661,-1.074 -0.285,-0.325 -0.82,-0.403 -1.621,-0.246 -2.64,0.402 -5.742,0.781 -9.3,1.14 -3.559,0.363 -7.141,0.539 -10.739,0.539 -4.644,0 -8.32,-0.879 -11.039,-2.636 -2.722,-1.758 -4.801,-4.141 -6.242,-7.137 -1.438,-3 -2.363,-6.488 -2.758,-10.442 -0.406,-3.964 -0.601,-8.144 -0.601,-12.5387 0,-4.0039 0.242,-7.8828 0.718,-11.6406 0.481,-3.7695 1.461,-7.082 2.942,-9.9609 1.476,-2.8789 3.578,-5.1875 6.297,-6.9063 2.718,-1.7148 6.281,-2.5781 10.683,-2.5781 3.676,0 7.199,0.1758 10.559,0.5391 3.363,0.3633 6.48,0.7422 9.359,1.1406 0.879,0.1562 1.457,0.0586 1.742,-0.3008 0.278,-0.3594 0.497,-0.7422 0.661,-1.1328 l 0.597,-3.125 c 0.156,-0.6445 0.184,-1.1641 0.063,-1.5625 -0.125,-0.4023 -0.582,-0.7617 -1.383,-1.0742 -1.438,-0.6446 -3.16,-1.1602 -5.156,-1.5625 -2.004,-0.3985 -4.024,-0.7227 -6.063,-0.9571 -2.039,-0.246 -3.98,-0.4218 -5.816,-0.5468 -1.844,-0.1172 -3.364,-0.1758 -4.563,-0.1758 -6.324,0 -11.461,1.0937 -15.422,3.3008 -3.957,2.1953 -7.058,5.1367 -9.3,8.8203 -2.243,3.6797 -3.758,7.918 -4.559,12.7226 -0.801,4.793 -1.203,9.793 -1.203,15 0,5.2737 0.383,10.4177 1.144,15.4177 0.754,4.993 2.219,9.414 4.379,13.254 2.16,3.848 5.239,6.942 9.239,9.309 4,2.351 9.242,3.531 15.722,3.531" /><path
             id="path118"
             style="fill:#231f20;fill-opacity:1;fill-rule:nonzero;stroke:none"
             d="m 645.039,89.8516 c 0,3.6953 -0.199,6.914 -0.601,9.6914 -0.399,2.762 -1.176,5.047 -2.336,6.852 -1.164,1.808 -2.762,3.175 -4.801,4.093 -2.043,0.926 -4.703,1.387 -7.981,1.387 -3.121,0 -5.636,-0.461 -7.558,-1.387 -1.922,-0.918 -3.442,-2.304 -4.559,-4.148 -1.125,-1.848 -1.883,-4.133 -2.281,-6.8595 -0.402,-2.7344 -0.602,-5.9336 -0.602,-9.6289 0,-3.6914 0.2,-6.9024 0.602,-9.6289 0.398,-2.7227 1.156,-5.0079 2.281,-6.8555 1.117,-1.8438 2.637,-3.2305 4.559,-4.1484 1.922,-0.9258 4.437,-1.3868 7.558,-1.3868 3.278,0 5.938,0.4375 7.981,1.3282 2.039,0.8789 3.637,2.2265 4.801,4.0234 1.16,1.8047 1.937,4.0898 2.336,6.8672 0.402,2.7617 0.601,6.0351 0.601,9.8008 z m 9.359,0.7851 c 0,-3.5273 -0.199,-7.1211 -0.597,-10.8008 -0.403,-3.6836 -1.422,-7.0429 -3.059,-10.0781 -1.64,-3.0469 -4.14,-5.5312 -7.5,-7.4453 -3.359,-1.9219 -8.004,-2.8789 -13.922,-2.8789 -5.761,0 -10.258,0.957 -13.5,2.8789 -3.242,1.9141 -5.66,4.375 -7.261,7.3828 -1.602,3 -2.579,6.3594 -2.938,10.0781 -0.363,3.7227 -0.543,7.336 -0.543,10.8633 0,2.8789 0.242,6.0352 0.723,9.4803 0.476,3.438 1.539,6.629 3.179,9.602 1.641,2.957 4.063,5.41 7.258,7.371 3.2,1.965 7.563,2.937 13.082,2.937 5.52,0 9.938,-0.855 13.258,-2.578 3.32,-1.719 5.86,-3.953 7.621,-6.719 1.758,-2.761 2.903,-5.894 3.418,-9.421 0.524,-3.516 0.781,-7.0824 0.781,-10.6723" /><path
             id="path120"
             style="fill:#231f20;fill-opacity:1;fill-rule:nonzero;stroke:none"
             d="m 712.004,60.3906 h -5.039 c -1.363,0 -2.043,0.6836 -2.043,2.0508 l 0.121,35.5938 c 0,2.7348 -0.16,4.9998 -0.481,6.8008 -0.32,1.805 -0.863,3.23 -1.624,4.273 -0.754,1.036 -1.754,1.758 -2.997,2.161 -1.242,0.402 -2.777,0.605 -4.621,0.605 -1.437,0 -3.117,-0.281 -5.039,-0.84 -1.918,-0.566 -3.84,-1.211 -5.761,-1.933 -1.918,-0.723 -3.719,-1.465 -5.399,-2.215 -1.68,-0.766 -2.961,-1.391 -3.84,-1.867 V 62.4414 c 0,-1.3672 -0.719,-2.0508 -2.16,-2.0508 h -4.918 c -1.285,0 -1.918,0.6836 -1.918,2.0391 v 54.3673 c 0,1.355 0.633,2.043 1.918,2.043 h 4.918 c 0.723,0 1.258,-0.129 1.621,-0.363 0.36,-0.235 0.539,-0.782 0.539,-1.653 v -4.246 l 0.36,-0.117 c 0.961,0.637 2.203,1.387 3.718,2.246 1.52,0.867 3.223,1.699 5.106,2.488 1.879,0.782 3.855,1.457 5.933,2.016 2.082,0.547 4.204,0.816 6.364,0.816 3.918,0 7.023,-0.554 9.297,-1.679 2.281,-1.114 4.023,-2.657 5.226,-4.618 1.195,-1.964 1.977,-4.296 2.336,-7.019 0.359,-2.719 0.539,-5.676 0.539,-8.879 V 62.4297 c 0,-1.3555 -0.719,-2.0391 -2.156,-2.0391" /><path
             id="path122"
             style="fill:#231f20;fill-opacity:1;fill-rule:nonzero;stroke:none"
             d="m 772.602,60.3906 h -5.04 c -1.363,0 -2.039,0.6836 -2.039,2.0508 l 0.122,35.5938 c 0,2.7348 -0.161,4.9998 -0.485,6.8008 -0.316,1.805 -0.859,3.23 -1.621,4.273 -0.758,1.036 -1.758,1.758 -2.996,2.161 -1.242,0.402 -2.777,0.605 -4.621,0.605 -1.442,0 -3.117,-0.281 -5.039,-0.84 -1.918,-0.566 -3.84,-1.211 -5.762,-1.933 -1.918,-0.723 -3.719,-1.465 -5.398,-2.215 -1.68,-0.766 -2.961,-1.391 -3.84,-1.867 V 62.4414 c 0,-1.3672 -0.723,-2.0508 -2.16,-2.0508 h -4.918 c -1.285,0 -1.918,0.6836 -1.918,2.0391 v 54.3673 c 0,1.355 0.633,2.043 1.918,2.043 h 4.918 c 0.718,0 1.257,-0.129 1.621,-0.363 0.359,-0.235 0.539,-0.782 0.539,-1.653 v -4.246 l 0.355,-0.117 c 0.965,0.637 2.203,1.387 3.723,2.246 1.519,0.867 3.223,1.699 5.101,2.488 1.879,0.782 3.86,1.457 5.938,2.016 2.082,0.547 4.199,0.816 6.363,0.816 3.914,0 7.024,-0.554 9.297,-1.679 2.281,-1.114 4.024,-2.657 5.227,-4.618 1.195,-1.964 1.976,-4.296 2.336,-7.019 0.355,-2.719 0.539,-5.676 0.539,-8.879 V 62.4297 c 0,-1.3555 -0.719,-2.0391 -2.16,-2.0391" /><path
             id="path124"
             style="fill:#231f20;fill-opacity:1;fill-rule:nonzero;stroke:none"
             d="m 825.523,94.2266 c 0,2.082 -0.179,4.1796 -0.539,6.3084 -0.359,2.121 -1.062,4.016 -2.101,5.695 -1.043,1.68 -2.524,3.036 -4.442,4.082 -1.918,1.036 -4.48,1.563 -7.679,1.563 -2.637,0 -4.86,-0.422 -6.66,-1.262 -1.797,-0.84 -3.258,-2.019 -4.379,-3.543 -1.118,-1.515 -1.957,-3.359 -2.52,-5.515 -0.562,-2.1605 -0.918,-4.6019 -1.082,-7.3284 z m 9.719,-0.711 c 0.078,-1.9218 -0.222,-3.5429 -0.902,-4.8633 -0.68,-1.3164 -2.137,-1.9804 -4.379,-1.9804 h -33.84 c 0.078,-3.5977 0.402,-6.6211 0.965,-9.0547 0.555,-2.4414 1.476,-4.4024 2.758,-5.8906 1.277,-1.4727 2.898,-2.5157 4.859,-3.1133 1.957,-0.5977 4.34,-0.8985 7.137,-0.8985 1.203,0 2.562,0.0586 4.082,0.1758 1.519,0.125 3.043,0.2461 4.562,0.3633 1.52,0.1133 2.977,0.2617 4.379,0.418 1.399,0.1562 2.617,0.3203 3.66,0.4765 0.797,0.0782 1.418,0.0391 1.86,-0.1172 0.437,-0.164 0.738,-0.6406 0.902,-1.4335 l 0.477,-2.6485 c 0.242,-1.1211 -0.2,-1.914 -1.317,-2.3984 -1.125,-0.4805 -2.48,-0.918 -4.082,-1.3203 -1.601,-0.4024 -3.281,-0.7422 -5.039,-1.0157 -1.762,-0.2851 -3.519,-0.496 -5.277,-0.664 -1.766,-0.1563 -3.367,-0.2344 -4.801,-0.2344 -5.523,0 -9.902,0.8594 -13.141,2.5781 -3.242,1.7188 -5.703,3.9727 -7.382,6.7774 -1.68,2.8008 -2.778,6.0156 -3.301,9.6562 -0.524,3.6446 -0.781,7.3867 -0.781,11.2227 0,2.8789 0.246,6.1015 0.722,9.6601 0.481,3.5621 1.559,6.8831 3.242,9.9611 1.68,3.086 4.118,5.664 7.321,7.742 3.195,2.078 7.558,3.113 13.074,3.113 5.121,0 9.242,-0.761 12.363,-2.273 3.121,-1.524 5.539,-3.527 7.262,-5.996 1.719,-2.492 2.875,-5.324 3.477,-8.528 0.601,-3.203 0.98,-6.4331 1.14,-9.7144" /><path
             id="path126"
             style="fill:#231f20;fill-opacity:1;fill-rule:nonzero;stroke:none"
             d="m 887.445,62.1953 c -2.242,-1.043 -5.062,-1.7656 -8.461,-2.168 -3.402,-0.3984 -6.621,-0.5937 -9.66,-0.5937 -5.281,0 -9.5,0.8008 -12.66,2.4023 -3.156,1.5938 -5.602,3.8008 -7.316,6.6016 -1.727,2.793 -2.844,6.0352 -3.364,9.7148 -0.519,3.6836 -0.781,7.6407 -0.781,11.875 0,3.8516 0.262,7.5704 0.781,11.1637 0.52,3.606 1.637,6.797 3.364,9.598 1.714,2.805 4.16,5.039 7.316,6.723 3.16,1.676 7.379,2.515 12.66,2.515 1.199,0 2.602,-0.039 4.199,-0.117 1.598,-0.074 3.219,-0.222 4.86,-0.418 1.64,-0.195 3.262,-0.476 4.863,-0.84 1.598,-0.363 3.039,-0.82 4.316,-1.379 0.641,-0.242 1.024,-0.601 1.145,-1.082 0.117,-0.476 0.137,-0.957 0.059,-1.433 l -0.481,-2.766 c -0.16,-0.644 -0.543,-1.035 -1.14,-1.203 -0.602,-0.152 -1.262,-0.191 -1.977,-0.113 -2.48,0.23 -5.223,0.496 -8.227,0.777 -2.996,0.274 -5.578,0.422 -7.738,0.422 -2.719,0 -5,-0.383 -6.84,-1.145 -1.84,-0.757 -3.301,-1.98 -4.379,-3.66 -1.082,-1.679 -1.863,-3.894 -2.339,-6.66 -0.477,-2.7538 -0.719,-6.1834 -0.719,-10.2538 0,-4.4023 0.242,-8.0468 0.719,-10.9296 0.476,-2.8711 1.281,-5.1719 2.402,-6.8907 1.117,-1.7226 2.598,-2.9414 4.437,-3.664 1.84,-0.7227 4.078,-1.0742 6.719,-1.0742 0.965,0 2.141,0.039 3.539,0.1171 1.403,0.0782 2.84,0.1758 4.324,0.3008 1.481,0.1211 2.977,0.2383 4.496,0.3516 1.52,0.1289 2.879,0.2656 4.083,0.4219 0.718,0.0781 1.296,0.039 1.738,-0.1172 0.437,-0.1563 0.742,-0.6446 0.902,-1.4375 l 0.481,-2.5156 c 0.238,-1.125 -0.204,-1.9649 -1.321,-2.5235" /><path
             id="path128"
             style="fill:#231f20;fill-opacity:1;fill-rule:nonzero;stroke:none"
             d="m 929.922,64.1094 c 0.078,-1.0352 -0.281,-1.7969 -1.078,-2.2735 -0.723,-0.4023 -1.664,-0.7421 -2.824,-1.0273 -1.161,-0.2813 -2.399,-0.5156 -3.719,-0.7109 -1.321,-0.2071 -2.598,-0.3633 -3.84,-0.4883 -1.238,-0.1172 -2.301,-0.1758 -3.18,-0.1758 -2.562,0 -4.679,0.3008 -6.359,0.8984 -1.68,0.6055 -3,1.4532 -3.961,2.5782 -0.961,1.121 -1.641,2.4609 -2.039,4.0234 -0.402,1.5625 -0.602,3.3008 -0.602,5.2148 V 111.27 h -6.597 c -1.364,0 -2.039,0.683 -2.039,2.039 v 3.363 c 0,1.441 0.675,2.168 2.039,2.168 h 6.718 v 12.957 c 0,0.715 0.18,1.238 0.539,1.551 0.36,0.324 0.86,0.566 1.5,0.722 l 4.801,1.321 c 1.36,0.398 2.035,-0.196 2.035,-1.797 V 118.84 h 13.325 c 0.882,0 1.437,-0.188 1.675,-0.551 0.246,-0.359 0.364,-0.859 0.364,-1.492 v -3.488 c 0,-0.711 -0.118,-1.239 -0.364,-1.551 -0.238,-0.324 -0.793,-0.488 -1.675,-0.488 H 911.316 V 74.9102 c 0,-1.4336 0.106,-2.5977 0.305,-3.4766 0.199,-0.8789 0.621,-1.5977 1.262,-2.1563 0.637,-0.5664 1.496,-0.9492 2.578,-1.1406 1.082,-0.207 2.535,-0.3047 4.379,-0.3047 0.64,0 1.742,0.0586 3.301,0.1836 1.562,0.1211 2.777,0.2149 3.66,0.293 0.957,0.082 1.597,0.0195 1.922,-0.1719 0.316,-0.207 0.554,-0.625 0.715,-1.2617 l 0.484,-2.7656" /><path
             id="path130"
             style="fill:#231f20;fill-opacity:1;fill-rule:nonzero;stroke:none"
             d="m 947.441,62.4297 c 0,-1.3555 -0.644,-2.0391 -1.918,-2.0391 h -4.921 c -1.442,0 -2.161,0.6836 -2.161,2.0391 v 54.3673 c 0,0.879 0.176,1.433 0.539,1.68 0.36,0.234 0.903,0.363 1.622,0.363 h 4.921 c 1.274,0 1.918,-0.688 1.918,-2.043 z m 0.719,72.0043 c 0,-1.524 -0.301,-2.801 -0.898,-3.836 -0.602,-1.047 -2.024,-1.567 -4.258,-1.567 -2.324,0 -3.766,0.539 -4.32,1.621 -0.563,1.075 -0.84,2.336 -0.84,3.782 0,1.511 0.336,2.761 1.019,3.718 0.68,0.957 2.055,1.438 4.141,1.438 2.156,0 3.555,-0.457 4.199,-1.375 0.641,-0.918 0.957,-2.18 0.957,-3.781" /><path
             id="path132"
             style="fill:#231f20;fill-opacity:1;fill-rule:nonzero;stroke:none"
             d="m 1008.4,60.3906 h -5.04 c -1.36,0 -2.04,0.6836 -2.04,2.0508 l 0.12,35.5938 c 0,2.7348 -0.16,4.9998 -0.48,6.8008 -0.32,1.805 -0.86,3.23 -1.624,4.273 -0.758,1.036 -1.758,1.758 -2.996,2.161 -1.242,0.402 -2.781,0.605 -4.621,0.605 -1.442,0 -3.121,-0.281 -5.039,-0.84 -1.918,-0.566 -3.844,-1.211 -5.762,-1.933 -1.918,-0.723 -3.723,-1.465 -5.398,-2.215 -1.68,-0.766 -2.961,-1.391 -3.84,-1.867 V 62.4414 c 0,-1.3672 -0.723,-2.0508 -2.164,-2.0508 h -4.914 c -1.286,0 -1.922,0.6836 -1.922,2.0391 v 54.3673 c 0,1.355 0.636,2.043 1.922,2.043 h 4.914 c 0.722,0 1.261,-0.129 1.621,-0.363 0.363,-0.235 0.543,-0.782 0.543,-1.653 v -4.246 l 0.355,-0.117 c 0.961,0.637 2.203,1.387 3.723,2.246 1.515,0.867 3.222,1.699 5.101,2.488 1.879,0.782 3.86,1.457 5.938,2.016 2.082,0.547 4.199,0.816 6.363,0.816 3.914,0 7.02,-0.554 9.3,-1.679 2.28,-1.114 4.02,-2.657 5.22,-4.618 1.2,-1.964 1.98,-4.296 2.34,-7.019 0.36,-2.719 0.54,-5.676 0.54,-8.879 V 62.4297 c 0,-1.3555 -0.72,-2.0391 -2.16,-2.0391" /><path
             id="path134"
             style="fill:#231f20;fill-opacity:1;fill-rule:nonzero;stroke:none"
             d="m 1032.28,90.3906 c 0,-4.2383 0.24,-7.7929 0.72,-10.6718 0.48,-2.8829 1.26,-5.2461 2.34,-7.0821 1.08,-1.8437 2.46,-3.164 4.14,-3.9648 1.68,-0.8008 3.76,-1.1992 6.24,-1.1992 2.24,0 4.92,0.2421 8.04,0.7187 3.12,0.4805 6.2,1.1641 9.24,2.043 v 39.9606 c -2.32,0.313 -4.82,0.614 -7.5,0.899 -2.68,0.285 -5.3,0.422 -7.86,0.422 -2.16,0 -4.18,-0.246 -6.06,-0.727 -1.88,-0.477 -3.52,-1.453 -4.92,-2.937 -1.4,-1.485 -2.48,-3.594 -3.24,-6.36 -0.76,-2.7615 -1.14,-6.4647 -1.14,-11.1014 z m 15.12,29.6364 c 1.84,0 3.76,-0.078 5.76,-0.23 2,-0.168 3.96,-0.363 5.88,-0.609 1.92,-0.235 3.76,-0.536 5.52,-0.899 1.76,-0.359 3.36,-0.738 4.8,-1.141 1.36,-0.402 2.2,-1.074 2.52,-2.031 0.32,-0.969 0.48,-1.887 0.48,-2.765 V 60.1562 c 0,-3.2031 -0.24,-6.1406 -0.72,-8.8164 -0.48,-2.6875 -1.52,-5 -3.12,-6.9648 -1.6,-1.9648 -3.92,-3.4844 -6.96,-4.5625 -3.04,-1.082 -7.12,-1.6211 -12.24,-1.6211 -1.52,0 -3.16,0.0391 -4.92,0.1172 -1.76,0.0898 -3.5,0.2266 -5.22,0.4219 -1.72,0.2031 -3.4,0.4804 -5.04,0.8398 -1.64,0.3594 -3.1,0.8203 -4.38,1.3867 -0.8,0.3125 -1.26,0.6914 -1.38,1.1328 -0.12,0.4375 -0.1,0.8985 0.06,1.3868 l 0.48,2.6367 c 0.16,0.7226 0.48,1.1601 0.96,1.3164 0.48,0.168 1.16,0.168 2.04,0 2.56,-0.3985 5.4,-0.6719 8.52,-0.8359 3.12,-0.1602 5.92,-0.2383 8.4,-0.2383 2.8,0 5.1,0.2148 6.9,0.6562 1.8,0.4375 3.24,1.1406 4.32,2.0977 1.08,0.957 1.84,2.1797 2.28,3.664 0.44,1.4844 0.66,3.2618 0.66,5.3399 v 4.7969 c -3.68,-1.3555 -6.9,-2.2969 -9.66,-2.8125 -2.76,-0.5274 -5.22,-0.7813 -7.38,-0.7813 -4.64,0 -8.46,0.6953 -11.46,2.1016 -3,1.3945 -5.38,3.4179 -7.14,6.0547 -1.76,2.6445 -2.98,5.7968 -3.66,9.4804 -0.68,3.6836 -1.02,7.8047 -1.02,12.3633 0,4.8711 0.4,9.2188 1.2,13.0196 0.8,3.797 2.16,7.019 4.08,9.656 1.92,2.637 4.46,4.641 7.62,5.996 3.16,1.367 7.1,2.039 11.82,2.039" /><path
             id="path136"
             style="fill:#231f20;fill-opacity:1;fill-rule:nonzero;stroke:none"
             d="m 1165.36,60.7539 c -0.33,-0.2383 -0.84,-0.3633 -1.57,-0.3633 h -42.12 c -1.44,0 -2.15,0.6446 -2.15,1.9219 V 137.91 c 0,1.356 0.71,2.039 2.15,2.039 h 41.41 c 1.35,0 2.04,-0.633 2.04,-1.914 v -4.687 c 0,-1.356 -0.73,-2.039 -2.17,-2.039 h -34.07 v -25.313 h 30.59 c 1.36,0 2.04,-0.644 2.04,-1.926 v -4.6755 c 0,-1.2812 -0.68,-1.9218 -2.04,-1.9218 h -30.59 V 68.918 h 35.04 c 1.28,0 1.91,-0.6875 1.91,-2.043 v -4.5625 c 0,-0.7969 -0.16,-1.3164 -0.47,-1.5586" /><path
             id="path138"
             style="fill:#231f20;fill-opacity:1;fill-rule:nonzero;stroke:none"
             d="m 1224.03,60.2812 h -4.91 c -1.44,0 -2.17,0.6758 -2.17,2.043 v 4.1992 l -0.24,0.2344 c -0.95,-0.625 -2.21,-1.375 -3.78,-2.2461 -1.55,-0.8594 -3.26,-1.6914 -5.09,-2.4805 -1.84,-0.7929 -3.81,-1.4648 -5.89,-2.0117 -2.08,-0.5468 -4.2,-0.832 -6.35,-0.832 -3.93,0 -7.05,0.5703 -9.36,1.6797 -2.32,1.125 -4.11,2.668 -5.35,4.6211 -1.24,1.9609 -2.03,4.3086 -2.39,7.0234 -0.37,2.7227 -0.55,5.6797 -0.55,8.8828 v 35.4025 c 0,1.355 0.68,2.043 2.02,2.043 h 5.09 c 1.26,0 1.89,-0.688 1.89,-2.055 V 81.1797 c 0,-2.8008 0.16,-5.0859 0.49,-6.8555 0.32,-1.7578 0.86,-3.164 1.62,-4.207 0.76,-1.0469 1.79,-1.7695 3.07,-2.168 1.29,-0.3984 2.86,-0.5976 4.71,-0.5976 1.44,0 3.13,0.2851 5.05,0.8398 1.93,0.5703 3.86,1.2031 5.79,1.9258 1.92,0.7226 3.73,1.4844 5.42,2.2851 1.69,0.8008 3.01,1.4454 3.98,1.9219 v 42.4608 c 0,1.367 0.67,2.055 2.04,2.055 h 4.91 c 1.37,0 2.04,-0.688 2.04,-2.055 V 62.3242 c 0,-1.3672 -0.67,-2.043 -2.04,-2.043" /><path
             id="path140"
             style="fill:#231f20;fill-opacity:1;fill-rule:nonzero;stroke:none"
             d="m 1270.47,110.555 c -1.59,-0.321 -3.36,-0.743 -5.27,-1.258 -1.92,-0.527 -3.78,-1.043 -5.59,-1.563 -1.79,-0.527 -3.46,-1.046 -4.98,-1.562 -1.51,-0.52 -2.63,-0.977 -3.36,-1.375 V 62.4297 c 0,-1.3555 -0.66,-2.0391 -2.01,-2.0391 h -5.09 c -1.26,0 -1.89,0.6836 -1.89,2.0391 v 54.3673 c 0,1.355 0.63,2.043 1.89,2.043 h 4.98 c 1.42,0 2.12,-0.688 2.12,-2.043 v -4.922 l 0.24,-0.242 c 0.8,0.64 1.9,1.336 3.3,2.097 1.41,0.762 2.94,1.524 4.62,2.286 1.69,0.75 3.41,1.433 5.16,2.039 1.76,0.597 3.4,1.054 4.93,1.379 0.71,0.156 1.2,0.136 1.44,-0.059 0.24,-0.203 0.44,-0.664 0.6,-1.387 l 0.48,-5.039 c 0.24,-1.433 -0.29,-2.234 -1.57,-2.394" /><path
             id="path142"
             style="fill:#231f20;fill-opacity:1;fill-rule:nonzero;stroke:none"
             d="m 1317.51,89.8516 c 0,3.6953 -0.2,6.914 -0.6,9.6914 -0.4,2.762 -1.17,5.047 -2.33,6.852 -1.17,1.808 -2.76,3.175 -4.8,4.093 -2.05,0.926 -4.71,1.387 -7.98,1.387 -3.12,0 -5.64,-0.461 -7.56,-1.387 -1.93,-0.918 -3.44,-2.304 -4.56,-4.148 -1.13,-1.848 -1.88,-4.133 -2.28,-6.8595 -0.4,-2.7344 -0.6,-5.9336 -0.6,-9.6289 0,-3.6914 0.2,-6.9024 0.6,-9.6289 0.4,-2.7227 1.15,-5.0079 2.28,-6.8555 1.12,-1.8438 2.63,-3.2305 4.56,-4.1484 1.92,-0.9258 4.44,-1.3868 7.56,-1.3868 3.27,0 5.93,0.4375 7.98,1.3282 2.04,0.8789 3.63,2.2265 4.8,4.0234 1.16,1.8047 1.93,4.0898 2.33,6.8672 0.4,2.7617 0.6,6.0351 0.6,9.8008 z m 9.36,0.7851 c 0,-3.5273 -0.2,-7.1211 -0.6,-10.8008 -0.4,-3.6836 -1.42,-7.0429 -3.05,-10.0781 -1.64,-3.0469 -4.14,-5.5312 -7.5,-7.4453 -3.36,-1.9219 -8.01,-2.8789 -13.92,-2.8789 -5.76,0 -10.26,0.957 -13.5,2.8789 -3.25,1.9141 -5.66,4.375 -7.26,7.3828 -1.61,3 -2.58,6.3594 -2.94,10.0781 -0.37,3.7227 -0.55,7.336 -0.55,10.8633 0,2.8789 0.25,6.0352 0.73,9.4803 0.47,3.438 1.53,6.629 3.18,9.602 1.64,2.957 4.06,5.41 7.26,7.371 3.19,1.965 7.55,2.937 13.08,2.937 5.51,0 9.93,-0.855 13.25,-2.578 3.32,-1.719 5.86,-3.953 7.63,-6.719 1.75,-2.761 2.9,-5.894 3.41,-9.421 0.53,-3.516 0.78,-7.0824 0.78,-10.6723" /><path
             id="path144"
             style="fill:#231f20;fill-opacity:1;fill-rule:nonzero;stroke:none"
             d="m 1378.83,90.5156 c 0,4.5821 -0.22,8.2617 -0.66,11.0394 -0.45,2.781 -1.12,4.929 -2.05,6.453 -0.92,1.531 -2.07,2.539 -3.43,3.015 -1.37,0.493 -2.97,0.735 -4.82,0.735 -1.44,0 -3.11,-0.242 -5,-0.735 -1.89,-0.476 -3.75,-1.082 -5.6,-1.804 -1.85,-0.723 -3.6,-1.485 -5.24,-2.293 -1.65,-0.805 -3,-1.488 -4.04,-2.055 V 70.1289 c 3.38,-0.9687 6.47,-1.6523 9.28,-2.0547 2.81,-0.3984 5.5,-0.6015 8.07,-0.6015 2.57,0 4.72,0.3789 6.44,1.1484 1.73,0.7656 3.12,2.0547 4.16,3.8594 1.04,1.8047 1.78,4.1797 2.23,7.1172 0.44,2.9414 0.66,6.5742 0.66,10.9179 z m 9.48,-0.3594 c 0,-4.9609 -0.36,-9.3632 -1.08,-13.2031 -0.72,-3.8398 -1.99,-7.0625 -3.79,-9.6562 -1.81,-2.6016 -4.22,-4.5821 -7.22,-5.9414 -3.01,-1.3672 -6.85,-2.0391 -11.5,-2.0391 -2.24,0 -4.77,0.2344 -7.58,0.7031 -2.81,0.4766 -5.82,1.3477 -9.03,2.6094 l -0.12,-0.1172 v -20.957 c 0,-0.8008 -0.14,-1.3789 -0.41,-1.7422 -0.28,-0.3594 -0.85,-0.5352 -1.72,-0.5352 h -4.85 c -0.87,0 -1.43,0.1563 -1.66,0.4805 -0.24,0.3203 -0.36,0.918 -0.36,1.7969 v 75.2423 c 0,1.355 0.67,2.043 2.02,2.043 h 4.85 c 1.34,0 2.01,-0.676 2.01,-2.016 v -4.246 l 0.36,-0.234 c 0.89,0.547 2.07,1.258 3.55,2.129 1.49,0.871 3.15,1.687 5,2.48 1.84,0.789 3.79,1.485 5.84,2.07 2.04,0.594 4.07,0.887 6.08,0.887 3.77,0 6.92,-0.652 9.44,-1.98 2.53,-1.321 4.54,-3.235 6.02,-5.75 1.48,-2.532 2.55,-5.625 3.19,-9.309 0.64,-3.6835 0.96,-7.9218 0.96,-12.7148" /><path
             id="path146"
             style="fill:#231f20;fill-opacity:1;fill-rule:nonzero;stroke:none"
             d="m 1436.55,94.2266 c 0,2.082 -0.18,4.1796 -0.54,6.3084 -0.36,2.121 -1.06,4.016 -2.1,5.695 -1.04,1.68 -2.52,3.036 -4.44,4.082 -1.92,1.036 -4.48,1.563 -7.68,1.563 -2.64,0 -4.86,-0.422 -6.66,-1.262 -1.8,-0.84 -3.26,-2.019 -4.38,-3.543 -1.12,-1.515 -1.96,-3.359 -2.52,-5.515 -0.56,-2.1605 -0.92,-4.6019 -1.08,-7.3284 z m 9.72,-0.711 c 0.08,-1.9218 -0.23,-3.5429 -0.9,-4.8633 -0.68,-1.3164 -2.14,-1.9804 -4.38,-1.9804 h -33.84 c 0.08,-3.5977 0.4,-6.6211 0.96,-9.0547 0.56,-2.4414 1.48,-4.4024 2.76,-5.8906 1.28,-1.4727 2.9,-2.5157 4.86,-3.1133 1.96,-0.5977 4.34,-0.8985 7.14,-0.8985 1.2,0 2.56,0.0586 4.08,0.1758 1.52,0.125 3.04,0.2461 4.56,0.3633 1.52,0.1133 2.98,0.2617 4.38,0.418 1.4,0.1562 2.62,0.3203 3.66,0.4765 0.8,0.0782 1.42,0.0391 1.86,-0.1172 0.44,-0.164 0.74,-0.6406 0.9,-1.4335 l 0.48,-2.6485 c 0.24,-1.1211 -0.2,-1.914 -1.32,-2.3984 -1.12,-0.4805 -2.48,-0.918 -4.08,-1.3203 -1.6,-0.4024 -3.28,-0.7422 -5.04,-1.0157 -1.76,-0.2851 -3.52,-0.496 -5.28,-0.664 -1.76,-0.1563 -3.36,-0.2344 -4.8,-0.2344 -5.52,0 -9.9,0.8594 -13.14,2.5781 -3.24,1.7188 -5.7,3.9727 -7.38,6.7774 -1.68,2.8008 -2.78,6.0156 -3.3,9.6562 -0.53,3.6446 -0.78,7.3867 -0.78,11.2227 0,2.8789 0.24,6.1015 0.72,9.6601 0.48,3.5621 1.56,6.8831 3.24,9.9611 1.68,3.086 4.12,5.664 7.32,7.742 3.2,2.078 7.56,3.113 13.08,3.113 5.12,0 9.24,-0.761 12.36,-2.273 3.12,-1.524 5.54,-3.527 7.26,-5.996 1.72,-2.492 2.88,-5.324 3.48,-8.528 0.6,-3.203 0.98,-6.4331 1.14,-9.7144" /><path
             id="path148"
             style="fill:#231f20;fill-opacity:1;fill-rule:nonzero;stroke:none"
             d="m 1494.75,139.949 h 40.56 c 1.36,0 2.04,-0.633 2.04,-1.914 v -4.687 c 0,-1.356 -0.72,-2.039 -2.16,-2.039 h -33.48 v -25.313 h 29.64 c 1.36,0 2.04,-0.644 2.04,-1.926 v -4.6755 c 0,-1.3672 -0.72,-2.0429 -2.16,-2.0429 h -29.4 V 62.4297 c 0,-1.3555 -0.68,-2.0391 -2.04,-2.0391 h -5.16 c -1.44,0 -2.16,0.6836 -2.16,2.0391 v 75.6053 c 0,1.281 0.76,1.914 2.28,1.914" /><path
             id="path150"
             style="fill:#231f20;fill-opacity:1;fill-rule:nonzero;stroke:none"
             d="m 1581.27,88.5938 h -17.64 c -3.68,0 -6.6,-0.8399 -8.76,-2.5196 -2.16,-1.6797 -3.24,-4.9219 -3.24,-9.7187 0,-3.3672 0.66,-5.6407 1.98,-6.8438 1.32,-1.2031 3.74,-1.7969 7.26,-1.7969 1.52,0 3.18,0.1954 4.98,0.5938 1.8,0.4023 3.62,0.9375 5.46,1.6211 1.84,0.6836 3.62,1.418 5.34,2.2187 1.72,0.8008 3.26,1.6016 4.62,2.4024 z m -0.12,-21.7188 c -2.96,-1.7578 -6.26,-3.4453 -9.9,-5.0391 -3.64,-1.6015 -7.86,-2.4023 -12.66,-2.4023 -5.84,0 -10,1.3945 -12.48,4.1992 -2.48,2.8008 -3.72,6.9219 -3.72,12.3633 0,6.7969 1.72,11.8555 5.16,15.1758 3.44,3.3203 9.16,4.9804 17.16,4.9804 h 16.56 v 4.0817 c 0,4.395 -1.02,7.442 -3.06,9.121 -2.04,1.68 -5.7,2.52 -10.98,2.52 -1.12,0 -2.38,-0.02 -3.78,-0.059 -1.4,-0.05 -2.86,-0.128 -4.38,-0.246 -1.52,-0.117 -3.04,-0.23 -4.56,-0.359 -1.52,-0.117 -2.92,-0.254 -4.2,-0.422 -1.36,-0.234 -2.16,0.117 -2.4,1.086 l -0.72,3.113 c -0.16,0.567 -0.1,1.047 0.18,1.446 0.28,0.402 0.86,0.8 1.74,1.203 1.2,0.398 2.64,0.754 4.32,1.074 1.68,0.32 3.44,0.586 5.28,0.781 1.84,0.196 3.66,0.344 5.46,0.418 1.8,0.078 3.42,0.117 4.86,0.117 4.8,0 8.61,-0.515 11.44,-1.55 2.82,-1.047 4.96,-2.481 6.42,-4.329 1.46,-1.836 2.39,-4.082 2.79,-6.718 0.39,-2.633 0.59,-5.555 0.59,-8.7581 V 72.1484 c 0,-1.1914 0.06,-2.1211 0.18,-2.7539 0.12,-0.6445 0.32,-1.125 0.6,-1.4453 0.28,-0.3125 0.7,-0.539 1.26,-0.6523 0.56,-0.1172 1.32,-0.2266 2.28,-0.3047 1.36,-0.0781 2.04,-0.5977 2.04,-1.5625 v -3 c 0,-0.5547 -0.16,-1.0117 -0.48,-1.375 -0.32,-0.3633 -0.96,-0.625 -1.92,-0.7813 -1.44,-0.2461 -2.84,-0.3632 -4.2,-0.3632 -2.76,0 -4.8,0.5195 -6.1,1.5625 -1.3,1.039 -2.15,2.8437 -2.54,5.4023 h -0.24" /><path
             id="path152"
             style="fill:#231f20;fill-opacity:1;fill-rule:nonzero;stroke:none"
             d="m 1646.43,62.1953 c -2.24,-1.043 -5.06,-1.7656 -8.46,-2.168 -3.4,-0.3984 -6.62,-0.5937 -9.66,-0.5937 -5.28,0 -9.5,0.8008 -12.67,2.4023 -3.15,1.5938 -5.59,3.8008 -7.31,6.6016 -1.72,2.793 -2.84,6.0352 -3.36,9.7148 -0.52,3.6836 -0.78,7.6407 -0.78,11.875 0,3.8516 0.26,7.5704 0.78,11.1637 0.52,3.606 1.64,6.797 3.36,9.598 1.72,2.805 4.16,5.039 7.31,6.723 3.17,1.676 7.39,2.515 12.67,2.515 1.2,0 2.6,-0.039 4.2,-0.117 1.6,-0.074 3.22,-0.222 4.86,-0.418 1.63,-0.195 3.25,-0.476 4.86,-0.84 1.6,-0.363 3.03,-0.82 4.32,-1.379 0.64,-0.242 1.02,-0.601 1.14,-1.082 0.12,-0.476 0.14,-0.957 0.06,-1.433 l -0.48,-2.766 c -0.16,-0.644 -0.54,-1.035 -1.14,-1.203 -0.6,-0.152 -1.26,-0.191 -1.98,-0.113 -2.48,0.23 -5.22,0.496 -8.22,0.777 -3,0.274 -5.58,0.422 -7.74,0.422 -2.72,0 -5.01,-0.383 -6.84,-1.145 -1.84,-0.757 -3.3,-1.98 -4.38,-3.66 -1.08,-1.679 -1.86,-3.894 -2.34,-6.66 -0.48,-2.7538 -0.72,-6.1834 -0.72,-10.2538 0,-4.4023 0.24,-8.0468 0.72,-10.9296 0.48,-2.8711 1.28,-5.1719 2.4,-6.8907 1.11,-1.7226 2.6,-2.9414 4.43,-3.664 1.85,-0.7227 4.09,-1.0742 6.73,-1.0742 0.96,0 2.14,0.039 3.54,0.1171 1.39,0.0782 2.84,0.1758 4.31,0.3008 1.49,0.1211 2.99,0.2383 4.51,0.3516 1.52,0.1289 2.88,0.2656 4.08,0.4219 0.72,0.0781 1.3,0.039 1.74,-0.1172 0.44,-0.1563 0.74,-0.6446 0.9,-1.4375 l 0.48,-2.5156 c 0.24,-1.125 -0.2,-1.9649 -1.32,-2.5235" /><path
             id="path154"
             style="fill:#231f20;fill-opacity:1;fill-rule:nonzero;stroke:none"
             d="m 1667.67,62.4297 c 0,-1.3555 -0.65,-2.0391 -1.93,-2.0391 h -4.92 c -1.44,0 -2.16,0.6836 -2.16,2.0391 v 54.3673 c 0,0.879 0.19,1.433 0.55,1.68 0.35,0.234 0.9,0.363 1.61,0.363 h 4.92 c 1.28,0 1.93,-0.688 1.93,-2.043 z m 0.72,72.0043 c 0,-1.524 -0.3,-2.801 -0.91,-3.836 -0.6,-1.047 -2.01,-1.567 -4.26,-1.567 -2.31,0 -3.76,0.539 -4.31,1.621 -0.57,1.075 -0.84,2.336 -0.84,3.782 0,1.511 0.34,2.761 1.01,3.718 0.69,0.957 2.06,1.438 4.14,1.438 2.16,0 3.57,-0.457 4.2,-1.375 0.65,-0.918 0.97,-2.18 0.97,-3.781" /><path
             id="path156"
             style="fill:#231f20;fill-opacity:1;fill-rule:nonzero;stroke:none"
             d="m 1702.58,63.1523 c 0.09,-0.957 -0.31,-1.6367 -1.19,-2.039 -0.97,-0.3985 -2.02,-0.7227 -3.19,-0.9571 -1.16,-0.246 -2.26,-0.3593 -3.3,-0.3593 -2,0 -3.64,0.2304 -4.92,0.7187 -1.28,0.4805 -2.27,1.1328 -3,1.9727 -0.72,0.8398 -1.22,1.8867 -1.5,3.125 -0.27,1.2422 -0.42,2.5781 -0.42,4.0156 v 73.2031 c 0,1.356 0.68,2.039 2.04,2.039 h 4.8 c 0.73,0 1.26,-0.121 1.63,-0.359 0.36,-0.239 0.53,-0.801 0.53,-1.68 V 72.6367 c 0,-2.082 0.44,-3.3515 1.32,-3.7812 0.88,-0.4493 2.44,-0.6641 4.68,-0.6641 1.28,0 1.96,-0.3984 2.04,-1.1992 l 0.48,-3.8399" /><path
             id="path158"
             style="fill:#231f20;fill-opacity:1;fill-rule:nonzero;stroke:none"
             d="m 1722.86,62.4297 c 0,-1.3555 -0.64,-2.0391 -1.92,-2.0391 h -4.92 c -1.44,0 -2.16,0.6836 -2.16,2.0391 v 54.3673 c 0,0.879 0.18,1.433 0.54,1.68 0.36,0.234 0.9,0.363 1.62,0.363 h 4.92 c 1.28,0 1.92,-0.688 1.92,-2.043 z m 0.72,72.0043 c 0,-1.524 -0.3,-2.801 -0.9,-3.836 -0.6,-1.047 -2.02,-1.567 -4.26,-1.567 -2.32,0 -3.76,0.539 -4.32,1.621 -0.56,1.075 -0.84,2.336 -0.84,3.782 0,1.511 0.34,2.761 1.02,3.718 0.68,0.957 2.06,1.438 4.14,1.438 2.16,0 3.56,-0.457 4.2,-1.375 0.64,-0.918 0.96,-2.18 0.96,-3.781" /><path
             id="path160"
             style="fill:#231f20;fill-opacity:1;fill-rule:nonzero;stroke:none"
             d="m 1770.86,64.1094 c 0.08,-1.0352 -0.28,-1.7969 -1.08,-2.2735 -0.72,-0.4023 -1.66,-0.7421 -2.82,-1.0273 -1.16,-0.2813 -2.4,-0.5156 -3.72,-0.7109 -1.33,-0.2071 -2.61,-0.3633 -3.85,-0.4883 -1.24,-0.1172 -2.29,-0.1758 -3.17,-0.1758 -2.57,0 -4.68,0.3008 -6.37,0.8984 -1.68,0.6055 -2.99,1.4532 -3.95,2.5782 -0.96,1.121 -1.64,2.4609 -2.04,4.0234 -0.4,1.5625 -0.6,3.3008 -0.6,5.2148 V 111.27 h -6.6 c -1.37,0 -2.04,0.683 -2.04,2.039 v 3.363 c 0,1.441 0.67,2.168 2.04,2.168 h 6.72 v 12.957 c 0,0.715 0.17,1.238 0.54,1.551 0.36,0.324 0.86,0.566 1.5,0.722 l 4.79,1.321 c 1.37,0.398 2.05,-0.196 2.05,-1.797 V 118.84 h 13.32 c 0.88,0 1.44,-0.188 1.68,-0.551 0.24,-0.359 0.36,-0.859 0.36,-1.492 v -3.488 c 0,-0.711 -0.12,-1.239 -0.36,-1.551 -0.24,-0.324 -0.8,-0.488 -1.68,-0.488 h -13.32 V 74.9102 c 0,-1.4336 0.09,-2.5977 0.3,-3.4766 0.19,-0.8789 0.61,-1.5977 1.26,-2.1563 0.63,-0.5664 1.5,-0.9492 2.58,-1.1406 1.08,-0.207 2.54,-0.3047 4.38,-0.3047 0.64,0 1.74,0.0586 3.3,0.1836 1.55,0.1211 2.78,0.2149 3.65,0.293 0.97,0.082 1.61,0.0195 1.93,-0.1719 0.32,-0.207 0.55,-0.625 0.72,-1.2617 l 0.48,-2.7656" /><path
             id="path162"
             style="fill:#231f20;fill-opacity:1;fill-rule:nonzero;stroke:none"
             d="m 1796.66,40.957 c -0.17,-0.5664 -0.4,-0.9843 -0.72,-1.2617 -0.32,-0.2812 -0.88,-0.418 -1.68,-0.418 h -5.52 c -1.12,0 -1.48,0.6329 -1.08,1.9141 l 6.96,19.1992 -21.12,56.5234 c -0.16,0.477 -0.18,0.918 -0.06,1.316 0.11,0.403 0.46,0.61 1.02,0.61 h 6.36 c 0.64,0 1.07,-0.149 1.32,-0.434 0.24,-0.269 0.44,-0.691 0.59,-1.258 l 9.85,-27.4683 6.48,-18.3711 c 0.16,0.4883 0.62,1.7461 1.38,3.7891 0.76,2.0312 1.53,4.2187 2.33,6.5351 0.89,2.6445 1.89,5.6016 3.01,8.8828 l 9.12,26.7574 c 0.31,1.036 0.96,1.567 1.92,1.567 h 6.48 c 0.96,0 1.24,-0.61 0.84,-1.809 l -27.48,-76.074" /></g></g></g></g></svg>