<?xml version="1.0" encoding="UTF-8" ?>
<!DOCTYPE svg PUBLIC "-//W3C//DTD SVG 1.1//EN" "http://www.w3.org/Graphics/SVG/1.1/DTD/svg11.dtd">
<svg width="975pt" height="975pt" viewBox="0 0 975 975" version="1.1" xmlns="http://www.w3.org/2000/svg">
<path fill="#6693a8" d=" M 0.00 0.00 L 482.99 0.00 C 483.01 160.67 483.00 321.33 482.99 482.00 C 322.00 482.00 161.00 482.00 0.00 482.00 L 0.00 0.00 Z" />
<path fill="#f8fafb" d=" M 482.99 0.00 L 493.00 0.00 C 493.00 160.67 493.00 321.33 493.00 482.00 C 653.67 482.01 814.33 481.99 975.00 482.01 L 975.00 492.00 C 814.34 492.00 653.67 492.00 493.01 492.00 C 492.99 653.00 493.01 814.00 492.99 975.00 L 483.00 975.00 C 483.00 814.00 483.01 653.00 483.00 492.00 C 340.98 492.00 198.96 492.00 56.94 492.00 C 37.96 492.15 18.97 491.69 0.00 492.23 L 0.00 482.00 C 161.00 482.00 322.00 482.00 482.99 482.00 C 483.00 321.33 483.01 160.67 482.99 0.00 Z" />
<path fill="#6693a8" d=" M 493.00 0.00 L 975.00 0.00 L 975.00 482.01 C 814.33 481.99 653.67 482.01 493.00 482.00 C 493.00 321.33 493.00 160.67 493.00 0.00 Z" />
<path fill="#f8fafb" d=" M 618.21 104.30 C 620.55 102.12 623.99 102.13 626.99 101.99 C 659.01 102.01 691.02 101.99 723.04 102.00 C 741.46 101.71 760.22 103.13 777.77 109.09 C 793.20 114.14 806.96 124.75 814.86 139.05 C 822.69 152.89 824.09 169.37 822.53 184.94 C 821.00 198.20 815.94 211.12 807.48 221.51 C 794.82 237.24 776.29 247.91 756.51 251.71 C 736.91 255.52 716.65 254.41 697.06 251.07 C 696.94 292.71 697.01 334.36 697.02 376.01 C 697.36 380.61 696.61 386.15 700.29 389.67 C 704.35 393.83 710.65 393.40 715.97 394.11 C 721.98 394.92 728.07 394.42 734.07 395.15 C 736.40 395.38 736.66 398.02 736.03 399.83 C 734.98 401.50 732.91 402.15 731.03 402.01 C 696.36 401.98 661.68 402.02 627.02 401.99 C 623.77 401.67 618.85 401.78 617.66 397.97 C 617.65 395.43 620.58 395.04 622.51 394.75 C 630.82 394.07 639.47 395.08 647.51 392.34 C 651.73 390.80 654.22 386.42 653.98 382.01 C 654.02 296.65 654.00 211.28 653.99 125.91 C 654.04 119.75 651.95 111.83 645.02 110.34 C 636.84 108.18 628.29 110.18 620.05 108.61 C 618.20 108.29 616.94 105.86 618.21 104.30 Z" />
<path fill="#f8fafb" d=" M 107.29 105.40 C 108.49 105.08 109.73 104.94 110.99 104.98 C 142.99 105.04 174.99 104.97 206.98 105.01 C 230.05 105.61 253.21 106.63 275.99 110.51 C 290.50 112.88 304.79 117.25 317.61 124.56 C 340.70 137.44 358.11 158.79 369.46 182.39 C 380.26 204.91 385.31 230.03 385.01 254.96 C 385.29 277.46 381.61 300.21 372.76 320.98 C 361.83 346.83 342.33 368.83 318.42 383.43 C 293.99 398.14 265.26 404.03 237.03 404.99 C 194.35 405.01 151.66 404.99 108.97 405.00 C 106.36 405.03 102.70 404.22 102.37 401.07 C 102.38 398.60 105.17 398.02 107.06 397.52 C 116.39 396.05 126.65 398.15 135.23 393.27 C 140.29 390.47 139.60 383.93 139.99 379.02 C 140.01 297.65 140.01 216.29 139.99 134.93 C 139.66 129.09 139.74 122.98 137.46 117.50 C 135.13 114.20 130.54 114.29 126.95 113.66 C 120.36 112.62 113.39 114.22 107.04 111.91 C 103.89 111.06 103.85 105.82 107.29 105.40 Z" />
<path fill="#6693a8" d=" M 701.52 113.61 C 708.45 109.21 717.07 109.21 725.00 109.23 C 739.02 109.18 753.86 113.74 763.19 124.69 C 773.93 137.08 776.85 154.10 777.43 169.99 C 777.84 186.90 775.91 204.90 766.23 219.27 C 758.27 231.13 744.82 237.88 731.40 241.57 C 720.25 244.59 708.62 245.18 697.14 244.60 C 696.83 205.73 697.08 166.86 697.01 127.99 C 697.38 123.09 696.80 116.67 701.52 113.61 Z" />
<path fill="#6693a8" d=" M 210.28 114.37 C 235.15 113.36 261.07 115.68 283.41 127.51 C 299.64 136.04 312.62 150.11 320.51 166.60 C 329.19 184.49 333.23 204.24 335.11 223.92 C 337.69 253.95 336.96 284.58 329.97 314.01 C 325.92 330.16 319.58 346.03 309.24 359.22 C 297.94 373.79 282.43 385.20 264.82 390.83 C 244.89 397.35 223.50 396.37 202.92 394.44 C 197.09 393.46 190.63 392.94 185.81 389.21 C 182.61 385.30 183.99 379.68 183.51 375.01 C 183.53 300.36 183.51 225.71 183.52 151.05 C 183.58 142.38 183.18 133.65 184.42 125.03 C 184.81 122.62 185.58 119.92 188.00 118.80 C 194.81 115.18 202.77 114.99 210.28 114.37 Z" />
<path fill="#6693a8" d=" M 0.00 492.23 C 18.97 491.69 37.96 492.15 56.94 492.00 C 198.96 492.00 340.98 492.00 483.00 492.00 C 483.01 653.00 483.00 814.00 483.00 975.00 L 0.00 975.00 L 0.00 492.23 Z" />
<path fill="#6693a8" d=" M 493.01 492.00 C 653.67 492.00 814.34 492.00 975.00 492.00 L 975.00 975.00 L 492.99 975.00 C 493.01 814.00 492.99 653.00 493.01 492.00 Z" />
<path fill="#f8fafb" d=" M 109.05 563.59 C 104.93 563.11 103.91 556.33 108.03 555.14 C 115.04 554.39 122.00 555.90 129.00 556.05 C 141.98 556.72 154.98 556.83 167.97 556.75 C 180.36 557.14 192.62 554.56 205.01 554.99 C 208.62 555.23 212.58 554.25 215.92 556.02 C 218.53 557.16 218.52 561.79 215.63 562.59 C 207.78 564.14 199.65 563.11 191.80 564.67 C 189.19 565.30 185.87 566.13 184.95 569.04 C 183.72 572.86 183.58 576.94 183.33 580.92 C 182.70 605.61 183.12 630.32 183.00 655.03 C 183.00 718.16 183.00 781.30 183.00 844.43 C 206.68 844.91 230.40 845.15 254.06 843.87 C 266.07 843.01 278.22 842.14 289.85 838.83 C 299.40 836.03 308.83 830.69 313.89 821.81 C 319.63 811.53 321.81 799.69 322.89 788.09 C 323.28 785.13 322.85 781.95 324.11 779.18 C 325.36 776.64 328.52 776.60 330.90 777.22 C 333.22 778.14 333.62 780.82 333.54 783.03 C 333.51 797.00 333.52 810.96 333.54 824.93 C 333.29 835.90 332.73 846.86 332.33 857.82 C 324.22 858.63 316.16 857.02 308.07 856.62 C 289.39 855.58 270.66 856.32 251.96 855.78 C 232.28 855.98 212.62 855.32 192.94 855.53 C 178.63 854.87 164.29 855.62 149.98 855.01 C 136.62 854.93 123.26 855.20 109.91 854.66 C 107.86 854.57 105.42 853.31 105.42 850.98 C 105.16 849.34 106.97 848.70 108.17 848.27 C 117.37 845.52 127.68 847.75 136.45 843.40 C 139.90 839.96 139.67 834.50 139.99 829.98 C 139.99 746.66 140.04 663.33 139.96 580.01 C 139.46 575.49 139.92 569.96 136.50 566.50 C 127.78 562.99 118.09 565.21 109.05 563.59 Z" />
<path fill="#f8fafb" d=" M 716.55 555.54 C 717.85 553.96 719.95 555.41 720.16 557.15 C 731.25 589.33 743.36 621.15 755.09 653.10 C 777.79 714.71 800.42 776.35 823.00 838.01 C 824.95 843.10 827.40 848.91 832.82 851.10 C 841.50 854.22 850.91 853.17 859.91 854.40 C 862.06 854.89 865.15 855.38 865.56 858.05 C 865.52 859.57 864.57 861.22 863.01 861.61 C 857.00 863.15 851.03 860.56 845.00 860.99 C 826.33 860.87 807.68 860.10 789.01 860.24 C 775.35 860.54 761.69 860.83 748.03 861.00 C 741.58 860.40 735.06 863.53 728.73 861.25 C 726.15 860.61 725.28 857.03 727.12 855.21 C 729.61 853.22 732.94 853.08 735.99 852.92 C 747.29 852.53 758.81 852.74 769.82 849.82 C 772.08 848.94 775.64 848.01 775.71 845.07 C 773.60 835.10 769.70 825.63 766.84 815.88 C 761.55 798.97 755.90 782.18 750.44 765.34 C 719.69 765.13 688.94 765.34 658.19 765.23 C 652.54 780.36 646.93 795.52 641.71 810.80 C 638.34 821.12 634.57 831.38 632.54 842.08 C 631.56 845.82 633.15 850.74 637.40 851.46 C 646.07 852.70 654.86 852.77 663.58 853.54 C 666.22 853.92 669.17 854.18 671.18 856.16 C 672.09 857.72 671.50 860.12 669.65 860.69 C 665.06 862.80 659.84 861.77 654.96 862.00 C 635.60 862.39 616.31 859.94 596.96 860.28 C 590.66 860.26 584.46 863.00 578.16 861.70 C 575.63 861.13 574.21 857.20 576.85 855.82 C 582.16 853.18 588.31 853.97 594.04 853.31 C 600.34 852.71 607.35 851.71 611.94 846.89 C 616.40 842.23 618.04 835.82 620.15 829.92 C 648.62 748.28 677.20 666.69 706.48 585.34 C 708.65 580.00 709.64 574.26 712.10 569.02 C 714.09 564.70 713.57 559.39 716.55 555.54 Z" />
<path fill="#6693a8" d=" M 699.56 643.60 C 701.17 639.69 702.19 635.51 704.30 631.83 C 718.32 673.03 732.86 714.07 747.96 754.89 C 718.92 755.14 689.88 754.93 660.85 755.00 C 673.20 717.68 685.95 680.48 699.56 643.60 Z" />
</svg>
