<?xml version="1.0" encoding="utf-8"?>
<!-- Generator: Adobe Illustrator 16.0.4, SVG Export Plug-In . SVG Version: 6.00 Build 0)  -->
<!DOCTYPE svg PUBLIC "-//W3C//DTD SVG 1.1//EN" "http://www.w3.org/Graphics/SVG/1.1/DTD/svg11.dtd">
<svg version="1.1" id="Layer_1" xmlns="http://www.w3.org/2000/svg" xmlns:xlink="http://www.w3.org/1999/xlink" x="0px" y="0px"
	 width="841.89px" height="595.28px" viewBox="0 0 841.89 595.28" enable-background="new 0 0 841.89 595.28" xml:space="preserve">
<path fill="#231F20" d="M548.03,192.05c-0.19-2.811-0.541-5.561-0.645-8.387c-0.511-2.056-0.817-5.448-1.371-7.274
	c-0.77-2.521-0.798-3.436-1.305-5.143c-0.54-1.833-0.575-1.729-1.677-5.828c-2.073-7.689-5.674-15.394-9.375-22.633
	c-2.415-4.722-5.498-8.528-8.474-12.665c-0.643-0.899-2.391-2.968-2.919-3.748c-1.111-1.644-8.034-9.609-10.228-11.401
	c-2.192-1.792-4.091-3.841-6.344-5.586c-2.302-1.779-4.572-3.599-6.895-5.354c-1.91-1.443-3.906-2.244-5.846-3.452
	c-10.546-6.563-22.191-11.574-34.293-14.384c-40.338-9.38-87.658,4.36-113.851,37.401c-2.738,3.461-10.31,13.992-11.381,15.749
	c-2.408,3.958-4.379,7.679-6.281,11.904c-7.416,16.469-11.868,36.204-10.455,55.122c0.773,10.358,2.832,21.046,6.397,30.812
	c1.116,3.062,2.153,6.171,3.575,9.11c0.975,2.021,3.496,6.61,3.714,7.01c-21.541,9.584-36.583,31.13-36.583,56.231
	c0,33.994,27.561,61.551,61.556,61.551c7.354,0,14.375-1.358,20.917-3.723c0.083,0.249,0.203,0.431,0.317,0.626
	c3.387,13.382,15.468,23.29,29.898,23.29c17.051,0,30.877-13.822,30.877-30.872c0-14.702-10.282-26.978-24.04-30.097
	c0.083-0.33,0.185-0.666,0.277-0.999c0.422-1.248,0.792-2.515,1.139-3.798c0.494-1.603,0.957-3.213,1.22-4.879
	c0.14-0.852,0.258-1.955,0.358-3.011c0.154-1.194,0.276-2.386,0.363-3.597c0.294-0.188,0.712,0,1.314,0.028
	c6.724,0.289,13.423,1.398,20.173,1.037c12.569-0.666,26.087-3.165,37.661-8.271c12.05-5.315,23.553-12.168,33.517-20.81
	c4.751-4.128,9.153-8.686,12.918-13.734c1.809-2.424,3.91-4.477,5.552-7.048c1.388-2.178,2.942-4.206,4.162-6.488
	c0.859-1.609,1.062-2.355,1.903-3.964c0.519-1.002,1.148-1.886,1.525-2.952c0.814-2.289,1.208-4.737,1.291-7.164
	c0.16-4.731-1.305-9.547-3.95-13.482c-2.264-3.36-7.335-6.554-11.331-7.658c-4.715-1.301-10.053-1.034-14.613,0.742
	c-5.01,1.949-8.45,6.25-11.113,10.748c-2.954,5.004-5.744,9.497-9.896,13.649c-7.685,7.68-16.027,13.822-26.148,17.943
	c-38.728,15.79-83.799-5.655-96.595-45.333c-5.948-18.452-4.258-39.24,5.171-56.347c4.967-9.009,11.565-16.987,19.648-23.375
	c4.291-3.386,9.163-6.626,14.175-8.742c4.525-1.905,9.104-2.955,13.739-4.527c3.634-1.232,8.523-1.556,12.406-1.851
	c4.085-0.305,8.317-0.403,12.373,0.264c8.305,1.367,16.896,3.266,24.477,7.139c4.128,2.106,8.631,5.026,12.351,7.978
	c3.706,2.939,7.65,6.636,10.655,10.543c2.364,3.024,3.824,5.265,6.035,8.484c2.321,3.659,5.779,7.626,6.039,12.257
	c-9.593-0.003-19.394,0.069-28.992,0.069c-9.325,0-19.356-2.068-28.044,2.273c-9.023,4.501-15.895,17.657-10.295,27.207
	c2.715,4.612,4.088,8.287,9.217,10.83c5.087,2.518,9.679,2.92,15.281,2.792c13.251-0.295,26.546-0.016,39.808-0.016h20.644
	c5.881,0,11.539,0.358,17.108-1.782C544.199,210.871,548.688,201.76,548.03,192.05 M385.251,360.533
	c0-11.797,9.562-21.363,21.36-21.363c11.804,0,21.371,9.566,21.371,21.363c0,11.804-9.567,21.37-21.371,21.37
	C394.813,381.903,385.251,372.336,385.251,360.533 M355.289,268.205c22.791,0,41.264,18.475,41.264,41.265
	c0,22.787-18.473,41.262-41.264,41.262s-41.268-18.475-41.268-41.262C314.021,286.68,332.498,268.205,355.289,268.205
	 M499.791,173.095c0.087,0,0.186,0,0.327,0C500.118,173.095,499.948,173.095,499.791,173.095"/>
<path fill="#231F20" d="M534.089,422.017h-5.615c-3.778,0-5.667,1.39-5.667,4.17v0.429c0,2.781,1.836,4.171,5.507,4.171
	c3.851,0,5.775-1.872,5.775-5.615V422.017z M538.849,434.423c-1.104,0-2.032-0.374-2.781-1.123
	c-0.428-0.321-0.783-0.855-1.069-1.604c-1.676,1.818-4.171,2.728-7.487,2.728c-3.172,0-5.561-0.749-7.165-2.246
	c-1.462-1.391-2.192-3.263-2.192-5.615v-0.428c0-2.353,0.783-4.207,2.353-5.561c1.783-1.462,4.279-2.193,7.487-2.193h6.096v-1.283
	c0-2.281-0.356-3.886-1.069-4.812c-0.82-1.07-2.299-1.605-4.438-1.605c-1.998,0-3.816,0.446-5.455,1.338
	c-0.393,0.214-0.768,0.32-1.123,0.32c-0.57,0-1.043-0.204-1.417-0.614c-0.375-0.41-0.562-0.884-0.562-1.418
	c0-0.678,0.32-1.23,0.963-1.657c1.996-1.248,4.617-1.872,7.86-1.872c3.637,0,6.238,0.909,7.808,2.728
	c1.391,1.676,2.085,4.35,2.085,8.021v9.948c0,1.676,0.5,2.798,1.498,3.368c0.606,0.393,0.909,0.909,0.909,1.551
	C541.148,433.747,540.382,434.423,538.849,434.423 M512.834,433.755c-0.447,0.444-1.009,0.668-1.686,0.668
	c-0.641,0-1.186-0.224-1.631-0.668c-0.447-0.445-0.668-1.007-0.668-1.685V416.99c0-1.889-0.341-3.279-1.016-4.172
	c-0.821-1.069-2.176-1.604-4.064-1.604c-3.031,0-5.188,1.123-6.471,3.369v17.487c0,0.678-0.234,1.239-0.695,1.685
	c-0.464,0.444-1.017,0.668-1.658,0.668c-0.641,0-1.195-0.232-1.657-0.695c-0.464-0.463-0.695-1.017-0.695-1.657v-18.021
	c0-1.675-0.555-2.799-1.658-3.37c-0.607-0.32-0.909-0.837-0.909-1.55c0-1.354,0.766-2.033,2.301-2.033
	c0.995,0,1.958,0.375,2.887,1.124c0.535,0.534,0.927,1.123,1.177,1.764c1.96-2.139,4.74-3.208,8.343-3.208
	c5.846,0,8.77,3.262,8.77,9.786v15.509C513.502,432.749,513.278,433.31,512.834,433.755 M480.506,422.017h-5.615
	c-3.778,0-5.669,1.39-5.669,4.17v0.429c0,2.781,1.837,4.171,5.509,4.171c3.85,0,5.775-1.872,5.775-5.615V422.017z M485.265,434.423
	c-1.104,0-2.031-0.374-2.78-1.123c-0.428-0.321-0.784-0.855-1.069-1.604c-1.676,1.818-4.171,2.728-7.487,2.728
	c-3.173,0-5.561-0.749-7.165-2.246c-1.463-1.391-2.193-3.263-2.193-5.615v-0.428c0-2.353,0.784-4.207,2.354-5.561
	c1.782-1.462,4.278-2.193,7.486-2.193h6.097v-1.283c0-2.281-0.356-3.886-1.069-4.812c-0.82-1.07-2.3-1.605-4.439-1.605
	c-1.996,0-3.814,0.446-5.454,1.338c-0.393,0.214-0.767,0.32-1.122,0.32c-0.571,0-1.044-0.204-1.418-0.614
	c-0.375-0.41-0.561-0.884-0.561-1.418c0-0.678,0.32-1.23,0.962-1.657c1.996-1.248,4.617-1.872,7.861-1.872
	c3.637,0,6.238,0.909,7.808,2.728c1.39,1.676,2.085,4.35,2.085,8.021v9.948c0,1.676,0.5,2.798,1.498,3.368
	c0.606,0.393,0.909,0.909,0.909,1.551C487.565,433.747,486.797,434.423,485.265,434.423 M456.871,417.417
	c0-4.526-1.945-6.791-5.83-6.791c-3.993,0-5.989,2.265-5.989,6.791v0.909h11.819V417.417z M461.417,420.199
	c0,1.213-0.591,1.818-1.767,1.818h-14.599v1.444c0,4.635,2.013,6.951,6.044,6.951c2.565,0,4.793-0.498,6.685-1.498
	c0.247-0.142,0.515-0.213,0.802-0.213c0.534,0,0.979,0.213,1.334,0.642c0.356,0.428,0.537,0.909,0.537,1.443
	c0,0.749-0.357,1.319-1.069,1.712c-2.427,1.282-5.243,1.925-8.45,1.925c-3.602,0-6.312-1.123-8.129-3.37
	c-1.604-1.959-2.405-4.615-2.405-7.967v-4.974c0-3.351,0.819-6.007,2.46-7.968c1.854-2.246,4.545-3.369,8.074-3.369
	c3.672,0,6.397,1.123,8.183,3.369c1.531,1.89,2.301,4.511,2.301,7.861V420.199z M430.987,417.311c0-4.313-1.961-6.472-5.883-6.472
	c-1.889,0-3.688,0.749-5.4,2.247v14.812c1.605,1.642,3.458,2.46,5.562,2.46c3.813,0,5.721-2.406,5.721-7.22V417.311z
	 M426.068,434.423c-2.426,0-4.545-0.695-6.364-2.085v9.197c0,0.678-0.232,1.238-0.695,1.685c-0.465,0.445-1.016,0.669-1.658,0.669
	s-1.186-0.224-1.631-0.669c-0.446-0.446-0.668-1.007-0.668-1.685v-27.809c0-1.71-0.5-2.834-1.498-3.368
	c-0.606-0.321-0.909-0.838-0.909-1.551c0-1.354,0.767-2.032,2.3-2.032c1.032,0,1.977,0.374,2.834,1.123
	c0.356,0.321,0.696,0.732,1.016,1.23c2.174-1.568,4.508-2.354,7.005-2.354c6.594,0,9.894,3.601,9.894,10.802v4.866
	C435.694,430.43,432.485,434.423,426.068,434.423 M404.145,417.846c0-4.492-2.033-6.738-6.097-6.738
	c-4.029,0-6.042,2.246-6.042,6.738v5.507c0,4.529,2.013,6.793,6.042,6.793c4.064,0,6.097-2.264,6.097-6.793V417.846z
	 M406.335,431.162c-1.854,2.176-4.617,3.262-8.288,3.262c-3.636,0-6.382-1.086-8.236-3.262c-1.676-1.961-2.514-4.563-2.514-7.809
	v-5.507c0-3.244,0.838-5.847,2.514-7.809c1.854-2.173,4.6-3.262,8.236-3.262c3.671,0,6.434,1.089,8.288,3.262
	c1.676,1.962,2.514,4.564,2.514,7.809v5.507C408.849,426.598,408.011,429.201,406.335,431.162 M383.875,411.588
	c-0.285-0.035-0.589-0.079-0.909-0.134c-0.321-0.054-0.634-0.096-0.936-0.133c-0.304-0.036-0.562-0.054-0.776-0.054
	c-3.281,0-5.258,1.623-5.936,4.866v15.937c0,0.678-0.232,1.239-0.695,1.685c-0.463,0.444-1.016,0.668-1.658,0.668
	c-0.641,0-1.194-0.232-1.657-0.695s-0.696-1.017-0.696-1.657v-18.021c0-1.675-0.552-2.799-1.657-3.37
	c-0.606-0.32-0.909-0.837-0.909-1.55c0-1.354,0.767-2.033,2.3-2.033c0.392,0,0.641,0.019,0.748,0.054
	c1.747,0.465,2.942,1.569,3.583,3.316c1.747-2.461,4.206-3.69,7.379-3.69c1.462,0,2.656,0.214,3.583,0.643
	c0.749,0.392,1.123,1.016,1.123,1.871c0,0.642-0.214,1.194-0.642,1.657c-0.428,0.465-0.944,0.695-1.55,0.695
	C384.392,411.642,384.16,411.625,383.875,411.588 M362.858,434.423c-1.034,0-1.997-0.374-2.888-1.123
	c-0.5-0.429-0.927-1.087-1.284-1.979c-1.96,2.069-4.724,3.102-8.289,3.102c-5.811,0-8.716-3.244-8.716-9.732v-15.562
	c0-0.642,0.223-1.194,0.668-1.658c0.446-0.463,1.008-0.695,1.685-0.695c0.642,0,1.185,0.232,1.631,0.695
	c0.446,0.464,0.668,1.017,0.668,1.658v15.133c0,1.891,0.339,3.28,1.016,4.172c0.82,1.034,2.174,1.55,4.064,1.55
	c3.102,0,5.259-1.192,6.471-3.582v-17.272c0-0.642,0.232-1.194,0.695-1.658c0.463-0.463,1.016-0.695,1.658-0.695
	c0.642,0,1.195,0.232,1.658,0.695c0.463,0.464,0.695,1.017,0.695,1.658v18.343c0,1.676,0.553,2.798,1.658,3.368
	c0.606,0.321,0.909,0.839,0.909,1.551C365.158,433.747,364.392,434.423,362.858,434.423 M331.896,417.417
	c0-4.526-1.943-6.791-5.829-6.791c-3.994,0-5.989,2.265-5.989,6.791v0.909h11.817V417.417z M336.442,420.199
	c0,1.213-0.588,1.818-1.765,1.818h-14.599v1.444c0,4.635,2.013,6.951,6.042,6.951c2.567,0,4.795-0.498,6.684-1.498
	c0.25-0.142,0.517-0.213,0.803-0.213c0.535,0,0.979,0.213,1.337,0.642c0.356,0.428,0.535,0.909,0.535,1.443
	c0,0.749-0.357,1.319-1.069,1.712c-2.425,1.282-5.241,1.925-8.45,1.925c-3.601,0-6.31-1.123-8.128-3.37
	c-1.604-1.959-2.406-4.615-2.406-7.967v-4.974c0-3.351,0.819-6.007,2.46-7.968c1.853-2.246,4.545-3.369,8.075-3.369
	c3.672,0,6.399,1.123,8.182,3.369c1.533,1.89,2.299,4.511,2.299,7.861V420.199z"/>
</svg>
