<?xml version="1.0" encoding="utf-8"?>
<!-- Generator: Adobe Illustrator 19.2.1, SVG Export Plug-In . SVG Version: 6.00 Build 0)  -->
<svg version="1.1" id="Layer_1" xmlns="http://www.w3.org/2000/svg" xmlns:xlink="http://www.w3.org/1999/xlink" x="0px" y="0px"
	 viewBox="0 0 587.8 192.8" style="enable-background:new 0 0 587.8 192.8;" xml:space="preserve">
<style type="text/css">
	.st0{fill:#F26322;}
</style>
<g>
	<path class="st0" d="M184.3,119.3c1.8-7.4,2.8-15,2.8-22.9C187.1,43.2,143.9,0,90.7,0c-41,0-75.9,25.6-89.9,61.6V86l55.4-55.4
		l24.9,24.9L41.7,94.9l39.4,39.4l-24.9,24.9l-39.4-39.4L2.1,134.5c14.8,34.3,48.9,58.3,88.6,58.3c31.4,0,59.3-15,76.9-38.3h-27.3
		H130h-24.9V35.9h35.2v83.4H184.3z"/>
	<path class="st0" d="M566.4,144.9c-1.2-1.7-1.8-4.3-1.8-7.8c0-3.5,0.6-6.1,1.8-7.9c1.2-1.8,2.9-2.7,5-2.7c2.6,0,4.5,0.8,5.7,2.5
		c1.2,1.6,1.8,4.4,1.8,8.1v1c-0.1,3.4-0.7,5.9-1.9,7.3c-1.1,1.4-3,2.1-5.4,2.1C569.3,147.5,567.6,146.6,566.4,144.9 M578.1,149.9
		h0.4l1.9,4.6h7.4v-49.1h-9.7v11.3c0,2.1,0.2,4.4,0.7,7h-0.3c-2.3-3.4-5.7-5.2-10.2-5.2c-4.2,0-7.5,1.6-10,4.8
		c-2.4,3.2-3.6,7.7-3.6,13.5c0,5.7,1.2,10.2,3.5,13.4c2.4,3.2,5.6,4.8,9.8,4.8C572.6,155.1,576,153.4,578.1,149.9 M544.7,131.5
		c0-4.2-1.1-7.4-3.2-9.6c-2.1-2.2-5.2-3.3-9.3-3.3c-2.4,0-4.5,0.4-6.4,1.3c-1.9,0.9-3.4,2.2-4.4,3.9h-0.5l-1.3-4.5h-7.4v35.3h9.6
		v-16.6c0-4.2,0.6-7.1,1.8-8.9c1.2-1.8,3.1-2.7,5.8-2.7c2,0,3.4,0.6,4.3,1.9c0.9,1.3,1.4,3.2,1.4,5.7v20.6h9.6V131.5z M490.7,141.1
		c0,2.1-0.7,3.8-2,5.1c-1.3,1.3-3.1,1.9-5.3,1.9c-3.1,0-4.7-1.4-4.7-4.1c0-1.9,0.7-3.3,2-4.2c1.4-0.9,3.4-1.4,6.2-1.5l3.7-0.1V141.1
		z M500.3,154.5V131c0-4.2-1.3-7.3-3.8-9.4c-2.5-2.1-6.2-3.1-10.9-3.1c-4.9,0-9.4,1.1-13.5,3.2l3.2,6.5c3.8-1.7,7.1-2.6,9.9-2.6
		c3.7,0,5.5,1.8,5.5,5.4v1.5l-6.1,0.2c-5.3,0.2-9.2,1.2-11.8,2.9c-2.6,1.8-3.9,4.5-3.9,8.3c0,3.6,1,6.3,2.9,8.3
		c1.9,1.9,4.6,2.9,8,2.9c2.8,0,5-0.4,6.7-1.2c1.7-0.8,3.4-2.2,5-4.2h0.3l1.9,4.8H500.3z M459,105.4h-9.6v49.1h9.6V105.4z
		 M438.4,139.5c-0.6-1.3-1.6-2.4-2.8-3.3c-1.3-1-3.3-2-6.1-3.1c-3.1-1.2-5.1-2.2-6-2.8c-0.9-0.6-1.4-1.4-1.4-2.2
		c0-1.5,1.4-2.3,4.3-2.3c1.6,0,3.2,0.2,4.7,0.7c1.5,0.5,3.2,1.1,5,1.9l2.9-6.9c-4-1.9-8.2-2.8-12.4-2.8c-4.5,0-7.9,0.9-10.3,2.6
		c-2.4,1.7-3.6,4.1-3.6,7.3c0,1.8,0.3,3.4,0.9,4.6c0.6,1.3,1.5,2.4,2.8,3.3c1.3,1,3.3,2,6,3.2c1.9,0.8,3.4,1.5,4.5,2.1
		c1.1,0.6,1.9,1.1,2.4,1.6c0.5,0.5,0.7,1.1,0.7,1.8c0,2-1.7,3-5.2,3c-1.7,0-3.7-0.3-5.9-0.9c-2.2-0.6-4.3-1.3-6-2.1v7.9
		c1.6,0.7,3.3,1.2,5.1,1.5c1.8,0.3,4,0.5,6.6,0.5c5,0,8.8-0.9,11.3-2.8c2.5-1.9,3.8-4.6,3.8-8.3C439.3,142.3,439,140.8,438.4,139.5
		 M402.1,119.2h-9.6v35.3h9.6V119.2z M397.3,114.9c1.7,0,3.1-0.4,3.9-1.2c0.9-0.8,1.3-2,1.3-3.5c0-3.1-1.7-4.7-5.2-4.7
		c-3.5,0-5.2,1.6-5.2,4.7C392.1,113.3,393.8,114.9,397.3,114.9 M380.6,131.5c0-4.2-1.1-7.4-3.2-9.6c-2.1-2.2-5.2-3.3-9.3-3.3
		c-2.4,0-4.5,0.4-6.4,1.3c-1.9,0.9-3.4,2.2-4.4,3.9h-0.5l-1.3-4.5h-7.4v35.3h9.6v-16.6c0-4.2,0.6-7.1,1.8-8.9
		c1.2-1.8,3.1-2.7,5.8-2.7c2,0,3.4,0.6,4.3,1.9c0.9,1.3,1.4,3.2,1.4,5.7v20.6h9.6V131.5z M336.2,131.5c0-4.2-1.1-7.4-3.2-9.6
		c-2.1-2.2-5.2-3.3-9.3-3.3c-2.4,0-4.5,0.4-6.4,1.3c-1.9,0.9-3.4,2.2-4.4,3.9h-0.5l-1.3-4.5h-7.4v35.3h9.6v-16.6
		c0-4.2,0.6-7.1,1.8-8.9c1.2-1.8,3.1-2.7,5.8-2.7c2,0,3.4,0.6,4.3,1.9c0.9,1.3,1.4,3.2,1.4,5.7v20.6h9.6V131.5z M285.9,154.5
		c1.9-0.4,3.7-1,5.4-1.9v-7.4c-2.1,1-4,1.7-5.9,2.1c-1.9,0.4-3.9,0.7-6,0.7c-2.7,0-4.9-0.8-6.4-2.3c-1.5-1.5-2.3-3.7-2.4-6.4h22.7
		v-4.7c0-5-1.4-8.9-4.2-11.8c-2.8-2.8-6.7-4.3-11.6-4.3c-5.2,0-9.3,1.6-12.3,4.8c-3,3.2-4.4,7.8-4.4,13.7c0,5.7,1.6,10.2,4.8,13.3
		c3.2,3.1,7.6,4.7,13.3,4.7C281.6,155.1,283.9,154.9,285.9,154.5 M282.4,127.4c1.2,1.3,1.8,3.1,1.9,5.5h-13.5c0.2-2.4,0.8-4.2,2-5.5
		c1.2-1.3,2.8-1.9,4.8-1.9C279.5,125.4,281.2,126.1,282.4,127.4 M240.4,128.8l16.1-20.4h-10.9l-12.5,15.7l-3.8,5.4v-21.1h-9.8v46.1
		h9.8V138l4.1-3l12.1,19.4h11.1L240.4,128.8z"/>
</g>
</svg>
