<?xml version="1.0" encoding="utf-8"?>
<!-- Generator: Adobe Illustrator 16.0.0, SVG Export Plug-In . SVG Version: 6.00 Build 0)  -->
<!DOCTYPE svg PUBLIC "-//W3C//DTD SVG 1.1//EN" "http://www.w3.org/Graphics/SVG/1.1/DTD/svg11.dtd">
<svg version="1.1" id="Layer_1" xmlns="http://www.w3.org/2000/svg" xmlns:xlink="http://www.w3.org/1999/xlink" x="0px" y="0px"
	 width="478px" height="56.5px" viewBox="0 0 478 56.5" enable-background="new 0 0 478 56.5" xml:space="preserve">
<g>
	<path fill="#424143" d="M3.23,13.96h13.16c3.66,0,6.5,1.03,8.39,2.92c1.6,1.6,2.47,3.87,2.47,6.58v0.08c0,4.65-2.51,7.57-6.17,8.92
		l7.03,10.28h-7.4l-6.17-9.21H9.56v9.21H3.23V13.96z M15.98,27.95c3.08,0,4.85-1.65,4.85-4.07v-0.08c0-2.71-1.89-4.11-4.98-4.11
		H9.56v8.27H15.98z"/>
	<path fill="#424143" d="M30.78,13.96h6.33v28.79h-6.33V13.96z"/>
	<path fill="#424143" d="M40.56,28.44v-0.08c0-8.18,6.37-14.89,15.09-14.89c5.18,0,8.31,1.4,11.31,3.95l-3.99,4.81
		c-2.22-1.85-4.19-2.92-7.53-2.92c-4.61,0-8.27,4.07-8.27,8.96v0.08c0,5.26,3.62,9.13,8.72,9.13c2.3,0,4.36-0.58,5.96-1.73v-4.11
		h-6.37v-5.47h12.5v12.5c-2.96,2.51-7.03,4.56-12.3,4.56C46.73,43.24,40.56,36.95,40.56,28.44z"/>
	<path fill="#424143" d="M71.6,13.96h6.33v11.39h11.68V13.96h6.33v28.79h-6.33V31.2H77.94v11.56H71.6V13.96z"/>
	<path fill="#424143" d="M107.09,19.8h-8.76v-5.84h23.85v5.84h-8.76v22.95h-6.33V19.8z"/>
	<path fill="#424143" d="M122.58,38.56l3.74-4.48c2.59,2.14,5.3,3.5,8.59,3.5c2.59,0,4.15-1.03,4.15-2.71v-0.08
		c0-1.6-0.99-2.43-5.8-3.66c-5.8-1.48-9.54-3.08-9.54-8.8v-0.08c0-5.22,4.19-8.68,10.07-8.68c4.19,0,7.77,1.32,10.69,3.66
		l-3.29,4.77c-2.55-1.77-5.06-2.84-7.48-2.84c-2.43,0-3.7,1.11-3.7,2.51v0.08c0,1.89,1.23,2.51,6.21,3.78
		c5.84,1.52,9.13,3.62,9.13,8.64v0.08c0,5.72-4.36,8.92-10.57,8.92C130.44,43.16,126.04,41.64,122.58,38.56z"/>
	<path fill="#424143" d="M218.79,38.56l3.74-4.48c2.59,2.14,5.3,3.5,8.59,3.5c2.59,0,4.15-1.03,4.15-2.71v-0.08
		c0-1.6-0.99-2.43-5.8-3.66c-5.8-1.48-9.54-3.08-9.54-8.8v-0.08c0-5.22,4.2-8.68,10.08-8.68c4.19,0,7.77,1.32,10.69,3.66l-3.29,4.77
		c-2.55-1.77-5.06-2.84-7.48-2.84c-2.43,0-3.7,1.11-3.7,2.51v0.08c0,1.89,1.23,2.51,6.21,3.78c5.84,1.52,9.13,3.62,9.13,8.64v0.08
		c0,5.72-4.36,8.92-10.57,8.92C226.64,43.16,222.24,41.64,218.79,38.56z"/>
	<path fill="#424143" d="M251.31,19.8h-8.76v-5.84h23.85v5.84h-8.76v22.95h-6.33V19.8z"/>
	<path fill="#424143" d="M275.36,13.76h5.84l12.34,28.99h-6.62l-2.63-6.46h-12.17l-2.63,6.46h-6.46L275.36,13.76z M282.02,30.7
		l-3.82-9.33l-3.82,9.33H282.02z"/>
	<path fill="#424143" d="M298.92,19.8h-8.76v-5.84h23.85v5.84h-8.76v22.95h-6.33V19.8z"/>
	<path fill="#424143" d="M316.39,13.96h21.71v5.63h-15.42v5.84h13.57v5.63h-13.57v6.04h15.63v5.63h-21.92V13.96z"/>
	<path fill="#424143" d="M341.47,13.96h6.83l7.57,12.17l7.57-12.17h6.83v28.79h-6.29V23.96l-8.1,12.3h-0.17l-8.02-12.17v18.67h-6.21
		V13.96z"/>
	<path fill="#424143" d="M374.69,13.96h21.71v5.63h-15.42v5.84h13.57v5.63h-13.57v6.04h15.63v5.63h-21.92V13.96z"/>
	<path fill="#424143" d="M399.77,13.96h5.84l13.49,17.72V13.96h6.25v28.79h-5.39l-13.94-18.3v18.3h-6.25V13.96z"/>
	<path fill="#424143" d="M436.49,19.8h-8.76v-5.84h23.85v5.84h-8.76v22.95h-6.33V19.8z"/>
	<path fill="#424143" d="M451.99,38.56l3.74-4.48c2.59,2.14,5.3,3.5,8.6,3.5c2.59,0,4.15-1.03,4.15-2.71v-0.08
		c0-1.6-0.99-2.43-5.8-3.66c-5.8-1.48-9.54-3.08-9.54-8.8v-0.08c0-5.22,4.19-8.68,10.07-8.68c4.2,0,7.77,1.32,10.69,3.66l-3.29,4.77
		c-2.55-1.77-5.06-2.84-7.48-2.84s-3.7,1.11-3.7,2.51v0.08c0,1.89,1.23,2.51,6.21,3.78c5.84,1.52,9.13,3.62,9.13,8.64v0.08
		c0,5.72-4.36,8.92-10.57,8.92C459.84,43.16,455.44,41.64,451.99,38.56z"/>
	<path fill="#068DC8" d="M209.02,1.56v26.69c0,14.75-11.95,26.69-26.69,26.69h-26.69V28.25c0-14.74,11.95-26.69,26.69-26.69H209.02z
		 M189.84,25.22h-8.58c-1.67,0-3.03,1.36-3.03,3.03c0,1.67,1.36,3.03,3.03,3.03h8.58c1.67,0,3.03-1.36,3.03-3.03
		C192.87,26.58,191.51,25.22,189.84,25.22z M184.92,34.61h-3.64c-1.67,0-3.03,1.36-3.03,3.03l0,0c0,1.67,1.36,3.03,3.03,3.03h3.64
		c1.67,0,3.03-1.36,3.03-3.03l0,0C187.95,35.96,186.6,34.61,184.92,34.61z M195,15.86h-13.71c-1.67,0-3.03,1.36-3.03,3.03
		c0,1.67,1.36,3.03,3.03,3.03H195c1.67,0,3.03-1.36,3.03-3.03C198.03,17.22,196.67,15.86,195,15.86z M173.18,15.86
		c-1.67,0-3.03,1.36-3.03,3.03c0,1.67,1.36,3.03,3.03,3.03s3.03-1.36,3.03-3.03C176.21,17.22,174.86,15.86,173.18,15.86z
		 M173.18,25.19c-1.67,0-3.03,1.36-3.03,3.03s1.36,3.03,3.03,3.03s3.03-1.36,3.03-3.03S174.86,25.19,173.18,25.19z M173.18,34.57
		c-1.67,0-3.03,1.36-3.03,3.03s1.36,3.03,3.03,3.03s3.03-1.36,3.03-3.03S174.86,34.57,173.18,34.57z"/>
</g>
<g>
</g>
<g>
</g>
<g>
</g>
<g>
</g>
<g>
</g>
<g>
</g>
</svg>
