<?xml version="1.0" encoding="utf-8"?>
<!-- Generator: Adobe Illustrator 16.0.5, SVG Export Plug-In . SVG Version: 6.00 Build 0)  -->
<!DOCTYPE svg PUBLIC "-//W3C//DTD SVG 1.1//EN" "http://www.w3.org/Graphics/SVG/1.1/DTD/svg11.dtd">
<svg version="1.1" id="Layer_1" xmlns="http://www.w3.org/2000/svg" xmlns:xlink="http://www.w3.org/1999/xlink" x="0px" y="0px"
	 width="216px" height="229.46px" viewBox="0 0 216 229.46" enable-background="new 0 0 216 229.46" xml:space="preserve">
<rect x="-0.667" y="-1.06" fill="#002E5E" width="217.333" height="231.231"/>
<polygon fill="#FFCF01" points="107.978,121.77 76.668,78.549 76.668,109.988 89.209,109.988 89.209,141.018 31.246,141.018 
	31.246,109.988 43.004,109.988 43.004,61.652 31.246,61.652 31.246,30.627 76.753,30.627 108.151,74.25 139.587,30.627 
	185.079,30.627 185.079,61.652 173.338,61.652 173.338,109.988 185.079,109.988 185.079,141.018 127.159,141.018 127.159,109.988 
	139.68,109.988 139.68,78.549 "/>
<g>
	<path fill="#FFFFFF" d="M31.341,188.097v-32.209h4.105v28.641h11.821v3.568H31.341z"/>
	<path fill="#FFFFFF" d="M55.787,188.097h-4.104v-32.209h4.104V188.097z"/>
	<path fill="#FFFFFF" d="M62.951,188.097v-32.209h10.484c4.461,0,5.978,1.518,7.183,3.303c1.113,1.736,1.292,3.658,1.292,4.281
		c0,4.014-1.381,6.691-5.531,7.627v0.225c4.594,0.535,6.603,3.301,6.603,7.717c0,8.256-6.022,9.057-9.682,9.057H62.951z
		 M67.056,169.45h5.978c3.213-0.045,4.773-2.008,4.773-5.129c0-2.678-1.517-4.865-4.952-4.865h-5.799V169.45z M67.056,184.528h5.799
		c4.372,0,5.932-3.121,5.932-5.488c0-5.131-3.167-6.021-7.36-6.021h-4.371V184.528z"/>
	<path fill="#FFFFFF" d="M93.82,173.284v14.812h-4.104v-32.209h11.109c5.71,0,7.718,4.014,7.718,8.029
		c0,3.791-2.097,6.693-5.89,7.361v0.092c3.704,0.576,5.04,1.826,5.264,8.295c0.046,1.383,0.491,6.426,1.116,8.432h-4.284
		c-1.158-2.23-0.892-6.424-1.247-10.707c-0.313-3.926-3.48-4.105-4.863-4.105H93.82z M93.82,169.718h6.157
		c2.944,0,4.372-2.543,4.372-5.354c0-2.318-1.161-4.908-4.328-4.908H93.82V169.718z"/>
	<path fill="#FFFFFF" d="M121.88,155.888h5.221l10.482,32.209h-4.594l-2.319-7.674h-12.448l-2.409,7.674h-4.15L121.88,155.888z
		 M124.378,159.681h-0.088l-5.042,17.174h10.306L124.378,159.681z"/>
	<path fill="#FFFFFF" d="M145.88,173.284v14.812h-4.104v-32.209h11.106c5.712,0,7.718,4.014,7.718,8.029
		c0,3.791-2.096,6.693-5.888,7.361v0.092c3.703,0.576,5.043,1.826,5.264,8.295c0.044,1.383,0.492,6.426,1.117,8.432h-4.284
		c-1.16-2.23-0.892-6.424-1.248-10.707c-0.312-3.926-3.479-4.105-4.863-4.105H145.88z M145.88,169.718h6.155
		c2.945,0,4.372-2.543,4.372-5.354c0-2.318-1.158-4.908-4.326-4.908h-6.201V169.718z"/>
	<path fill="#FFFFFF" d="M180.81,155.888h4.15l-8.79,19.943v12.266h-4.104v-12.266l-8.655-19.943h4.595l6.292,15.57L180.81,155.888z
		"/>
</g>
</svg>
