<?xml version="1.0" encoding="UTF-8"?>
<svg width="546px" height="163px" viewBox="0 0 546 163" version="1.1" xmlns="http://www.w3.org/2000/svg" xmlns:xlink="http://www.w3.org/1999/xlink">
    <!-- Generator: Sketch 55.2 (78181) - https://sketchapp.com -->
    <title>trove-colour</title>
    <desc>Created with Sketch.</desc>
    <g id="trove-colour" stroke="none" stroke-width="1" fill="none" fill-rule="evenodd">
        <g id="Group-237">
            <path d="M271.5104,0.7224 C239.9134,1.5224 214.6654,28.2054 215.1054,59.8094 C215.4614,85.4374 232.0124,106.7464 255.1104,114.1224 L260.7894,88.6124 C249.1824,83.7494 240.9204,72.2304 240.9204,58.9634 C240.9204,38.9194 259.4344,22.7864 279.9754,27.2834 C292.6584,30.0594 302.5124,40.4424 304.7974,53.2234 C307.5824,68.8024 298.7334,83.0164 285.4354,88.5874 L291.1104,114.0774 C314.4314,106.5804 331.1314,84.9184 331.1314,58.9634 C331.1314,26.1794 304.4924,-0.1116 271.5104,0.7224" id="Fill-221" fill="#2D004B"></path>
            <path d="M249.5693,139.0085 L4.0573,139.0085 C2.2803,139.0085 0.9923,140.4615 0.9923,142.0735 L0.9923,159.6655 C0.9923,161.2805 2.2803,162.7295 4.0573,162.7295 L244.2883,162.7295 L249.5693,139.0085 Z" id="Fill-223" fill="#2D004B"></path>
            <path d="M542.4942,139.0085 L296.6612,139.0085 L301.9432,162.7295 L542.4942,162.7295 C544.2702,162.7295 545.5592,161.2805 545.5592,159.6655 L545.5592,142.0735 C545.5592,140.4615 544.2702,139.0085 542.4942,139.0085" id="Fill-225" fill="#2D004B"></path>
            <path d="M28.3452,26.0401 L5.2692,26.0401 C3.4932,26.0401 2.2042,24.5901 2.2042,22.9751 L2.2042,5.3831 C2.2042,3.7681 3.4932,2.3181 5.2692,2.3181 L76.9232,2.3181 C78.7002,2.3181 79.9882,3.7681 79.9882,5.3831 L79.9882,22.9751 C79.9882,24.5901 78.7002,26.0401 76.9232,26.0401 L53.8472,26.0401 L53.8472,112.2221 C53.8472,113.8291 52.3942,115.2861 50.7792,115.2861 L31.4142,115.2861 C29.7982,115.2861 28.3452,113.8291 28.3452,112.2221 L28.3452,26.0401 Z" id="Fill-227" fill="#008944"></path>
            <path d="M104.4191,5.3826 C104.4191,3.7676 105.7111,2.3186 107.4881,2.3186 L155.7391,2.3186 C175.1081,2.3186 190.9241,17.9726 190.9241,37.1726 C190.9241,52.0226 181.0761,63.9666 167.0371,69.6156 L189.1471,110.6066 C190.2781,112.7026 189.1471,115.2866 186.4021,115.2866 L164.9411,115.2866 C163.6491,115.2866 162.6801,114.4746 162.3571,113.8286 L140.8921,71.0646 L129.7561,71.0646 L129.7561,112.2216 C129.7561,113.8286 128.3061,115.2866 126.6911,115.2866 L107.4881,115.2866 C105.7111,115.2866 104.4191,113.8286 104.4191,112.2216 L104.4191,5.3826 Z M153.6431,50.5736 C160.2611,50.5736 165.9061,44.4366 165.9061,37.6606 C165.9061,30.8776 160.2611,25.3936 153.6431,25.3936 L129.7561,25.3936 L129.7561,50.5736 L153.6431,50.5736 Z" id="Fill-229" fill="#008944"></path>
            <path d="M339.7118,6.5094 C338.7428,4.4134 340.0348,2.3184 342.4578,2.3184 L363.9178,2.3184 C365.2098,2.3184 366.3408,3.2874 366.6638,4.0904 L393.2928,62.9974 L394.2618,62.9974 L420.8868,4.0904 C421.2098,3.2874 422.3408,2.3184 423.6328,2.3184 L445.0968,2.3184 C447.5158,2.3184 448.8078,4.4134 447.8388,6.5094 L397.1648,115.1214 C396.6808,116.0904 395.7118,116.9014 394.4238,116.9014 L392.8078,116.9014 C391.5158,116.9014 390.5468,116.0904 390.0628,115.1214 L339.7118,6.5094 Z" id="Fill-231" fill="#008944"></path>
            <path d="M471.0803,5.3826 C471.0803,3.7676 472.3723,2.3186 474.1493,2.3186 L540.9613,2.3186 C542.7343,2.3186 544.0263,3.7676 544.0263,5.3826 L544.0263,22.9756 C544.0263,24.5906 542.7343,26.0396 540.9613,26.0396 L496.2563,26.0396 L496.2563,46.0516 L533.0523,46.0516 C534.6673,46.0516 536.1203,47.5006 536.1203,49.1156 L536.1203,66.7086 C536.1203,68.4816 534.6673,69.7726 533.0523,69.7726 L496.2563,69.7726 L496.2563,91.5646 L540.9613,91.5646 C542.7343,91.5646 544.0263,93.0146 544.0263,94.6296 L544.0263,112.2216 C544.0263,113.8286 542.7343,115.2866 540.9613,115.2866 L474.1493,115.2866 C472.3723,115.2866 471.0803,113.8286 471.0803,112.2216 L471.0803,5.3826 Z" id="Fill-233" fill="#008944"></path>
        </g>
    </g>
</svg>